<?xml version="1.0" standalone="no"?>
<!DOCTYPE svg PUBLIC "-//W3C//DTD SVG 1.1//EN" "http://www.w3.org/Graphics/SVG/1.1/DTD/svg11.dtd" >
<svg xmlns="http://www.w3.org/2000/svg" xmlns:xlink="http://www.w3.org/1999/xlink" version="1.1">
<metadata>
Created by FontForge 20170731 at Tue Jul 16 21:05:38 1929
 By Aleksey,,,
Generated by Fontographer 3.5
</metadata>
<defs>
<font id="SVNtimesNewRoman" horiz-adv-x="1024" >
  <font-face 
    font-family="SVNtimes new roman"
    font-weight="400"
    font-stretch="normal"
    units-per-em="2048"
    panose-1="2 11 114 0 0 0 0 0 0 0"
    ascent="1638"
    descent="-410"
    x-height="928"
    cap-height="1360"
    bbox="-159 -495 1921 1951"
    underline-thickness="25"
    underline-position="-86"
    unicode-range="U+0020-2219"
  />
<missing-glyph horiz-adv-x="1424" 
d="M89 0v1424h1246v-1424h-1246zM1246 89v1246h-1068v-1246h1068z" />
    <glyph glyph-name=".notdef" horiz-adv-x="1424" 
d="M89 0v1424h1246v-1424h-1246zM1246 89v1246h-1068v-1246h1068z" />
    <glyph glyph-name=".null" horiz-adv-x="0" 
 />
    <glyph glyph-name="nonmarkingreturn" horiz-adv-x="512" 
 />
    <glyph glyph-name="space" unicode=" " horiz-adv-x="512" 
 />
    <glyph glyph-name="exclam" unicode="!" horiz-adv-x="682" 
d="M352 352h-48l-75 819l-4 47l-1 33q0 11 0.5 24t8 36t24.5 42q33 39 80 39q22 0 42.5 -10t35.5 -28.5t24 -48t9 -66.5l-2 -29v-13v-12q-2 -10 -2 -14zM336 192q44 0 78 -33t34 -79q0 -20 -8 -41t-25 -38q-34 -32 -79 -32q-22 0 -43 8.5t-36.5 23t-24.5 36.5q-4 11 -6 20.5
t-2 22.5q0 24 7 42t25 37q33 33 80 33z" />
    <glyph glyph-name="quotedbl" unicode="&#x22;" horiz-adv-x="836" 
d="M544 816l-45 288l-18 119v25l-1 24q0 62 26.5 91t70.5 29q39 0 67 -29q10 -12 19 -32.5t9 -44.5q0 -20 -1 -42.5t-4.5 -56.5t-14.5 -82l-60 -289h-48zM192 816l-46 292l-14 101l-4 62q0 31 6 54.5t18.5 37.5t31 21.5t38.5 7.5q42 0 70 -29q11 -13 19.5 -33.5t8.5 -44.5
q0 -23 -1 -32q-5 -21 -6 -32l-19 -114l-54 -291h-48z" />
    <glyph glyph-name="numbersign" unicode="#" 
d="M128 0l82 432h-162v80h177l65 336h-242v80h257l95 496h81l-95 -496h319l95 496h81l-95 -496h158v-80h-173l-65 -336h238v-80h-253l-82 -432h-81l82 432h-319l-82 -432h-81zM306 512h319l65 336h-319z" />
    <glyph glyph-name="dollar" unicode="$" 
d="M96 352h32q0 -31 7.5 -62.5t19.5 -62.5q23 -53 61 -90q77 -74 232 -89v590q-226 139 -300 245q-26 37 -39 85t-13 99q0 32 5 59t18 56q23 56 67.5 99.5t109.5 71.5t152 39v96h80v-96q24 0 44.5 -2.5t45.5 -5.5t57 -11q36 -7 205 -65v-300h-32q-9 77 -33.5 137t-60.5 95.5
t-95 59.5q-52 20 -131 29v-509q255 -177 327 -261q37 -43 55 -96t18 -113q0 -68 -27 -130q-13 -30 -33 -58.5t-47 -55.5q-49 -51 -126 -83q-69 -29 -167 -38v-128h-80v128q-43 0 -91 8l-83 12q-42 8 -86 22q-15 5 -43 15.5t-49 19.5v290zM448 862v466q-50 -6 -86 -23
q-36 -15 -59 -41q-47 -52 -47 -130q0 -37 10 -70q5 -16 13 -32.5t18.5 -32.5t25.5 -33.5t34 -33.5q37 -32 91 -70zM528 48q35 6 66 15t51 22q57 36 90 93t33 122q0 19 -2 32.5t-9 32.5q-5 19 -11 31t-17 29t-28 34t-44 39q-46 39 -129 97v-547z" />
    <glyph glyph-name="percent" unicode="%" horiz-adv-x="1706" 
d="M1387 1392l-992 -1423h-94l993 1423h93zM356 1392q66 0 119 -27.5t90 -84.5q75 -113 75 -259q0 -86 -21 -154t-63 -116q-84 -95 -202 -95q-42 0 -76 11q-39 11 -69 32q-33 21 -59 53.5t-47 76.5q-16 37 -29 91q-4 21 -7 48.5t-3 52.5q0 54 10 103.5t29.5 92t46 75
t62.5 56.5q36 22 72.5 33t71.5 11zM352 1328q-24 0 -46 -14.5t-43 -43.5q-39 -59 -39 -245q0 -34 1 -64t3.5 -55t6.5 -46.5t10 -39.5q16 -54 53 -83q22 -17 51 -17q49 0 81 50q23 35 36.5 101t13.5 148q0 93 -12.5 157.5t-36.5 101.5q-30 50 -79 50zM1342 704
q-37 0 -69.5 -10t-69.5 -34q-32 -20 -62 -55q-26 -31 -47 -77q-16 -38 -29 -92q-9 -48 -9 -101q0 -56 9.5 -103.5t30.5 -89.5q39 -84 108 -129q16 -10 32 -17.5t37 -14.5q36 -12 72 -12q57 0 108 23.5t92.5 68.5t64.5 116q10 34 16 74t6 84q0 53 -9.5 100t-30.5 91
q-18 42 -45.5 75.5t-63.5 57.5q-36 22 -71 33.5t-70 11.5zM1343 640q24 0 43.5 -12.5t37.5 -37.5q24 -36 36 -101.5t12 -156.5q0 -86 -12 -148t-36 -98q-36 -54 -81 -54q-48 0 -82 50q-45 69 -45 245q0 190 44 260q35 53 83 53z" />
    <glyph glyph-name="ampersand" unicode="&#x26;" horiz-adv-x="1593" 
d="M1045 896h400v-32q-20 0 -35 -3.5t-37 -11.5q-30 -9 -49.5 -25.5t-54.5 -67t-85 -135t-106 -162.5q-30 -44 -56 -77.5t-60 -72.5q45 -46 91 -86q41 -35 80 -56q34 -16 77 -29q18 -4 38.5 -7t38.5 -3q36 0 69 9t58 27.5t43.5 46.5t30.5 65l37 -27q-19 -70 -50 -123.5
t-74.5 -88t-93.5 -51.5t-106 -17q-41 0 -85 12t-87.5 33t-93 61t-99.5 95q-118 -112 -216 -158q-22 -10 -46 -17.5t-54 -14.5q-53 -11 -105 -11q-160 0 -252 89q-44 44 -69 98.5t-25 117.5q0 122 87 247q43 62 123 124.5t206 132.5l-40 92l-24 74l-12 63l-4 62
q0 83 32 146.5t95 107.5q99 69 225 69q59 0 108 -18t87 -52t57.5 -79t19.5 -96q0 -106 -74 -186q-37 -40 -103 -84q-61 -41 -159 -91q55 -112 112 -214.5t114 -192.5q104 105 159 197.5t55 167.5q0 26 -8 45q-6 22 -20 41q-11 12 -26 21.5t-34 12.5v32zM659 870
q63 30 106.5 62.5t74 69t45.5 78.5q8 22 12 41.5t4 44.5q0 32 -11 62.5t-32.5 52t-51.5 34.5t-63 13q-87 0 -132.5 -59t-45.5 -116q0 -11 1 -24.5t4 -30t5 -25t9 -27.5l28 -74q13 -32 21 -49t26 -53zM789 229l-103 159l-65 110l-49 95l-53 116q-29 -18 -53 -35.5t-46 -38.5
q-39 -36 -69 -80t-44 -90.5t-14 -94.5q0 -53 15 -102t46.5 -89t76 -61.5t98.5 -21.5q26 0 55.5 6t56 18t63.5 39.5t85 69.5z" />
    <glyph glyph-name="quotesingle" unicode="'" horiz-adv-x="369" 
d="M144 816l-45 292l-14 101l-5 62q0 62 24 92q13 14 30.5 21.5t37.5 7.5q23 0 39 -8q17 -5 32 -21q29 -31 29 -77q0 -23 -1 -32q-5 -20 -6 -31l-19 -116l-54 -291h-48z" />
    <glyph glyph-name="parenleft" unicode="(" horiz-adv-x="682" 
d="M640 -399v-32q-79 39 -141 82q-32 22 -59.5 44.5t-55.5 50.5q-34 34 -67.5 74.5t-62.5 83.5q-54 83 -95 182q-19 48 -33.5 96t-25 101.5t-15.5 104.5t-5 107q0 152 39 295q20 71 48.5 137t67.5 131q77 128 179 219.5t226 146.5v-32q-63 -35 -115 -82t-93 -106
q-37 -55 -71 -134q-14 -35 -26.5 -75.5t-22 -86t-16.5 -88.5t-12.5 -93.5t-8.5 -104t-3 -99.5q0 -85 1.5 -116.5t6.5 -88.5q0 -39 3.5 -69t21.5 -117q5 -31 12.5 -64t16.5 -61q16 -52 35.5 -97t44 -82.5t57 -78t76.5 -78t93 -70.5z" />
    <glyph glyph-name="parenright" unicode=")" horiz-adv-x="682" 
d="M48 1392v32q79 -39 141 -82q32 -22 59.5 -44.5t55.5 -50.5q69 -69 127 -156.5t97 -185t60 -200.5q10 -52 15 -101.5t5 -106.5q0 -153 -39 -296q-20 -71 -48.5 -137t-67.5 -131q-76 -126 -177.5 -217t-227.5 -147v32q64 35 114.5 81.5t90.5 104.5t71 134.5t52 166.5
q8 41 15 84t13 94.5t9 102t3 100.5q0 105 -9 205.5t-25 185.5q-5 31 -12.5 64t-16.5 61q-7 28 -15.5 51.5t-19.5 45.5q-20 43 -46 82q-25 43 -56 79q-32 40 -73.5 76.5t-94.5 72.5z" />
    <glyph glyph-name="asterisk" unicode="*" 
d="M480 1044q0 20 -1.5 29t-7.5 41.5t-18 66.5q-16 45 -25 83q-4 18 -6 29.5t-2 22.5q0 51 23 80q11 11 26 20q8 4 15 6t17 2q15 0 26.5 -6t24.5 -22q9 -11 16 -30.5t7 -45.5q0 -16 -1 -25t-7 -29q-6 -30 -21 -72l-22 -77q-5 -21 -8.5 -38t-3.5 -33q15 9 26 17t26 21
q24 21 47 47q35 41 59 64.5t38.5 32.5t33.5 15q7 2 13.5 3.5t18.5 1.5q14 0 27 -6t24 -17q9 -7 16 -22.5t7 -30.5q0 -13 -1.5 -19t-6.5 -16q-6 -16 -21 -29.5t-57 -30.5q-13 -5 -43.5 -13.5t-65 -16t-65.5 -18.5q-21 -6 -30 -9t-26 -11q25 -14 56 -24l69 -17q30 -5 52 -10.5
t45 -14.5q40 -14 57 -31q18 -15 27.5 -34.5t9.5 -36.5q0 -13 -6.5 -27.5t-16 -24t-23.5 -16.5q-8 -3 -27 -5q-16 0 -30 4.5t-34 15.5q-9 6 -18.5 14t-23.5 21l-55 60q-18 22 -46 47q-14 13 -26.5 23.5t-29.5 21.5q0 -19 1 -29t6.5 -36.5t6.5 -30t10 -28.5l29 -100
q5 -21 7.5 -35t2.5 -28q0 -18 -6 -37t-15.5 -30.5t-25.5 -21.5q-11 -5 -25 -7q-35 0 -64 29q-9 9 -13.5 24t-5.5 22t-1 22q0 12 1 25t4 28l16 64l18 57l11 36l6 32l5 44q-28 -19 -54 -42l-46 -45q-34 -40 -61.5 -67.5t-42.5 -36t-28 -12.5l-26 -4q-17 0 -30.5 5.5t-23 15
t-17 23.5t-7.5 29q0 14 4 23t6.5 15t10 16t23.5 23t34 21l42 13l77 18q31 6 59 16q11 3 24.5 8t32.5 14q-5 3 -24.5 10.5t-33.5 12.5t-22 7q-20 6 -44 12q-58 12 -95 24t-51 23q-19 14 -31 35t-12 44q0 14 5 26t16 23q21 23 51 23q14 0 31 -5t36 -17q18 -9 40 -31
q22 -19 49 -52q9 -11 19 -22q17 -20 34 -35q28 -25 55 -42z" />
    <glyph glyph-name="plus" unicode="+" horiz-adv-x="1155" 
d="M544 144v496h-496v80h496v496h80v-496h496v-80h-496v-496h-80z" />
    <glyph glyph-name="comma" unicode="," horiz-adv-x="512" 
d="M96 -335v42q99 33 153 102q25 32 40 70.5t15 77.5l-3 17l-6 14l-7 7l-7 2q-3 -1 -7 -1.5t-10 -3.5l-29 -15l-18 -6l-18 -2q-16 0 -23.5 1t-19.5 7q-19 6 -33 20q-10 10 -20 33q-7 23 -7 45q0 48 38 82q16 15 41 25t52 10q35 0 63.5 -13.5t56 -42.5t40.5 -64.5t13 -83.5
q0 -50 -18.5 -97t-54 -89t-94.5 -78q-55 -33 -137 -59z" />
    <glyph glyph-name="hyphen" unicode="-" horiz-adv-x="682" 
d="M80 723h512v-86h-512v86z" />
    <glyph glyph-name="period" unicode="." horiz-adv-x="512" 
d="M256 192q22 0 42.5 -8.5t36 -24.5t24.5 -36.5t9 -42.5t-8 -42t-24 -35.5t-38 -24.5q-18 -9 -42 -9t-44 8t-35 23q-33 33 -33 80t32.5 79.5t79.5 32.5z" />
    <glyph glyph-name="slash" unicode="/" horiz-adv-x="569" 
d="M579 1424l-496 -1455h-83l496 1455h83z" />
    <glyph glyph-name="zero" unicode="0" 
d="M80 678q0 56 4 110t13 106.5t20 95t30 87.5q33 83 78.5 145.5t101.5 104.5q88 65 180 65q75 0 142.5 -39.5t128.5 -119.5q74 -97 112 -232t38 -302q0 -234 -65.5 -399.5t-168.5 -240.5q-24 -17 -50 -31.5t-51 -24.5q-48 -18 -96 -18q-92 0 -170 56.5t-142 171.5
q-51 95 -78 213t-27 252zM272 654q0 -143 16 -255q9 -61 20.5 -108t29.5 -94q54 -149 162 -149q24 0 52 12t55 36t49 65t36 98q21 84 33 207q5 55 8 127t3 151q0 113 -12 212.5t-34 174.5q-34 114 -89 164q-39 33 -95 33q-32 0 -60.5 -15t-55.5 -46q-34 -40 -56.5 -104.5
t-36.5 -157.5q-6 -44 -12.5 -92.5t-6.5 -84.5q0 -43 -2 -81.5t-4 -92.5z" />
    <glyph glyph-name="one" unicode="1" 
d="M240 1232l320 160h32v-1152q0 -21 1 -53t1 -43q0 -16 2 -29.5t4 -21.5q5 -12 16 -24t26 -20q16 -6 47 -12l79 -5v-32h-512v32h12q19 0 36.5 1t30.5 4q32 3 45.5 11.5t23.5 18t16 22.5q12 24 12 151v752l-3 113q0 22 -1.5 34.5t-5 29t-10 27.5t-16 19t-19.5 12l-23 4
q-13 0 -20 -1t-21 -6t-28.5 -10.5t-30.5 -13.5z" />
    <glyph glyph-name="two" unicode="2" 
d="M928 270l-95 -270h-801v39q177 156 307 291q66 68 115.5 126t85.5 107q70 99 109 194t39 179q0 63 -21 116.5t-61 95.5t-89 63t-107 21q-51 0 -98 -14t-88 -43q-82 -56 -122 -167h-38q12 91 45 163t84.5 120t118.5 74.5t144 26.5q82 0 152 -27t127 -81q113 -108 113 -255
q0 -50 -12 -102t-36 -105q-18 -40 -42 -81.5t-54 -85.5q-57 -84 -142 -176l-199 -214q-79 -84 -104 -105h349q19 0 49.5 1t41.5 1q16 0 32 2t31.5 4.5t35.5 11.5q14 5 19.5 8t17.5 12q34 24 61 70h32z" />
    <glyph glyph-name="three" unicode="3" 
d="M96 1104q27 67 64.5 121t82 91.5t102 56.5t120.5 19q80 0 143.5 -26t108.5 -80q31 -37 49 -81t18 -88q0 -74 -51 -149t-157 -157q63 -24 110.5 -59t80.5 -81q65 -91 65 -214q0 -88 -27.5 -163.5t-82.5 -141.5q-70 -84 -173.5 -125.5t-238.5 -41.5q-134 0 -182 29.5
t-48 64.5q0 14 6 25.5t15.5 20t21.5 13t33 6.5l23 -2l25 -5l25 -11l48 -21q53 -25 79 -32l36 -7l39 -2q96 0 168.5 80.5t72.5 191.5q0 80 -33 157q-8 18 -12 26t-14 24q-13 24 -26 37q-17 19 -47 38q-8 5 -27.5 16t-35.5 19q-29 15 -67 25t-74 10h-29v32q78 9 161 54
q40 22 70 49.5t48.5 59.5t27.5 68q4 16 7 36t3 38q0 50 -17 90q-15 40 -49 71q-67 62 -164 62q-78 0 -144 -39t-121 -121z" />
    <glyph glyph-name="four" unicode="4" 
d="M928 512v-144h-176v-368h-160v368h-560v129l613 895h107v-880h176zM592 512v694l-465 -694h465z" />
    <glyph glyph-name="five" unicode="5" 
d="M864 1360l-76 -160h-395l-102 -207q282 -39 431 -194q62 -65 94 -144.5t32 -169.5q0 -54 -11 -101q-9 -50 -29.5 -91.5t-49.5 -84.5q-25 -37 -58 -70q-26 -26 -66 -56q-32 -22 -74 -44q-53 -26 -112.5 -39.5t-112.5 -13.5q-117 0 -170 38.5t-53 87.5q0 14 5.5 26t16 21.5
t26 15.5t32.5 6q28 0 45 -8q12 -4 27 -14l40 -25q31 -22 70 -38q15 -5 36 -10t37 -5q55 0 103 22.5t88.5 65t62.5 97.5t22 119q0 34 -4 59.5t-16 59.5q-18 59 -56.5 111.5t-91.5 93t-122 71.5q-52 21 -126 36q-44 8 -81.5 12.5t-82.5 4.5l251 528h470z" />
    <glyph glyph-name="six" unicode="6" 
d="M896 1392v-32q-69 -6 -118 -20q-52 -12 -93 -33q-18 -8 -39.5 -21t-42 -28.5t-40 -33t-40.5 -38.5q-38 -38 -73 -85q-31 -43 -59 -95q-13 -24 -24 -48.5t-24 -58.5t-21 -61l-18 -66q70 45 143 68.5t142 23.5q68 0 127 -27t110 -84t76.5 -129.5t25.5 -159.5
q0 -169 -102 -310q-124 -169 -325 -169q-135 0 -230.5 90t-143 206.5t-47.5 258.5q0 90 18.5 178.5t53 167t86 153t118.5 138.5t129 105t126 66q61 21 118 33q25 5 54.5 8t55.5 3h57zM288 699l-12 -123l-4 -95q0 -38 1.5 -54t8 -57t22.5 -96t41.5 -101t59.5 -78
q49 -47 118 -47q42 0 78.5 19.5t69 60.5t49 100.5t16.5 134.5q0 42 -4 82.5t-13 77.5q-15 73 -48 136q-65 125 -184 125q-20 0 -38 -5q-17 -3 -40 -12q-21 -6 -51 -25z" />
    <glyph glyph-name="seven" unicode="7" 
d="M208 1360h734v-45l-462 -1330h-135l423 1215h-368q-111 0 -159 -27q-41 -21 -74 -57t-59 -85l-28 11z" />
    <glyph glyph-name="eight" unicode="8" 
d="M397 683q-85 70 -132 119q-52 55 -75 94q-21 40 -33.5 82.5t-12.5 86.5q0 67 25 124t76.5 106t120 73t150.5 24q43 0 77.5 -5t70.5 -18q65 -21 114 -66t75.5 -97.5t26.5 -109.5q0 -20 -3 -38.5t-11 -39.5q-12 -39 -40 -79q-54 -79 -224 -188q173 -135 233 -212
q38 -50 57.5 -104t19.5 -109q0 -71 -27 -130t-82 -111q-111 -100 -287 -100q-193 0 -302 118q-86 97 -86 210q0 87 60 176q29 40 82 92q27 25 56.5 49t70.5 53zM555 790q57 54 94.5 95.5t54.5 74.5q32 64 32 143q0 106 -59 165q-29 30 -69 45t-91 15t-92 -15t-74 -45
q-29 -27 -47 -64q-16 -37 -16 -74q0 -24 5 -47t8.5 -32.5t11.5 -25t14.5 -26t17.5 -24t16 -19.5q13 -15 29 -30zM444 645q-32 -33 -54 -68.5t-39 -79.5q-7 -18 -12 -37t-10 -44t-7 -46t-2 -47q0 -62 15.5 -112t47.5 -87t75 -58q42 -18 91 -18q47 0 88 15t71.5 44t45 65
t14.5 79q0 34 -10 65q-9 33 -28 60q-35 52 -107 118q-38 35 -80 71q-46 39 -99 80z" />
    <glyph glyph-name="nine" unicode="9" 
d="M112 -15v31q64 0 123.5 15.5t114 46.5t106 81.5t104 126.5t87.5 151.5t57 164.5q-155 -90 -281 -90q-70 0 -130.5 27t-110.5 81t-76 128.5t-26 162.5t25.5 166t75.5 148q59 82 139.5 124.5t178.5 42.5q83 0 153.5 -34t130.5 -104q73 -85 109 -192t36 -229
q0 -113 -27.5 -218t-82.5 -202.5t-130.5 -178.5t-173.5 -145q-79 -52 -167.5 -78t-178.5 -26h-56zM720 676l11 116l5 92q0 38 -1.5 54t-7.5 57.5t-22.5 99.5t-38.5 99t-50.5 72t-63 46.5t-68.5 15.5q-84 0 -148 -80q-32 -39 -48 -100q-8 -32 -12 -64.5t-4 -74.5
q0 -105 21 -188.5t64 -142.5q29 -40 69 -65q39 -21 84 -21q10 0 22 1t25 4l56 16q30 11 55.5 25.5t51.5 37.5z" />
    <glyph glyph-name="colon" unicode=":" horiz-adv-x="569" 
d="M304 944q21 0 41.5 -8.5t36.5 -25.5q16 -14 25 -35t9 -43t-8 -42t-24.5 -36.5t-37.5 -25t-42 -8.5q-24 0 -43 8t-36 24q-33 33 -33 80q0 23 7.5 42t24.5 37q33 33 80 33zM303 192q45 0 80 -33q16 -17 24.5 -37.5t8.5 -42.5q0 -21 -8 -41t-24 -35.5t-37.5 -24.5t-43.5 -9
q-23 0 -43 8t-35.5 22.5t-24.5 36.5q-4 11 -6 20.5t-2 22.5q0 23 7.5 42.5t23 35t37 25.5t43.5 10z" />
    <glyph glyph-name="semicolon" unicode=";" horiz-adv-x="569" 
d="M272 944q25 0 42 -8q19 -7 37 -24q33 -33 33 -80q0 -20 -8 -41t-24.5 -37.5t-36.5 -25t-43 -8.5q-24 0 -43 7.5t-37 24.5q-15 17 -24 37q-4 11 -6 20.5t-2 22.5q0 47 32.5 79.5t79.5 32.5zM144 -335v43q50 17 86.5 42t66.5 61q25 32 40 71t15 78l-3 18q-1 7 -7 14l-7 7
l-7 1q-3 -1 -7 -1.5t-9 -3t-13.5 -6.5t-17.5 -10l-18 -7l-18 -3q-25 0 -42 8q-18 6 -32 20q-10 10 -20 33q-7 23 -7 45q0 48 38 82q16 15 41 25t52 10q35 0 63.5 -13.5t56 -42.5t40.5 -64.5t13 -83.5q0 -50 -18.5 -97t-54 -89t-94.5 -78q-55 -33 -137 -59z" />
    <glyph glyph-name="less" unicode="&#x3c;" horiz-adv-x="1155" 
d="M48 720l1088 480v-86l-948 -418l948 -418v-86l-1088 480v48z" />
    <glyph glyph-name="equal" unicode="=" horiz-adv-x="1155" 
d="M48 880h1056v-80h-1056v80zM48 544h1056v-80h-1056v80z" />
    <glyph glyph-name="greater" unicode="&#x3e;" horiz-adv-x="1155" 
d="M1104 672l-1088 -480v85l947 419l-947 418v86l1088 -480v-48z" />
    <glyph glyph-name="question" unicode="?" horiz-adv-x="909" 
d="M448 304h-32q0 62 6 115t19 94.5t41 96.5q12 23 34 61t43 71l52 101q10 21 17.5 39t13.5 36q3 12 8 30t8 39t3.5 34.5t0.5 21.5q0 130 -71.5 207.5t-175.5 77.5q-47 0 -83 -11q-35 -9 -60.5 -30t-41.5 -46q-3 -6 -8 -19t-5 -28q0 -19 7 -43q4 -11 9.5 -25t13.5 -28
t12 -22t11 -26q2 -5 4.5 -16t3.5 -19q0 -17 -6 -32.5t-17 -28.5t-26 -19.5t-31 -6.5q-22 0 -41.5 11t-36.5 32q-14 20 -25 51q-9 30 -9 70q0 57 24 110t71.5 97.5t115 68.5t149.5 24q206 0 304 -125q36 -45 54 -96t18 -106q0 -29 -1.5 -42t-7.5 -43t-23 -71
q-15 -40 -45.5 -84.5t-77.5 -99.5q-68 -79 -116 -140q-21 -27 -36.5 -50t-25.5 -43q-15 -33 -27 -81q-8 -35 -11 -55.5t-3 -51.5zM437 192q45 0 79 -33t34 -80q0 -21 -8 -41t-24 -35.5t-37.5 -24.5t-43.5 -9q-23 0 -43 8t-35.5 22.5t-24.5 36.5q-4 11 -6 20.5t-2 22.5
q0 45 32 80q15 15 36 24t43 9z" />
    <glyph glyph-name="at" unicode="@" horiz-adv-x="1886" 
d="M1428 944l-119 -403l-53 -186l-27 -105l-10 -59l-3 -45q0 -35 20 -58q9 -13 23 -18.5t29 -5.5q32 0 75.5 18t92 55t91 98t78.5 145q16 39 29.5 82t23.5 89q18 87 18 179q0 87 -21 168.5t-60.5 153.5t-98 130t-134.5 97.5t-160.5 60t-173.5 20.5q-117 0 -222 -30.5
t-206 -94.5q-198 -126 -313 -361q-55 -113 -85 -238.5t-30 -250.5q0 -118 25.5 -224.5t76.5 -202.5t121 -167t163 -123q89 -47 191.5 -73t206.5 -26q261 0 476 146q107 74 188 180t141 249h59q-22 -64 -54 -124.5t-74 -116.5q-81 -113 -199 -206.5t-254.5 -142.5t-288.5 -49
q-121 0 -232.5 29t-211 85.5t-180.5 139.5t-136.5 188t-85.5 224q-14 61 -21 119.5t-7 125.5q0 136 30.5 262t92.5 244.5t148.5 210t199 158t232.5 99.5q58 16 120.5 25t124.5 9q206 0 374 -87q81 -41 146 -108q61 -61 106 -146.5t67 -176.5q11 -44 17 -90t6 -94
q0 -185 -81 -370q-40 -90 -92 -157.5t-115.5 -110t-129.5 -63.5t-134 -21q-37 0 -65.5 9t-47 27t-30.5 45q-9 27 -9 61q0 31 3.5 63.5t5.5 45.5t9 43q-73 -91 -133.5 -151.5t-103 -86.5t-84.5 -41t-75 -15q-72 0 -127 65q-26 30 -40.5 75.5t-14.5 98.5q0 72 24 158
q13 44 29.5 86t41.5 90q47 89 110 165t144 136q57 42 111 64t98 22q35 0 61 -7.5t51 -24.5q21 -14 37 -38.5t25 -55.5l33 110h167zM1071 928q-37 0 -78 -21.5t-78 -61.5q-58 -61 -107.5 -142t-91.5 -185q-30 -76 -45 -136t-15 -106q0 -66 36.5 -107t79.5 -41q31 0 60 11
q14 6 30 14t33 20q64 45 136 139q33 44 61 93.5t46 97.5q29 82 45.5 154t16.5 119q0 33 -9.5 62t-28.5 49t-42 30.5t-49 10.5z" />
    <glyph glyph-name="A" unicode="A" horiz-adv-x="1479" 
d="M933 448h-536l-93 -208l-15 -38l-11 -33l-6 -28l-2 -22q0 -31 29 -56q14 -11 47 -20l36 -7l45 -4v-32h-430v32q9 1 17 2.5t19 5.5l32 10q28 11 40 23t25 32l28 45l29 58l31 72l500 1112h40l458 -1133q15 -38 28 -63l26 -51q12 -23 25 -40l24 -27l25 -18l30 -14l36 -10
l39 -4v-32h-540v32l36 3l30 6q11 2 14.5 3t13 5.5t15.5 10.5q14 12 21 27q4 8 6 15t2 17l-3 26l-8 33q-3 17 -12 40l-17 47zM907 512l-227 548l-254 -548h481z" />
    <glyph glyph-name="B" unicode="B" horiz-adv-x="1366" 
d="M942 699q71 -15 123 -39.5t88 -57.5q49 -47 73 -105t24 -123q0 -52 -15 -99t-48 -94.5t-76.5 -81t-100.5 -56.5q-51 -20 -140 -32q-39 -5 -90 -8t-108 -3h-638v32h50q22 0 38 3t33 11q31 14 48 41q9 16 17 56q6 38 6 97v880q0 64 -7 105t-22 58q-38 45 -113 45h-50v32
h575q79 0 143.5 -6t114.5 -18q37 -9 68.5 -21t60.5 -29q59 -32 97 -77t57 -98q10 -26 15 -53t5 -59q0 -49 -14 -94.5t-43 -85.5t-72.5 -70.5t-98.5 -49.5zM418 750l39 -6l45 -4l50 -3l55 -1q77 0 128 8q28 4 50 9t41 14q36 15 60.5 39.5t36.5 57.5q3 10 8 29.5t10 47t5 66.5
q0 33 -5 58t-18 53q-22 51 -68 93t-114 63.5t-154 21.5q-46 0 -90 -5.5t-79 -16.5v-524zM418 91q58 -14 116.5 -20.5t115.5 -6.5q89 0 160 21t119 62.5t72.5 93.5t24.5 113q0 38 -12.5 79t-34 76t-59 66.5t-85.5 52.5t-110 32.5t-130 11.5h-57h-24.5t-24.5 -2l-40 -3
q-16 0 -31 -5v-571z" />
    <glyph glyph-name="C" unicode="C" horiz-adv-x="1366" 
d="M1216 1392l32 -464h-32q-30 106 -73 182.5t-98.5 122t-124.5 70.5t-148 25q-131 0 -239 -69q-52 -34 -95 -89t-72.5 -129.5t-45.5 -169t-16 -207.5q0 -49 3 -89t11 -82t18.5 -78.5t25.5 -71.5q28 -64 71.5 -116.5t102.5 -90.5q114 -72 266 -72q129 0 228 54
q51 28 105.5 82.5t113.5 135.5l31 -16q-50 -93 -108.5 -159t-126 -108t-147 -63t-170.5 -21q-167 0 -295 63t-218 187q-135 186 -135 440q0 102 22 194.5t66.5 179t106 152t139.5 112t164.5 71t178.5 24.5q73 0 144.5 -15.5t140.5 -46.5l35 -14l24 -4q13 0 25 3.5t22 13
t21 26.5q9 17 15 37h32z" />
    <glyph glyph-name="D" unicode="D" horiz-adv-x="1479" 
d="M32 0v32h50q44 0 73 14t47 42q8 14 16 54q6 39 6 98v880q0 68 -8 105q-6 41 -20 58q-18 21 -47.5 33t-66.5 12h-50v32h549q149 0 264.5 -17t194 -51.5t142.5 -92.5t112.5 -138.5t73 -176.5t24.5 -197q0 -144 -43 -262t-129 -213q-192 -212 -585 -212h-603zM416 92
q65 -14 116 -21q28 -3 51.5 -5t45.5 -2q115 0 211.5 41.5t173 124t115.5 195.5t39 255q0 72 -9 134.5t-29 120.5q-38 113 -114 195t-175.5 124t-219.5 42q-36 0 -51.5 -1.5t-45.5 -6.5q-54 -6 -108 -22v-1174z" />
    <glyph glyph-name="E" unicode="E" horiz-adv-x="1251" 
d="M416 1296v-560h288q59 0 96 8.5t55 25.5q27 24 42 63.5t15 94.5h32v-448h-32q-4 27 -6.5 42.5t-7.5 33.5q-6 31 -14 44q-4 9 -9 15.5t-14 14.5q-13 12 -34 23q-10 5 -18.5 7.5t-37 7t-67.5 4.5h-288v-454v-38t2 -35q0 -12 2 -22t5 -18t9 -15.5t18 -14.5q4 -2 8.5 -3.5
t21.5 -4.5t46 -3h230h14h12q45 0 80.5 4.5t55.5 11t29.5 11t25.5 15.5q24 16 50 43q30 33 62 84t65 119h48l-119 -352h-1049v32h47q23 0 46.5 6t42 15.5t28.5 21t16 30.5q12 33 12 135v880q0 134 -26 166q-36 42 -119 42h-47v32h1040l16 -304h-48q-8 42 -11 56.5t-12 40.5
q-4 13 -7 27q-5 16 -16.5 35.5t-29.5 35.5t-44 28q-18 8 -55.5 12.5t-83.5 4.5h-365z" />
    <glyph glyph-name="F" unicode="F" horiz-adv-x="1139" 
d="M416 1296v-560h240q43 0 71.5 10t49 28.5t35.5 58.5q12 35 20 95h32v-448h-32q0 38 -6 68q-4 30 -15 48q-9 18 -22.5 32.5t-30.5 23.5t-44 14.5t-58 5.5h-240v-432l3 -89q3 -34 8.5 -48.5t15.5 -26.5l15 -12q5 -3 12 -8q22 -12 44.5 -18t45.5 -6h48v-32h-576v32h47
q83 0 121 50q24 33 24 158v880v13q0 46 -4 74q0 15 -2.5 28t-7 25t-14 22t-26.5 21q-22 12 -39.5 16.5t-28 6.5t-23.5 2h-47v32h1008l16 -304h-48q-6 27 -11 46t-14 41q-12 37 -28 62q-30 48 -81 69q-24 10 -64.5 16t-92.5 6h-301z" />
    <glyph glyph-name="G" unicode="G" horiz-adv-x="1479" 
d="M1248 1392l32 -432h-32q-26 83 -59.5 143.5t-76.5 103.5q-59 60 -137 90.5t-170 30.5q-129 0 -225 -52t-165 -156q-55 -87 -83 -191.5t-28 -225.5q0 -96 18.5 -189t55.5 -170q19 -43 39 -76t47 -65q51 -60 110.5 -96.5t122.5 -55.5t127 -19q40 0 70 3.5t41.5 5.5t30 7.5
t37.5 11.5t35 13l66 33v390v13q0 21 -1 40t-4 35q0 19 -2.5 29t-9.5 23q-16 32 -52 50q-15 8 -48.5 13t-74.5 5v32h544v-32h-27q-42 0 -69 -14t-43 -41q-21 -39 -21 -153v-410q-24 -13 -57 -28q-23 -11 -57 -25q-49 -20 -108 -34.5t-121 -21.5q-31 -4 -61.5 -6t-67.5 -2
q-194 0 -342.5 63t-250.5 189q-36 45 -64.5 96.5t-48.5 107.5q-38 111 -38 234q0 88 21 174.5t64 169.5q100 195 277 301q69 40 159 64t189 24l69 -3l64 -9q30 -4 72 -18l98 -31l46 -14l28 -5q9 0 17.5 3.5t14.5 12.5q12 14 17 64h32z" />
    <glyph glyph-name="H" unicode="H" horiz-adv-x="1479" 
d="M416 720h640v400v13q0 46 -4 74q0 15 -2.5 28t-7 25t-15.5 23q-8 10 -28 21t-37 15.5t-27 6.5t-24 2h-47v32h576v-32h-48q-22 0 -44 -5.5t-46 -18.5q-15 -7 -26 -20t-15.5 -26t-6.5 -29t-3 -25l-3 -84v-880l3 -89q3 -34 9 -51q3 -12 14 -22.5t27 -21.5q21 -12 44.5 -18
t46.5 -6h48v-32h-576v32h47q38 0 69 12t51 38q12 15 18 56q3 20 5 45.5t2 56.5v416h-640v-416l3 -89q3 -34 8.5 -48.5t15.5 -26.5l15 -12q5 -3 12 -8q42 -24 89 -24h49v-32h-576v32h47q83 0 121 50q24 33 24 158v880v13q0 46 -4 74q0 15 -2.5 28t-7 25t-14 22t-26.5 21
q-22 12 -39.5 16.5t-28 6.5t-23.5 2h-47v32h576v-32h-49q-45 0 -89 -24q-13 -7 -24.5 -19.5t-17.5 -29.5q-12 -33 -12 -135v-400z" />
    <glyph glyph-name="I" unicode="I" horiz-adv-x="682" 
d="M624 32v-32h-576v32h47q83 0 121 50q24 33 24 158v880v13q0 46 -4 74q0 15 -2.5 28t-7 25t-14 22t-26.5 21q-22 12 -39.5 16.5t-28 6.5t-23.5 2h-47v32h576v-32h-49q-80 0 -119 -51q-24 -32 -24 -157v-880l3 -89q3 -34 8.5 -48.5t15.5 -26.5l15 -12q5 -3 12 -8
q42 -24 89 -24h49z" />
    <glyph glyph-name="J" unicode="J" horiz-adv-x="797" 
d="M192 1328v32h576v-32h-49q-39 0 -70 -12.5t-50 -38.5q-9 -13 -16 -54t-7 -103v-666q0 -83 -8 -142.5t-24 -107t-44 -88.5t-68 -77q-81 -70 -193 -70q-44 0 -80.5 12t-62.5 33t-39 49.5t-13 55.5q0 23 6 42.5t18.5 32.5t32 21.5t40.5 8.5q30 0 54 -21q12 -11 28 -41
q13 -24 34 -75q9 -25 24 -41q16 -14 32 -14q13 0 24 7t24 25q9 15 17 47q6 30 6 72v937v13q0 46 -4 74q0 15 -2.5 28t-7 25t-15.5 23q-8 10 -28 21t-37 15.5t-27 6.5t-23 2h-48z" />
    <glyph glyph-name="K" unicode="K" horiz-adv-x="1497" 
d="M606 752l504 -489q54 -59 108 -106q49 -40 92.5 -67.5t84.5 -42.5t81 -15v-32h-628v32q27 0 49 6t34 21q26 28 26 50q0 21 -9 41q-4 9 -21 27q-13 16 -42 43l-465 452v-432l3 -89q3 -36 10 -51q3 -12 15 -24l15 -12q5 -3 12 -8q22 -12 44.5 -18t46.5 -6h46v-32h-576v32
h47q39 0 70 12t51 38q24 33 24 158v880v13q0 46 -4 74q0 15 -2.5 27.5t-6.5 24.5t-14 22.5t-27 21.5q-22 12 -39.5 16.5t-28 6.5t-23.5 2h-47v32h576v-32h-46q-22 0 -45 -6t-49.5 -19.5t-39 -47t-12.5 -135.5v-424l43 41l93 85q142 130 236 226q91 91 120 136l20 42
q7 23 7 37q0 11 -6 23q-4 11 -15 22q-22 20 -71 20h-31v32h496v-32q-23 0 -42 -4l-38 -9l-41 -18l-48 -29q-22 -14 -58 -45q-23 -20 -34.5 -30.5t-34.5 -34.5l-62 -61l-141 -142z" />
    <glyph glyph-name="L" unicode="L" horiz-adv-x="1251" 
d="M1136 368l48 -7l-112 -361h-1040v32h50q44 0 72 14q30 13 49 43q9 15 15 53.5t6 97.5v880q0 68 -8 105q-6 41 -20 58q-18 21 -47.5 33t-66.5 12h-50v32h608v-32q-26 0 -48.5 -1t-42.5 -4q-18 0 -31 -3.5t-31 -12.5t-32 -22t-22.5 -29t-12.5 -54l-4 -98v-880l3 -73
q3 -28 12 -45l15 -20l21 -13l49 -7l101 -2h96q74 0 126.5 6t83 18t59.5 33q25 20 53 52q23 28 49 79t52 116z" />
    <glyph glyph-name="M" unicode="M" horiz-adv-x="1821" 
d="M848 0l-528 1144v-904q0 -131 27 -164q19 -22 47 -33q14 -5 31.5 -8t38.5 -3h48v-32h-480v32h48q84 0 122 54q8 14 16 55q6 39 6 99v880v11q0 19 -1 36t-4 33q-4 33 -15 56q-6 16 -18.5 27.5t-32 22t-50 16.5t-71.5 6v32h398l481 -1042l495 1042h386v-32h-47
q-23 0 -41 -3t-34 -11q-31 -14 -48 -41q-9 -15 -17 -56q-5 -42 -5 -97v-880q0 -68 6.5 -107.5t21.5 -56.5q19 -22 47 -33q14 -5 31.5 -8t38.5 -3h47v-32h-576v32h48q86 0 122 54q8 14 16 55q6 39 6 99v904l-544 -1144h-16z" />
    <glyph glyph-name="N" unicode="N" horiz-adv-x="1479" 
d="M-26 1360h353l825 -1031v791q0 69 -8 106q-6 43 -20 58q-18 21 -48 32.5t-69 11.5h-47v32h480v-32h-48q-43 0 -74 -14t-48 -41q-9 -15 -17 -56q-5 -42 -5 -97v-1141h-40l-872 1070v-809q0 -131 27 -164q18 -21 48.5 -32.5t68.5 -11.5h48v-32h-480v32h47q87 0 123 54
q8 14 16 55q6 39 6 99v928l-52 57q-19 22 -37 35l-38 22l-52 20l-37 7l-50 3v48z" />
    <glyph glyph-name="O" unicode="O" horiz-adv-x="1479" 
d="M748 1392q260 0 452 -201q97 -100 144.5 -226.5t47.5 -276.5q0 -155 -48.5 -284t-144.5 -231t-213 -153t-253 -51q-139 0 -255.5 49.5t-209.5 148.5t-140.5 229t-47.5 289q0 162 54 294t163 235q92 86 206 132t245 46zM730 1328q-92 0 -163.5 -34t-126.5 -104
q-68 -86 -102 -211q-16 -61 -25 -134.5t-9 -154.5q0 -171 34.5 -299t106.5 -221q53 -68 125 -104q35 -16 76 -25t85 -9q47 0 89.5 9t82.5 29q79 38 141 113t93 195q15 60 23 130.5t8 152.5q0 181 -34 312t-102 216q-53 68 -130 103.5t-172 35.5z" />
    <glyph glyph-name="P" unicode="P" horiz-adv-x="1139" 
d="M420 635v-395q0 -65 6 -105.5t21 -57.5q36 -45 113 -45h52v-32h-576v32h50q44 0 73.5 13.5t49 44.5t19.5 150v880q0 67 -7 106q-6 42 -20 57q-20 21 -49 33t-66 12h-50v32h490q92 0 162 -9.5t121 -28t95 -50.5t80 -77q72 -87 72 -212q0 -82 -27 -150t-81 -121
q-109 -104 -304 -104q-47 0 -104 6l-59 8zM420 692l49 -9l43 -6l37 -4l32 -1q102 0 176 83q35 39 55 95.5t20 120.5q0 45 -9 86.5t-26 81t-42 68t-59 50.5q-65 39 -148 39q-12 0 -26.5 -1t-37 -4.5t-64.5 -14.5v-584z" />
    <glyph glyph-name="Q" unicode="Q" horiz-adv-x="1479" 
d="M896 0q52 -89 105 -151.5t111 -104.5q55 -39 124 -65q40 -15 72.5 -22.5t67.5 -7.5v-32q-62 0 -136.5 14.5t-150.5 39.5t-150 60.5t-143 79.5t-129 93t-107 96q-144 58 -226 122q-59 48 -107 107q-24 30 -42.5 59.5t-37.5 69.5q-31 65 -49 152.5t-18 180.5
q0 149 48 275.5t146 225.5q195 200 471 200q261 0 455 -200q97 -100 144.5 -226.5t47.5 -278.5q0 -246 -138 -434q-68 -92 -158.5 -156t-199.5 -97zM733 1328q-181 0 -291 -131q-68 -79 -104 -208q-16 -61 -25 -136t-9 -158q0 -86 8 -156t27 -137q34 -127 105 -217
q110 -137 289 -137q186 0 301 137q134 163 134 481q0 122 -18.5 225.5t-55.5 185.5q-27 62 -65.5 111.5t-84.5 79t-100 44.5q-28 8 -54 12t-57 4z" />
    <glyph glyph-name="R" unicode="R" horiz-adv-x="1366" 
d="M1398 0h-372l-470 640l-45 -1l-37 -1h-13h-15l-15 1l-15 1v-400q0 -65 6 -105.5t22.5 -60t45 -31t65.5 -11.5h53v-32h-576v32h50q44 0 72 14q30 13 49 43q9 15 15 53.5t6 97.5v880q0 69 -8 106q-6 42 -20 57q-18 21 -47.5 33t-66.5 12h-50v32h493q115 0 186 -8
q42 -4 72.5 -9t58.5 -14q52 -15 94.5 -43.5t79 -69t54.5 -89.5t18 -106q0 -34 -4 -59t-16 -55q-20 -53 -59 -97.5t-99 -75.5t-146 -51l289 -402q49 -71 88.5 -118t76.5 -72q67 -45 180 -59v-32zM416 704h18h15l12 -1h11q95 0 169.5 21t123.5 64q99 84 99 217q0 65 -19.5 117
t-59 92t-93.5 61t-119 21q-21 0 -31 -1t-42 -7.5t-84 -23.5v-560z" />
    <glyph glyph-name="S" unicode="S" horiz-adv-x="1139" 
d="M928 1392v-464h-32q-7 68 -23.5 124t-37 95.5t-51.5 73.5t-73 58q-39 24 -83.5 36.5t-83.5 12.5q-24 0 -46 -4t-42 -13q-40 -15 -72 -48t-48 -71t-16 -78q0 -31 9 -60t30 -56q27 -40 93.5 -90.5t173.5 -115.5q81 -48 148 -93q59 -38 98 -67q35 -26 64 -60
q25 -29 46 -67.5t31 -78.5q5 -17 8 -38t3 -41q0 -76 -30 -143.5t-89 -122.5t-137 -84q-40 -14 -80.5 -21t-89.5 -7q-57 0 -110 9q-15 1 -48 12l-80 25q-98 33 -124 33q-13 0 -21 -3t-18 -13l-13 -24l-8 -39h-32v463h32q6 -35 13 -70t16 -62q18 -54 39 -94q21 -37 54 -69
q31 -28 75 -54t92.5 -38.5t102.5 -12.5q62 0 110.5 17t82.5 50q71 68 71 161q0 15 -1 24t-6.5 31t-17.5 48t-32.5 51t-45.5 47q-17 14 -33 25q-22 14 -34 22q-54 37 -128 81l-141 87l-101 69q-37 27 -71 61q-30 33 -52 68q-19 34 -31 74q-4 18 -7 39.5t-3 42.5q0 71 27 136
t84 119q112 107 283 107q28 0 53.5 -3t56.5 -11q61 -14 117 -41l47 -19q20 -6 31 -6l23 3q11 3 19 11t15 25l12 41h32z" />
    <glyph glyph-name="T" unicode="T" horiz-adv-x="1251" 
d="M1184 1360l16 -297h-38q-5 45 -13 72q-7 30 -18 48q-14 26 -35 48.5t-47 36.5q-12 6 -24 10t-33 9t-38.5 7t-41.5 2h-192v-1056q0 -131 27 -164q18 -21 48.5 -32.5t68.5 -11.5h48v-32h-576v32h48q84 0 122 54q10 14 16 54t6 100v1056h-161h-37t-44 -4q-34 -3 -56.5 -11
t-44 -26.5t-39.5 -45.5t-28.5 -61t-15.5 -85h-38l16 297h1104z" />
    <glyph glyph-name="U" unicode="U" horiz-adv-x="1479" 
d="M960 1328v32h480v-32h-51q-77 0 -121 -66q-10 -15 -15 -49.5t-5 -92.5v-556q0 -109 -10 -185t-31 -135q-18 -58 -57.5 -105t-98.5 -90q-118 -80 -318 -80q-111 0 -192.5 18.5t-138 56.5t-99.5 91q-38 52 -64 118q-14 40 -22.5 129t-8.5 206v532q0 62 -9 105t-24.5 61.5
t-45.5 30.5q-12 5 -28.5 8t-35.5 3h-49v32h576v-32h-51q-22 0 -38 -3t-33 -11q-29 -14 -46 -41q-12 -18 -18 -56.5t-6 -96.5v-606l3 -87q0 -22 2.5 -42t8.5 -57q6 -55 20 -93q12 -40 31 -70t44.5 -53t60.5 -43q33 -17 78 -28q44 -9 95 -9q129 0 231 59q50 28 86 66.5
t53.5 84t28.5 126.5q4 35 7 86.5t3 102.5v563q0 68 -8 105q-6 41 -20 58q-18 21 -47.5 33t-66.5 12h-50z" />
    <glyph glyph-name="V" unicode="V" horiz-adv-x="1479" 
d="M1448 1360v-32q-38 -6 -64 -20q-28 -12 -45 -28q-24 -24 -50 -65q-21 -33 -44 -90l-460 -1156h-53l-505 1166l-34 77l-21 40l-28 29l-33 22q-18 9 -43 15l-56 10v32h554v-32q-49 -5 -79 -13t-42.5 -18.5t-21.5 -26.5q-7 -18 -7 -33q0 -23 12 -63.5t34 -92.5l344 -795
l312 785q6 15 16.5 44t18.5 54q12 41 12 63q0 29 -28 55t-99 38l-7 1l-10 2v32h427z" />
    <glyph glyph-name="W" unicode="W" horiz-adv-x="1933" 
d="M1921 1360v-32q-29 0 -48 -5q-21 -4 -39 -15q-12 -7 -32 -27q-6 -7 -11 -14q-10 -13 -19 -30l-26 -60l-37 -108l-381 -1100h-48l-298 847l-269 -847h-70l-393 1130q-10 28 -17.5 51t-19.5 51q-14 40 -20 50q-8 17 -23 33t-30 24.5t-36 13t-30.5 5.5t-28.5 1v32h505v-32
h-24q-24 0 -45 -6t-37 -18q-10 -10 -20 -28q-7 -18 -7 -32q0 -20 11 -59.5t33 -104.5l264 -763l205 647l-39 112l-32 94l-23 48l-24 43l-14 18q-8 10 -17 15l-25 16l-25 11l-25 5l-35 2v32h530v-32h-36q-28 0 -48 -6.5t-34 -18.5q-26 -24 -26 -67q0 -22 2 -32.5t8.5 -36.5
t10.5 -40q10 -34 24 -75l258 -737l262 755l33 105q11 44 11 67t-14 43t-37 29q-16 5 -44 10l-55 4v32h405z" />
    <glyph glyph-name="X" unicode="X" horiz-adv-x="1479" 
d="M860 737l296 -420q60 -91 105.5 -149.5t74 -82.5t67 -38.5t81.5 -14.5v-32h-591v32l50 3q22 3 36 10l19 12q9 8 15 18q14 20 14 41q0 16 -2 27t-5.5 20.5t-7.5 17t-11 18.5l-38 63l-225 319l-287 -367l-37 -45l-18 -27l-6 -19l-2 -19q0 -29 27 -50q11 -8 39 -16
q14 -2 30 -4t34 -2v-32h-480v32q10 0 21.5 1.5t25 5t22 6.5t19.5 8q32 13 60 31q31 18 58 40.5t60 56.5q15 16 31 35.5t37 46.5l311 398l-279 400q-54 82 -101 134.5t-85 77.5q-36 26 -81 39q-20 6 -45.5 11t-47.5 5v32h627v-32q-22 0 -34 -1.5t-36 -7.5t-39 -18
q-30 -24 -30 -53q0 -38 48 -113l225 -319l235 301l33 50l17 31l8 23l3 23q0 21 -13 42t-37 31l-35 7l-60 4v32h503v-32q-11 0 -24 -1.5t-30.5 -5.5t-38.5 -12q-29 -13 -52 -29q-11 -7 -21.5 -15t-27.5 -22.5t-53 -55.5q-10 -11 -33 -40.5t-39 -51.5z" />
    <glyph glyph-name="Y" unicode="Y" horiz-adv-x="1479" 
d="M976 1360h482v-32h-26q-11 0 -32 -6l-44 -18q-24 -12 -48 -30.5t-43.5 -40.5t-45.5 -59l-55 -88l-332 -533v-313q0 -68 6.5 -107.5t23 -58.5t47.5 -30.5t71 -11.5h44v-32h-576v32h48q84 0 122 54q8 14 16 55q6 39 6 99v312l-374 575l-56 83q-21 33 -32.5 45t-37.5 28
l-61 34l-25 8l-33 3v32h581v-32h-30q-22 0 -44.5 -6t-41.5 -17t-29.5 -28.5t-10.5 -39.5q0 -17 15.5 -52t45.5 -81l285 -438l261 419q60 96 60 143v16q-3 8 -5 16.5t-10 18.5q-5 9 -15.5 18.5t-24.5 16.5t-35 10l-47 4v32z" />
    <glyph glyph-name="Z" unicode="Z" horiz-adv-x="1251" 
d="M1177 1360l-897 -1296h567q130 0 199 57q32 28 63 87t58 148l33 -6l-64 -350h-1110v29l877 1267h-434q-54 0 -93 -6t-63 -17.5t-43 -28.5q-9 -8 -15.5 -16t-16.5 -23q-12 -21 -23.5 -61.5t-22.5 -105.5h-38l32 322h991z" />
    <glyph glyph-name="bracketleft" unicode="[" horiz-adv-x="682" 
d="M592 -399h-432v1791h432v-64h-272v-1663h272v-64z" />
    <glyph glyph-name="backslash" unicode="\" horiz-adv-x="569" 
d="M86 1424l464 -1455h-83l-464 1455h83z" />
    <glyph glyph-name="bracketright" unicode="]" horiz-adv-x="682" 
d="M75 1392h432v-1791h-432v64h272v1663h-272v64z" />
    <glyph glyph-name="asciicircum" unicode="^" horiz-adv-x="961" 
d="M512 1392l448 -704h-92l-372 585l-373 -585h-91l448 704h32z" />
    <glyph glyph-name="underscore" unicode="_" 
d="M1040 -431h-1055v80h1055v-80z" />
    <glyph glyph-name="grave" unicode="`" horiz-adv-x="682" 
d="M118 1376h224l112 -336h-36z" />
    <glyph glyph-name="a" unicode="a" horiz-adv-x="909" 
d="M592 129l-119 -92q-46 -34 -68 -43.5t-55 -17.5q-15 -3 -29.5 -5t-31.5 -2q-48 0 -89 16t-72 47.5t-48 74.5q-16 46 -16 96q0 35 8 64.5t23 51.5q19 31 57 65q33 29 89 61t141 67q6 2 70 27q103 40 140 53v37q0 143 -48 197q-24 27 -59.5 40.5t-79.5 13.5q-69 0 -110 -35
t-41 -80l2 -59q0 -22 -6 -41.5t-16 -30.5q-23 -26 -59 -26q-15 0 -31 6t-25.5 18.5t-17.5 32.5q-5 20 -5 42q0 88 90.5 162.5t252.5 74.5q65 0 113 -11q51 -9 92 -31q30 -15 52 -39.5t37 -59.5q8 -18 13.5 -67t5.5 -111v-316q0 -23 1 -59t1 -48q0 -39 3 -56q1 -14 6 -26
l10 -14l13 -8l15 -2l14 1l14 4l31 20l52 39v-45q-55 -71 -109 -108.5t-104 -37.5q-23 0 -44 9.5t-33.5 26t-21.5 48.5q-4 16 -6 33.5t-2 42.5zM592 192v336q-82 -27 -134 -49l-76 -33q-43 -21 -73 -42.5t-47.5 -44.5t-28.5 -50q-9 -26 -9 -53q0 -36 11.5 -64t33.5 -51
q22 -21 50 -34q28 -11 57 -11q38 0 91.5 23.5t124.5 72.5z" />
    <glyph glyph-name="b" unicode="b" 
d="M320 756q66 93 138.5 140.5t149.5 47.5q69 0 131 -30.5t113.5 -90.5t79.5 -143.5t28 -188.5q0 -243 -162 -395q-139 -127 -309 -127q-41 0 -80 7q-21 3 -30 5q-24 5 -52 15q-30 9 -41 13.5t-42 18.5q-21 11 -42 22.5t-42 24.5v965q0 27 -0.5 58.5t-1.5 68.5q0 46 -4 64.5
t-10 32t-13 19.5t-18 9l-19 4q-15 0 -30 -5q-17 -3 -35 -11l-13 32l261 112h43v-668zM320 691v-557q25 -25 52 -45q24 -16 56 -32q24 -11 55.5 -18t60.5 -7q46 0 90.5 25t84.5 76q81 102 81 296q0 177 -81 274t-185 97q-19 0 -28 -1t-27 -7q-17 -4 -30 -9t-28 -12.5
t-43.5 -29t-57.5 -50.5z" />
    <glyph glyph-name="c" unicode="c" horiz-adv-x="909" 
d="M832 338q-18 -94 -54.5 -162.5t-89 -114t-114 -69t-124.5 -23.5q-156 0 -271 130q-56 65 -85.5 155t-29.5 201q0 109 31.5 197.5t94.5 155.5t140 101.5t165 34.5q65 0 120 -18t99 -53q86 -72 86 -149q0 -17 -5.5 -32.5t-17 -26.5t-30 -18t-39.5 -7q-26 0 -48 9t-32 29
q-11 8 -19 28.5t-11 51.5q0 27 -13 53q-8 21 -27 38q-15 13 -42 23q-13 4 -25 6t-29 2q-96 0 -158 -75q-80 -98 -80 -260q0 -86 20.5 -157.5t60.5 -133.5t97 -94t125 -32q52 0 95.5 13.5t84.5 42.5q27 21 55 64.5t54 103.5z" />
    <glyph glyph-name="d" unicode="d" 
d="M704 124q-66 -87 -130 -121q-30 -14 -65 -24t-73 -10q-148 0 -260 125q-55 63 -84 144q-14 42 -21 85t-7 94q0 197 123 362t318 165q60 0 109.5 -21.5t89.5 -65.5v183q0 27 -0.5 58.5t-1.5 68.5q0 46 -4 64.5t-10 32t-13 19.5t-18 9l-20 4q-14 0 -29 -5q-8 -1 -17.5 -4
t-18.5 -7l-12 32l261 112h43v-1072q0 -28 1 -71t1 -57q0 -45 4 -63t4.5 -22t5.5 -14.5t13 -16.5l17 -10l20 -3q13 0 29 4l38 13l11 -32l-260 -111h-44v155zM704 193v446q0 35 -9 67t-25.5 62t-35.5 49q-18 21 -42.5 34.5t-43 19t-28.5 7.5t-23 2q-43 0 -81 -19t-72 -59
q-43 -51 -65.5 -128t-22.5 -170q0 -98 21 -173.5t64 -129.5q84 -105 191 -105q43 0 86.5 24t85.5 73z" />
    <glyph glyph-name="e" unicode="e" horiz-adv-x="909" 
d="M208 560q0 -102 24.5 -180t75.5 -137q48 -56 109 -85.5t128 -29.5q26 0 44 2t38 8t40 14t36 19q33 21 61 62t52 103l16 -19q-10 -68 -41.5 -130t-79 -113.5t-112.5 -78t-139 -26.5q-43 0 -78 7t-73 24q-68 31 -128 97q-117 129 -117 347q0 236 119 368q59 67 134 99.5
t166 32.5q152 0 250 -104q48 -51 73.5 -123t25.5 -157h-624zM208 624h416q0 43 -8 78q-5 34 -13 52q-12 29 -30.5 52t-41.5 38.5t-50 25.5t-53 10q-43 0 -77.5 -16.5t-68.5 -51.5q-30 -33 -51 -81q-17 -43 -23 -107z" />
    <glyph glyph-name="f" unicode="f" horiz-adv-x="682" 
d="M416 864v-624q0 -63 6 -105t22.5 -61t41.5 -30.5t55 -11.5h83v-32h-544v32h42q22 0 38 4.5t33.5 14.5t29.5 23.5t20 31.5q6 17 9 50l4 84v624h-176v64h176v59q0 70 10.5 125t33 102t56.5 84.5t79 65.5t97 44t110 16q25 0 50.5 -4t50.5 -13q49 -15 94 -48q27 -20 43 -45
t16 -51q0 -14 -6 -27t-22 -27q-11 -11 -26 -18t-30 -7q-13 0 -24.5 3.5t-24 11.5t-30.5 26l-35 44q-17 24 -37 44q-15 17 -33 28q-12 7 -34 14q-12 3 -18 4t-19 1q-45 0 -80 -24q-15 -11 -29 -31q-10 -18 -18 -45q-4 -18 -11 -93q0 -52 -1 -94t-2 -79v-66h240v-64h-240z" />
    <glyph glyph-name="g" unicode="g" 
d="M306 326q-85 41 -129 116.5t-44 164.5q0 138 102 237q52 50 117.5 75t143.5 25q31 0 61.5 -4t59.5 -13q59 -16 105 -47h193h34q13 0 16 -2l5 -3l5 -3l4 -10l2 -13q0 -11 -2 -16l-3 -10l-10 -5l-17 -1l-34 -1h-118q27 -38 41.5 -88t14.5 -109q0 -68 -24.5 -126.5
t-72.5 -106.5t-114.5 -73t-148.5 -25q-16 0 -33.5 1t-38 4t-33 5.5t-33.5 8.5l-47 -34q-17 -14 -28 -30q-4 -6 -6.5 -10t-7.5 -15l-5 -21q0 -15 17 -31q6 -6 25 -14l43 -8l52 -3l96 -3l180 -4l102 -6q47 -6 87 -23t70 -46q27 -26 43 -60t16 -76q0 -54 -27.5 -108t-79.5 -102
q-79 -73 -181.5 -108.5t-229.5 -35.5q-51 0 -93.5 5t-87.5 17q-79 21 -149 63q-39 25 -57 50.5t-18 50.5q0 23 9 47q6 19 23 44l40 57l26 32l66 73l-47 28q-7 6 -17 14t-13 12q-23 25 -23 54q0 16 7 36q4 11 9 21t14 23q14 21 51 55q22 20 40.5 35.5t51.5 39.5zM479 896
q-38 0 -72 -15t-61 -45q-25 -30 -40 -77q-13 -49 -13 -107q0 -78 18 -141.5t54 -107.5q26 -31 63 -50q37 -17 79 -17q80 0 133 57q26 27 39.5 74t13.5 108q0 162 -74 254q-26 31 -62.5 49t-77.5 18zM283 0q-8 -8 -13.5 -14t-24.5 -32l-27 -43l-16 -40q-3 -13 -4 -19t-1 -18
q0 -21 14.5 -41t45.5 -38q50 -27 126.5 -42.5t176.5 -15.5q94 0 163.5 15.5t114 45t67.5 63.5q11 16 17 33t6 34q0 24 -13.5 43t-41.5 29.5t-83 17.5q-27 3 -61 5t-76 2t-113 3t-100 3q-47 0 -63.5 1t-93.5 8z" />
    <glyph glyph-name="h" unicode="h" 
d="M320 1424v-678q55 60 102 103q43 39 78 58t68.5 28t67.5 9q41 0 76 -11t61 -32q29 -21 51 -55t36 -80q9 -32 15 -91q0 -23 2.5 -74t2.5 -69v-324l3 -76q3 -31 11 -47q5 -13 14 -22l22 -17q2 -1 15.5 -5t20.5 -6l58 -3v-32h-448v32h20q33 0 52.5 4.5t32.5 14.5t21 24
t15 36l2 32l1 65v320v18v15v12q0 20 -1 40t-4 37q0 25 -2.5 39.5t-9.5 32.5q-6 21 -21 41q-11 17 -30 29t-40.5 18t-48.5 6q-25 0 -52.5 -6.5t-54.5 -18.5t-64 -40q-19 -15 -34.5 -29t-37.5 -36v-478v-41t2.5 -44.5t7 -35.5t14.5 -21q11 -10 24 -18t37 -12l59 -4v-32h-448
v32q14 0 28 1t27.5 4t22.5 5.5t19.5 7.5t19.5 16q4 5 8 12t6 12q6 14 9 44l4 74v832q0 27 -0.5 58.5t-1.5 68.5q0 46 -4 64.5t-9 31.5t-12.5 19.5t-18.5 9.5l-22 4q-11 0 -25 -5q-5 -1 -16.5 -4t-21.5 -7l-13 32l260 112h44z" />
    <glyph glyph-name="i" unicode="i" horiz-adv-x="569" 
d="M272 1424q47 0 79.5 -32.5t32.5 -79.5q0 -44 -32.5 -78t-79.5 -34q-24 0 -43.5 8.5t-35.5 24t-24.5 36.5t-8.5 43q0 24 8 43.5t24 35.5q33 33 80 33zM368 944v-736l3 -74q3 -31 9.5 -45t16 -25t22.5 -18q9 -4 35 -11l58 -3v-32h-448v32l58 3q23 3 35 10t20 17l17 27
q5 13 10 45l4 74v352q0 149 -9 197q-2 11 -3.5 15.5t-5 14t-10.5 15.5t-18 9l-22 4q-13 0 -29 -4q-5 -1 -15.5 -4t-18.5 -7l-13 32l262 112h42z" />
    <glyph glyph-name="j" unicode="j" horiz-adv-x="569" 
d="M263 1424q45 0 79 -33t34 -80q0 -22 -8 -40.5t-25 -37.5q-33 -33 -80 -33q-24 0 -42.5 8t-35 23.5t-25 36.5t-8.5 43q0 47 32 80q15 15 35.5 24t43.5 9zM376 944v-916q0 -233 -99.5 -346t-258.5 -113q-43 0 -77 9t-56 25q-44 33 -44 70q0 19 6.5 33.5t18.5 28.5
q24 26 58 26h16q9 -3 15.5 -5t22.5 -11q9 -3 22 -19l33 -41q18 -23 38 -37.5t39 -14.5q26 0 53 18q11 8 23 25q9 13 17 38q4 13 6.5 29.5t2.5 40.5l4 120v656q0 28 -1 70t-1 56q0 21 -2 39t-5 31q-6 33 -20 46q-6 6 -17 9l-22 4q-13 0 -29 -4q-5 -1 -15.5 -4t-18.5 -7
l-13 32l263 112h41z" />
    <glyph glyph-name="k" unicode="k" 
d="M335 1424v-907l233 215l58 56l28 32l6 12l2 12q0 10 -3.5 18t-12 16t-24.5 13t-31 5v32h401v-16q-42 0 -75.5 -6.5t-66 -20t-61.5 -35.5q-15 -12 -22 -18q-25 -20 -43 -36l-238 -220l244 -315l79 -103l45 -58l45 -29q20 -12 38 -16l34 -5l53 -2v-48h-433v32l32 3
q11 3 19 9q14 11 14 31q0 13 -11 31q-9 20 -29 47l-281 364v-309q0 -92 12 -120.5t34 -41.5q10 -6 35 -10l63 -4v-32h-448v32q66 0 99 18q9 4 16.5 13t13.5 23q15 33 15 122v832q0 28 -1 71t-1 57q0 46 -5 66q-3 18 -9 30t-13 19l-18 10l-22 4q-11 0 -25 -5q-14 -3 -34 -12
l-16 32l260 112h44z" />
    <glyph glyph-name="l" unicode="l" horiz-adv-x="569" 
d="M368 1424v-1216q0 -88 12 -118l15 -25q9 -11 22 -18q24 -15 95 -15v-32h-448v32l56 3q22 3 35 9.5t22 17.5l17 27q5 13 10 45l4 74v832q0 27 -0.5 58.5t-1.5 68.5q0 46 -5 66q-3 18 -9 30q-4 11 -12 19l-18 10l-20 4q-14 0 -28 -5q-5 -1 -15.5 -4t-18.5 -7l-16 32
l261 112h43z" />
    <glyph glyph-name="m" unicode="m" horiz-adv-x="1593" 
d="M336 741l78 82l37 38q20 17 46 34q12 7 18 10q15 9 27.5 14.5t25 9.5t34 9.5t46.5 5.5q43 0 78 -12.5t67 -39.5q28 -23 50 -63q19 -35 32 -88q48 61 91 103t77.5 61t70.5 29q16 4 36 7t38 3q36 0 67 -10q30 -8 57.5 -26.5t51.5 -50.5q19 -27 38 -73q10 -25 16 -72.5
t6 -109.5v-394l3 -75q3 -30 9 -43.5t15 -23t23.5 -18t37.5 -12.5l56 -4v-32h-448v32h18q28 0 52 6.5t38 16.5q9 8 17.5 20.5t14.5 32.5l3 34l1 66v389q0 108 -27 155q-18 29 -49.5 46.5t-73.5 17.5q-25 0 -52.5 -6.5t-52.5 -20.5q-14 -7 -27.5 -15.5t-30.5 -22.5
q-25 -19 -41 -33q-10 -9 -28 -26l-2 -11v-43v-430v-41t2.5 -44.5t7.5 -36.5t15 -20.5t23 -17.5t37 -12l59 -4v-32h-448v32q38 0 62 4.5t38 14t23.5 23t15.5 32.5l3 34l2 68v388q0 110 -33 158q-42 62 -121 62q-18 0 -26.5 -1t-26.5 -7q-29 -6 -52 -20q-42 -22 -72 -46
t-53 -50v-484q0 -92 12 -121l15 -25l20 -16q2 -1 15.5 -5t20.5 -6q24 -3 61 -3v-32h-448v32l55 3q24 3 35 9t22 17.5t17 26t11 46.5l4 74v352q0 151 -7.5 190t-21.5 52q-6 6 -17 9l-22 4q-13 0 -26 -3t-20.5 -5.5t-15.5 -6.5l-14 32l263 112h41v-203z" />
    <glyph glyph-name="n" unicode="n" 
d="M320 745q80 98 160.5 148.5t155.5 50.5q38 0 70.5 -9.5t61.5 -27.5q54 -37 89 -124q4 -11 8.5 -32t9.5 -55.5t5 -96.5v-391l3 -76q3 -32 11 -46q5 -12 14 -23l22 -17q2 -1 15.5 -5t20.5 -6l58 -3v-32h-448v32h18q15 0 28 1t29 4.5t29 13.5t21 24t15 36l2 31l2 66v372
q0 59 -9 105t-25 75q-35 56 -116 56q-63 0 -126 -33t-124 -97v-478v-41t2 -37t3.5 -26t4.5 -15q13 -30 37 -43q2 -1 15.5 -5t20.5 -6q24 -3 61 -3v-32h-448v32h20q35 0 59.5 9t37.5 26.5t20 53.5q3 19 5 40t2 47v352q0 28 -1 71t-1 57q0 46 -4 63.5t-9 30.5t-12.5 19.5
t-18.5 9.5l-22 4q-13 0 -26 -3t-20.5 -5.5t-15.5 -6.5l-14 32l263 112h41v-199z" />
    <glyph glyph-name="o" unicode="o" 
d="M505 944q206 0 332 -159q51 -66 79 -145t28 -167q0 -60 -15 -125q-7 -31 -18 -62t-26 -63q-29 -63 -70 -111.5t-90.5 -78t-110.5 -48.5q-61 -16 -120 -16q-102 0 -183.5 40t-144.5 124q-102 138 -102 314q0 63 15 126q8 32 19.5 63.5t27.5 62.5q30 62 70.5 107.5
t92.5 77.5q102 60 216 60zM475 880q-28 0 -51.5 -7t-51.5 -25q-24 -15 -46 -43t-37.5 -68.5t-24 -93.5t-8.5 -114q0 -203 77 -350t203 -147q46 0 84.5 19.5t69.5 60.5t46 111q8 37 12 76.5t4 92.5q0 63 -6 116.5t-20 104.5q-24 98 -76 169q-69 98 -175 98z" />
    <glyph glyph-name="p" unicode="p" 
d="M16 832l268 112h36v-218q71 120 143 169q37 25 68 34.5t48.5 12t34.5 2.5q70 0 128 -27.5t104 -81.5q114 -132 114 -346q0 -62 -8 -113.5t-27 -104.5q-32 -96 -102 -176q-55 -62 -128 -94t-156 -32q-35 0 -68.5 6t-60.5 16q-9 4 -19.5 9.5t-22.5 13.5q-22 15 -48 39v-276
v-39.5t2.5 -44t7.5 -37t14 -22.5q11 -11 23 -18q2 -1 14.5 -5t22.5 -6l60 -4v-32h-464v32h25q31 0 51 5q23 4 43 15q9 4 17 14l13 20q3 7 5 21.5t4 33t2 67.5v879v29v22q-2 14 -2 20q0 26 -5 39q-3 13 -11 21q-7 10 -13.5 15.5t-19.5 8.5l-25 3q-11 0 -26.5 -3.5
t-30.5 -10.5zM320 667v-343q0 -110 9 -146q6 -28 25 -54.5t47 -47.5q58 -44 144 -44q104 0 170 78q42 51 63.5 124.5t21.5 163.5q0 107 -24.5 186t-72.5 137q-32 38 -72.5 58.5t-86.5 20.5q-23 0 -47.5 -5.5t-52.5 -18.5q-17 -8 -50 -37z" />
    <glyph glyph-name="q" unicode="q" 
d="M864 944v-1167l3 -76q3 -32 8 -44q11 -26 36 -41q2 -1 15.5 -5t20.5 -6l61 -4v-32h-448v32h18q30 0 48 5q20 3 35 12q8 4 17 16q6 7 13 23.5t10 46.5l3 73v381q-47 -56 -86 -94t-71.5 -55.5t-70.5 -28.5q-16 -5 -34 -8t-37 -3q-66 0 -125 30t-112 90q-104 122 -104 326
q0 117 34 212t101 167.5t151.5 111t179.5 38.5q56 0 104.5 -15t85.5 -44l56 27l54 32h34zM704 222v434q0 17 -1 34t-4.5 39.5t-13.5 44.5t-29 41q-15 17 -42 34q-21 13 -53 22t-62 9q-111 0 -193 -96t-82 -291q0 -96 20.5 -166t61 -118t91 -72.5t108.5 -24.5q30 0 57 6
t51.5 18.5t48 34t42.5 51.5z" />
    <glyph glyph-name="r" unicode="r" horiz-adv-x="682" 
d="M320 944v-226q56 110 116.5 168t122.5 58q28 0 50 -9t41 -27.5t28.5 -41t9.5 -44.5q0 -20 -6 -39t-18 -33t-28 -23q-14 -5 -31 -7q-17 0 -37.5 10t-42.5 29.5t-38 29t-29 11.5q-8 0 -20 -6.5t-21 -15.5q-46 -42 -97 -142v-428q0 -18 1 -34t5 -37.5t12 -37.5t18 -28
l28 -20q14 -8 41 -14q16 -3 25 -4t30 -1v-32h-464v32q37 0 62.5 5.5t39.5 15t22.5 22t14.5 32.5l3 34l2 67v352l-1 131q0 46 -4 62.5t-10.5 28t-13 18t-19.5 11.5l-22 4q-27 0 -65 -15l-9 32l264 112h40z" />
    <glyph glyph-name="s" unicode="s" horiz-adv-x="797" 
d="M656 944v-320h-32q-19 75 -44 124q-12 26 -25 45.5t-28 32.5q-26 26 -65.5 40t-83.5 14q-36 0 -63 -9.5t-47 -26.5t-33 -40q-5 -9 -8 -20.5t-3 -22.5q0 -26 6 -51.5t19.5 -44.5t43.5 -42q15 -11 34.5 -21.5t43.5 -22.5l146 -70q100 -48 151.5 -114.5t51.5 -147.5
q0 -126 -95 -202q-48 -37 -102.5 -56.5t-110.5 -19.5q-41 0 -89.5 6t-104.5 18l-30 6l-24 1q-11 0 -20.5 -7.5t-15.5 -23.5h-32v319h32q12 -64 39.5 -112t68.5 -79q82 -65 181 -65q34 0 63.5 10.5t50.5 31.5q45 42 45 103q0 35 -12 66t-34.5 55.5t-70.5 55.5
q-24 15 -52.5 30.5t-68.5 34.5q-73 35 -120.5 66.5t-72.5 59.5t-37 63.5t-12 77.5q0 109 78.5 183.5t201.5 74.5q13 0 28.5 -1t39.5 -4.5t65 -14.5l43 -9l25 -3q16 0 25 5l10 9l12 18h32z" />
    <glyph glyph-name="t" unicode="t" horiz-adv-x="569" 
d="M320 1232v-304h214v-64h-214v-613q0 -44 6 -75t20 -48q26 -32 67 -32h15q12 3 22.5 5t27.5 11q15 6 27.5 18.5t22.5 29.5h48q-19 -51 -44 -84q-24 -36 -57 -60q-67 -47 -135 -47q-25 0 -47.5 6.5t-44 18.5t-39.5 32q-16 21 -26 42.5t-18 64.5q-5 43 -5 90v641h-160v30
q31 9 61 28t61.5 44.5t59 56t53.5 68.5q6 9 15.5 27t13.5 27l40 87h16z" />
    <glyph glyph-name="u" unicode="u" 
d="M880 928v-576q0 -28 1 -71t1 -57q0 -46 4 -63t4.5 -21t5.5 -14t12 -17l17 -11l20 -3q15 0 31 4l35 13l13 -32l-261 -111h-43v199q-60 -66 -106.5 -108t-78 -57.5t-65.5 -24.5t-70 -9q-38 0 -74.5 11.5t-63 32t-49.5 52.5q-20 31 -30 65q-4 14 -8.5 36t-9.5 62t-5 105v419
v37q-3 13 -5 26.5t-7.5 26t-15 22.5t-24.5 19q-10 5 -36 10q-23 3 -56 3v32h304v-622q0 -129 47 -169q21 -19 51 -31q13 -4 29.5 -7t32.5 -3q45 0 102 27q29 12 63 39q27 21 45 37q11 10 30 28v525q0 14 -0.5 31t-7.5 38q-6 29 -19 42.5t-45 23t-72 9.5v32h304z" />
    <glyph glyph-name="v" unicode="v" 
d="M10 928h431v-32h-28q-22 0 -36.5 -5t-24.5 -13.5t-17 -21.5t-7 -30q0 -33 24 -83l216 -506l216 525l17 49q6 21 6 36q0 8 -2 12l-6 11l-13 12q-4 5 -15 8l-26 4l-43 2v32h288v-32q-14 0 -22 -2t-24 -7.5t-26 -15.5q-17 -17 -34 -47q-3 -7 -12.5 -29t-16.5 -41l-323 -785
h-29l-333 780q-10 28 -22 50q-5 12 -9 19t-11 15q-10 14 -23 24l-28 20l-25 9l-42 10v32z" />
    <glyph glyph-name="w" unicode="w" horiz-adv-x="1479" 
d="M15 928h382v-32q-10 0 -21.5 -2t-26 -5.5t-21.5 -12.5q-17 -15 -17 -44q0 -17 3.5 -33t5.5 -23t8 -22l209 -537l227 458l-44 113q-24 63 -63 89q-10 7 -32 13q-7 2 -19.5 4t-30.5 2v32h385v-32q-21 0 -37 -9.5t-26 -22.5q-5 -8 -10 -25l-3 -36l2 -17q2 -8 7 -16l216 -542
l187 523q15 27 23.5 51t8.5 40q0 8 -6 18t-16 17t-33 13q-8 2 -21 4t-32 2v32h276v-32q-86 -15 -128 -129l-285 -798h-43l-246 628l-311 -628h-19l-304 782q-14 40 -29.5 65.5t-28.5 37.5q-13 14 -34.5 24.5t-52.5 17.5v32z" />
    <glyph glyph-name="x" unicode="x" 
d="M43 928h405v-32q-36 0 -51 -16q-13 -16 -13 -39q0 -12 9 -32t28 -48l13 -18l19 -25l107 -132l71 86q99 120 105 156q0 14 -4.5 25t-15 21.5t-28 16t-38.5 5.5v32h321v-32q-26 0 -50.5 -10t-41.5 -23q-28 -21 -66 -65l-94 -111l-128 -157l236 -321q39 -62 70 -99.5t47 -49
t40 -19.5q23 -6 51 -9v-32h-434v32q27 0 46.5 4.5t34.5 15.5q9 6 15.5 15.5t6.5 22.5q0 23 -71 118l-142 201l-169 -206l-38 -72q-12 -27 -12 -35q0 -11 5.5 -21.5t18 -20.5t30.5 -16q4 -1 16.5 -3.5t25.5 -2.5v-32h-336v32q17 0 38 8q7 2 16.5 6.5t17.5 10.5q22 16 58 53
l89 99l201 245l-201 275q-34 52 -64 89q-26 33 -46.5 48t-39.5 20.5t-30 7.5t-28 2v32z" />
    <glyph glyph-name="y" unicode="y" 
d="M13 928h429v-32h-21q-24 0 -40 -4.5t-27 -15.5q-23 -20 -23 -49q0 -15 1 -22t8 -29.5t24 -57.5l217 -457l199 500l12 42q5 23 5 41q0 11 -2 15l-6 12l-10 10l-14 8l-24 5l-36 2v32h275v-32q-18 0 -33 -6q-15 -3 -24.5 -10t-20.5 -19l-23 -28l-14 -27l-20 -51l-356 -894
q-27 -71 -62 -125.5t-79 -92.5q-88 -74 -169 -74q-30 0 -53.5 9.5t-41.5 26.5t-31 41q-9 21 -9 45t7 41.5t21.5 32t34.5 21.5q12 3 22 5t24 2q20 0 40 -4.5t28.5 -6.5t26.5 -8l34 -9l19 -4q31 0 66 29q19 16 37 45t35 70l62 155l-325 684l-20 35l-28 42l-23 29l-18 18
q-10 8 -30 15l-44 13v32z" />
    <glyph glyph-name="z" unicode="z" horiz-adv-x="909" 
d="M880 272v-272h-836v34l616 830h-312q-52 0 -81.5 -3.5t-45.5 -9.5t-28.5 -18.5t-21.5 -31.5q-13 -23 -22 -58q-5 -27 -7 -40t-2 -31h-32v256h772v-34l-618 -830h346h13h11h44q16 3 23 4q38 5 57 13q38 15 63 59q8 15 15 49q3 12 6 29.5t8 53.5h32z" />
    <glyph glyph-name="braceleft" unicode="{" horiz-adv-x="983" 
d="M784 -399v-32q-87 11 -155 44t-122 88q-107 112 -107 246q0 68 24 163q12 46 18 82.5t6 63.5q0 33 -15 67.5t-43.5 63.5t-72.5 51q-18 8 -41.5 14.5t-51.5 11.5v32q105 12 164.5 76t59.5 139q0 54 -24 150q-12 49 -18 91t-6 80q0 35 6 67.5t20 65.5q27 64 79.5 120.5
t121.5 91.5t157 47v-32q-58 -14 -101 -38t-69 -55q-54 -65 -54 -143q0 -60 24 -157.5t24 -167.5q0 -52 -19.5 -101t-59.5 -97t-100.5 -86t-140.5 -65q76 -25 136 -61.5t101 -85.5q38 -44 62 -96q21 -48 21 -98q0 -32 -6 -71t-18 -87.5t-18 -87t-6 -67.5q0 -36 13 -71
q14 -33 41 -64t68.5 -54t101.5 -38z" />
    <glyph glyph-name="bar" unicode="|" horiz-adv-x="410" 
d="M244 1424v-1871h-80v1871h80z" />
    <glyph glyph-name="braceright" unicode="}" horiz-adv-x="983" 
d="M192 1392v32q83 -10 153 -44t124 -91q51 -54 79 -118t28 -133q0 -71 -24 -167q-12 -47 -18 -84t-6 -64q0 -72 59 -134q31 -32 69.5 -50t95.5 -27v-32q-54 -6 -94 -26q-41 -18 -70 -50q-60 -63 -60 -135q0 -25 6 -64l18 -84q24 -96 24 -167q0 -65 -27 -129t-79.5 -120
t-122 -90t-155.5 -46v32q58 14 99.5 36.5t70.5 54.5q54 63 54 140q0 57 -24 155q-12 47 -18 88.5t-6 74.5q0 102 80 197q40 47 100.5 84.5t139.5 62.5q-78 26 -138 63t-100 85.5t-62 98.5q-10 25 -15 49t-5 51q0 66 24 164q12 48 18 87t6 69q0 74 -54 139q-27 31 -70 54
q-20 11 -44 20.5t-56 17.5z" />
    <glyph glyph-name="asciitilde" unicode="~" horiz-adv-x="1108" 
d="M1056 672h32q0 -56 -19.5 -105t-54.5 -83q-71 -68 -173 -68l-48 3q-10 1 -24.5 4t-26.5 7q-23 5 -48 14q-30 12 -47 18l-180 69q-78 30 -134.5 45.5t-85.5 15.5q-76 0 -126 -41q-26 -21 -44.5 -54t-28.5 -81h-32q0 61 18.5 107.5t55.5 82.5q68 66 161 66h26q12 -3 18 -4
l46 -9q22 -6 56 -16.5t66 -22t69 -25t82.5 -31.5t79.5 -30q27 -9 67 -21q62 -17 95 -17q41 0 74 11.5t60.5 33t43.5 54.5t22 77z" />
    <glyph glyph-name="nonbreakingspace" unicode="&#xa0;" horiz-adv-x="2048" 
 />
    <glyph glyph-name="exclamdown" unicode="&#xa1;" horiz-adv-x="909" 
d="M90 311l4 6q14 28 55 66q51 39 90 63q51 27 141 66l99 38l110 42v36q0 144 -47 197q-24 27 -58.5 40t-80.5 13q-73 0 -112.5 -35t-39.5 -79l3 -60q0 -19 -6.5 -39.5t-16.5 -31.5q-22 -25 -57 -25q-14 0 -33 4q-14 6 -23.5 18t-16.5 31.5t-7 44.5q0 90 91.5 164t252.5 74
q56 0 112 -10q62 -16 93 -33q23 -12 51 -39q27 -30 36.5 -56.5t14.5 -68.5l4 -113v-313h-160v217q-16 -5 -34 -11.5t-37 -14.5l-62 -23l-32 -14l-29 -12l-15 -7q-25 -12 -71 -43q-33 -21 -49 -47q-15 -13 -27 -45h-143zM350 1329h182l191 -336h-33l-264 209l-234 -209h-31z
M90 311h143l-2 -2q-4 -19 -6 -31t-2 -22q0 -33 10 -64q13 -30 36 -52.5t48 -31.5q27 -12 57 -12q39 0 95 23q65 31 120 73v119h160v-28.5t2 -27.5v-55v-27t4 -28l6 -24q2 -7 11 -17l6 -3l6 -3l14 -2h15l14 4l5 3l8 5l8 6l10 7l14 9l17 13l22 16v-45q-60 -76 -111 -108
q-51 -37 -102 -37q-30 0 -46.5 8.5t-31.5 26.5q-13 20 -22 49q-9 36 -9 76l-118 -92q-38 -31 -66 -41q-26 -15 -55.5 -21t-63.5 -6q-46 0 -88 16q-37 16 -71 45q-33 37 -50 76q-16 48 -16 96q0 16 2 29.5t8 32.5q6 27 19 47z" />
    <glyph glyph-name="cent" unicode="&#xa2;" 
d="M65 487q15 157 119 291q124 166 317 166q59 0 111 -23q21 -7 41.5 -22.5t46.5 -42.5v184v14v15h-182v63h180v31v19q-2 10 -2 13l-2 38q-2 16 -9 29t-14 20l-18 10l-10 2l-11 2l-11 -2l-17 -2l-37 -12l-10 30l260 113h43l2 -291h123v-63h-123l-2 -582h-160v152q0 35 -9 67
t-25.5 61t-35.5 50l-43 35q-8 4 -24.5 10.5t-24.5 9.5q-29 8 -45 8q-39 0 -78.5 -19t-74.5 -61q-45 -48 -66 -124q-11 -39 -17 -82.5t-6 -89.5v-17h-186zM65 487h186q0 -41 4 -76.5t19 -81.5q17 -70 63 -129q84 -104 191 -104q45 0 88 23q41 25 84 73v295h160v-135v-32
t2 -32v-65l4 -66l3 -14l5 -16q5 -10 14 -19q6 -6 17 -10l20 -4l29 4q14 5 25 8.5t14 5.5l10 -32l-260 -111h-43v154q-69 -90 -131 -121q-33 -15 -66 -25q-15 -4 -31 -6t-40 -2q-150 0 -260 125q-58 64 -84.5 142t-26.5 179q0 52 4 72z" />
    <glyph glyph-name="sterling" unicode="&#xa3;" horiz-adv-x="909" 
d="M125 751q24 38 45 60q56 65 134 99t167 34q149 0 250 -105q36 -43 59 -88h-188l-2 2q-2 5 -10.5 21t-18 29.5t-20.5 22.5l-23 20q-18 12 -51 24q-24 8 -51 8q-40 0 -78 -16q-31 -13 -68 -51q-24 -26 -43 -60h-102zM348 1329h184l189 -336h-31l-266 209l-234 -209h-30z
M125 751h102q-5 -16 -8 -20q-12 -33 -18.5 -59.5t-6.5 -49.5h416q0 45 -6 80l-12 49h188l14 -34q25 -73 25 -158h-625q0 -90 27 -180q18 -74 74 -138q48 -54 108 -84t129 -30q45 0 86 12q31 6 72 31q32 19 61 61.5t52 104.5l16 -19q-9 -73 -41 -131q-16 -33 -34 -59.5
t-46 -55.5q-54 -56 -112 -75q-57 -27 -140 -27t-149.5 30t-128.5 97q-117 129 -117 346q0 186 74 309z" />
    <glyph glyph-name="currency" unicode="&#xa4;" 
d="M82 467q0 65 15.5 123.5t46.5 119.5t71.5 107t89.5 76q106 62 217 62q208 0 332 -160q56 -72 81.5 -149t25.5 -162v-17h-193q0 42 -5.5 73.5t-18.5 82.5q-24 93 -76 170q-69 96 -176 96q-49 0 -103 -30q-27 -18 -45 -45q-25 -31 -39.5 -70t-23.5 -90q-6 -48 -6 -115
v-39.5t2 -34.5zM449 1340h184l188 -336h-30l-267 209l-233 -209h-29zM82 467l195 -2q0 -74 21 -147q18 -62 52 -129q77 -148 203 -148q38 0 86 21q37 21 68.5 60.5t46.5 111.5q8 38 12 78t4 90v36l-2 29h193q0 -39 -16 -107.5t-42 -125.5q-30 -65 -73 -114t-91 -79
q-52 -29 -106 -45q-66 -16 -121 -16q-99 0 -184 40t-144 124q-102 135 -102 313v10z" />
    <glyph glyph-name="yen" unicode="&#xa5;" 
d="M82 465q0 65 14 117q8 32 19.5 63.5t27.5 63.5q32 62 72 109q33 36 90 75q102 60 217 60q129 0 228 -62l8 -4l3 -3l2 -2l3 -3l6 -4l6 -4l17 -14l43 20q10 6 18.5 12.5t18.5 16.5q20 20 28 39q15 26 15 49v33q0 9 -11 32l-14 25q-9 9 -23 16l-10 4l-6 -6l-2 -10
q3 -9 8 -12q6 -10 8 -21v-28l-14 -23q-6 -9 -20 -16l-13 -5l-12 -2q-10 -4 -27 -4q-9 2 -23.5 9.5t-27.5 23.5q-6 6 -6 17l-4 24q0 8 2 12l4 17q7 21 19 28q6 8 20 17l21 8l13 4l9 2h16q27 0 35 -2l25 -8l20 -12q12 -8 15 -13l14 -16l10 -23l4 -13l4 -13l4 -25
q0 -42 -14 -69q-12 -29 -37 -54q-8 -8 -17 -16q-16 -14 -30 -23l-41 -18q13 -8 19 -18l8 -10l10 -11q27 -36 47.5 -73t32.5 -74q27 -78 27 -166v-17h-193q0 42 -5.5 73.5t-18.5 84.5q-24 93 -76 168q-69 98 -176 98q-28 0 -51.5 -7t-51.5 -25q-26 -15 -45 -43
q-26 -36 -39 -68q-14 -40 -24 -92q-6 -51 -6 -115v-39.5t2 -34.5h-195zM82 465h195q0 -74 21 -147q18 -62 52 -129q77 -148 203 -148q38 0 86 21q37 18 70 61q29 36 45 112.5t16 166.5v34l-2 29h193q0 -38 -15 -104t-44.5 -130.5t-69 -110t-93.5 -79.5q-44 -28 -106 -47
q-56 -14 -121 -14q-99 0 -186 39q-80 40 -142 123q-102 135 -102 315v8z" />
    <glyph glyph-name="brokenbar" unicode="&#xa6;" horiz-adv-x="1875" 
 />
    <glyph glyph-name="section" unicode="&#xa7;" 
d="M866 889l-2 -539v-32t2 -32v-63l6 -68q3 -16 9 -28l6 -10l8 -11l14 -8l21 -4l31 4q8 0 16 5l18 7l15 -32l-262 -109h-43v197q-77 -80 -107 -107q-41 -38 -78 -59l-65 -23q-15 -4 -31 -6t-39 -2q-37 0 -74 10q-36 12 -63 33q-29 18 -49 51q-20 29 -31 66q-10 39 -14.5 75
t-6.5 64t-2 63v418v27q-3 21 -5 36t-8.5 29.5t-14.5 22.5l-23 16q-14 8 -37 11l-57 4v32h305v-622q0 -127 47 -170q23 -19 51 -29q27 -12 62 -12q39 0 102 27q28 11 62 38q30 23 76 66v524q0 38 -5.5 62t-9.5 32.5t-12 18.5q-11 11 -43.5 22t-73.5 11v32h307q26 0 37 5
q10 0 18.5 3t18.5 11q19 12 32 32.5t13 45.5v32q-1 8 -3 15t-7 16q-6 20 -14 27q-12 11 -23 16l-10 2l-4 -6l-2 -8l4 -12q10 -13 10 -23v-12v-8q-2 -5 -2 -7q-3 -11 -12 -22.5t-22 -15.5l-23 -9h-27q-10 0 -27 9q-11 5 -24 22q-6 6 -6 14l-2 27q0 11 6 29q3 15 16 28
q6 7 21 17l22 8l21 6h18q26 0 33 -2l15 -4l11 -5q7 -2 10 -5l11 -6l3 -4l6 -5l5 -4l7 -8l6 -8l12 -23l3 -14l3 -12l4 -25q0 -26 -4 -53q-6 -20 -16 -37q-13 -19 -23 -27l-29 -16l-28 -10l-27 -4l-20 -4q-9 0 -13 -4z" />
    <glyph glyph-name="dieresis" unicode="&#xa8;" horiz-adv-x="1875" 
 />
    <glyph glyph-name="copyright" unicode="&#xa9;" horiz-adv-x="1875" 
 />
    <glyph glyph-name="ordfeminine" unicode="&#xaa;" horiz-adv-x="909" 
d="M90 313l4 6q10 19 55 66q39 31 90 61q35 21 141 66q21 8 86.5 33.5t122.5 46.5v36q0 147 -47 197q-25 28 -62 41.5t-77 13.5q-70 0 -111 -34q-41 -39 -41 -82l3 -58q0 -19 -6 -38t-17 -33q-20 -27 -57 -27q-18 0 -33 6t-26 20l-15 31q-6 18 -6 41q0 90 90 164t254 74
q56 0 107 -9.5t98 -31.5q13 -8 25.5 -17.5t25.5 -23.5q27 -30 37 -59q7 -16 10.5 -32t3.5 -34l4 -113v-311h-160v215l-133 -49l-76 -33q-47 -23 -71 -43q-30 -20 -49 -45q-13 -15 -27 -45h-143zM90 313h143l-2 -4q-8 -34 -8 -53q0 -33 10 -64q13 -30 36 -52.5t48 -31.5
q27 -12 57 -12q41 0 95 25q31 13 59 29.5t61 41.5v121h160v-4v-26t2 -27v-54q0 -38 4 -57l6 -24q3 -11 11 -15l12 -8l14 -2h15l14 4l5 3l8 5l8 6l10 7l21 15l32 23v-45q-60 -73 -113.5 -109t-99.5 -36q-25 0 -45 10q-19 6 -32.5 25.5t-22.5 48.5q-9 36 -9 76l-118 -92
q-38 -31 -66 -41q-18 -10 -55 -19q-21 -4 -36 -6t-28 -2q-46 0 -88 16q-42 18 -71.5 48t-49.5 73q-16 48 -16 96q0 16 2 29.5t8 34.5q6 28 19 47zM198 1380h223l113 -336h-35z" />
    <glyph glyph-name="guillemotleft" unicode="&#xab;" horiz-adv-x="1875" 
 />
    <glyph glyph-name="logicalnot" unicode="&#xac;" horiz-adv-x="1875" 
 />
    <glyph glyph-name="minus" unicode="&#xad;" horiz-adv-x="1875" 
 />
    <glyph glyph-name="registered" unicode="&#xae;" horiz-adv-x="1875" 
 />
    <glyph glyph-name="macron" unicode="&#xaf;" horiz-adv-x="1875" 
 />
    <glyph glyph-name="degree" unicode="&#xb0;" horiz-adv-x="1875" 
 />
    <glyph glyph-name="plusminus" unicode="&#xb1;" horiz-adv-x="1875" 
 />
    <glyph glyph-name="twosuperior" unicode="&#xb2;" horiz-adv-x="1875" 
 />
    <glyph glyph-name="threesuperior" unicode="&#xb3;" horiz-adv-x="1875" 
 />
    <glyph glyph-name="acute" unicode="&#xb4;" horiz-adv-x="1875" 
 />
    <glyph glyph-name="mu" unicode="&#xb5;" horiz-adv-x="1875" 
 />
    <glyph glyph-name="paragraph" unicode="&#xb6;" horiz-adv-x="909" 
d="M90 313l4 6q10 19 55 66q39 31 90 61q35 21 141 66q21 8 86.5 33.5t122.5 46.5v36q0 147 -47 197q-25 28 -62 41.5t-77 13.5q-70 0 -111 -34q-41 -39 -41 -80l3 -60q0 -19 -6 -38t-17 -33q-21 -27 -57 -27q-18 0 -33 6t-26 20l-15 31q-6 18 -6 41q0 90 90 164t254 74
q56 0 107 -9.5t98 -31.5q13 -8 25.5 -17.5t25.5 -23.5q27 -30 37 -59q7 -16 10.5 -32t3.5 -34l4 -113v-311h-160v215l-133 -49l-76 -33q-47 -23 -71 -43q-30 -20 -49 -45q-13 -15 -27 -45h-143zM90 313h143l-2 -4q-8 -34 -8 -53q0 -33 10 -64q13 -30 36 -52.5t48 -31.5
q27 -12 57 -12q41 0 95 25q74 34 120 71v121h160v-4v-26t2 -27v-54q0 -38 4 -57l6 -24q3 -11 11 -15l12 -8l8 -1l6 -1l7 1l8 1q6 0 14.5 3.5t30.5 19.5l21 15l32 23v-45q-60 -73 -113.5 -109t-99.5 -36q-25 0 -46 10.5t-32 24.5q-13 20 -22 49q-9 36 -9 76l-118 -92
q-38 -31 -66 -41q-18 -10 -55 -19q-21 -4 -36 -6t-28 -2q-46 0 -88 16q-42 18 -71.5 48t-49.5 73q-8 26 -12 49t-4 47q0 16 2 29.5t8 34.5q6 28 19 47zM292 1470q0 10 5 23l10 24q10 14 22 23l35 18l41 10q25 5 43 5l39 2q22 -3 31 -7q33 -6 49 -16q17 -6 33 -18
q11 -8 22 -23l11 -16l10 -13l12 -30l4 -31l-1 -10l-2 -8l-3 -13l-10 -28l-6 -15l-7 -14q-6 -12 -20 -29l-23 -22l-30 -27l-19 -12l-16 -10l-8 -7l-9 -6l-8 -6l-10 -6l-12 -10l-11 -10l-16 -15l-10 -12l-4 -7l-2 -5l-4 -29q0 -15 10 -29q6 -15 22 -28q15 -15 39 -27l-37 -25
l-41 23q-13 5 -26 14t-21 21q-7 5 -18 26l-10 27l-4 31q0 23 2 30q0 15 6 29l4 11l5 13l5 11l23 27q9 12 30 30q28 28 47 41l5 4l6 4l8 8l8 7l21 18l24 31q9 12 12 33v16q0 9 -2 21l-12 22q-6 8 -14 14q-11 9 -19 9l-20 4l-10 -1l-7 -1l-12 -4l-10 -7v-8q12 -18 12 -37v-13
v-8q-2 -5 -2 -7q-3 -15 -10 -21l-10 -14q-14 -11 -39 -19q-30 0 -45 3q-23 6 -39 22q-17 25 -17 49z" />
    <glyph glyph-name="cedilla" unicode="&#xb8;" horiz-adv-x="1875" 
 />
    <glyph glyph-name="onesuperior" unicode="&#xb9;" horiz-adv-x="1875" 
 />
    <glyph glyph-name="ordmasculine" unicode="&#xba;" horiz-adv-x="909" 
d="M29 342l4 6q14 28 55 66q51 39 90 63q51 27 141 66l99 38l110 42v36q0 144 -47 197q-24 27 -58.5 40t-80.5 13q-73 0 -112.5 -35t-39.5 -79l3 -60q0 -19 -6.5 -39.5t-16.5 -31.5q-22 -25 -57 -25q-14 0 -33 4q-14 6 -23.5 18t-16.5 31.5t-7 44.5q0 87 91.5 162.5
t252.5 75.5q56 0 112 -10q62 -16 93 -33q23 -12 51 -39q27 -30 36.5 -56.5t14.5 -68.5l4 -113v-313h-160v217q-16 -5 -34 -11.5t-37 -14.5l-62 -23l-32 -14l-29 -12l-15 -7q-25 -12 -71 -43q-33 -21 -49 -47q-15 -13 -27 -45h-143zM29 342h143l-2 -2q-4 -19 -6 -31t-2 -22
q0 -33 10 -64q13 -30 36 -52.5t48 -31.5q27 -12 57 -12q39 0 95 23q65 30 120 71v121h160v-28.5t2 -27.5v-55v-27t4 -28l6 -24q2 -7 11 -17l6 -3l6 -3l14 -2h15l14 4l5 3l8 5l8 6l10 7l14 9l17 13l22 16v-45q-60 -76 -111 -108q-51 -37 -102 -37q-30 0 -46.5 8.5t-31.5 26.5
q-13 20 -22 49q-9 36 -9 76l-118 -92q-38 -31 -66 -41q-26 -15 -55.5 -21t-63.5 -6q-46 0 -88 16q-37 16 -71 45q-33 37 -50 76q-16 48 -16 96q0 16 2 29.5t8 32.5q6 27 19 47zM61 1174h-32q0 70 16 124q8 27 17.5 47t23.5 37q21 29 57 48q20 8 36.5 12t37.5 4
q31 0 41.5 -2.5t38.5 -13t49 -23.5l22 -15l50 -32q37 -25 74 -43q28 -14 49 -14q18 0 30 6l9 6l9 7l9 7l23 43l6 29l10 45h31v-40q-3 -30 -4 -46q-8 -41 -19 -68q-14 -27 -33 -49q-9 -15 -41 -37q-49 -32 -94 -32q-20 0 -38 4t-50 16q-40 17 -106 61q-71 48 -86 54l-21 6
l-22 4q-40 0 -66 -39l-7 -18l-5 -17z" />
    <glyph glyph-name="guillemotright" unicode="&#xbb;" horiz-adv-x="1875" 
 />
    <glyph glyph-name="onequarter" unicode="&#xbc;" horiz-adv-x="1875" 
 />
    <glyph glyph-name="onehalf" unicode="&#xbd;" horiz-adv-x="1875" 
 />
    <glyph glyph-name="threequarters" unicode="&#xbe;" horiz-adv-x="1875" 
 />
    <glyph glyph-name="questiondown" unicode="&#xbf;" horiz-adv-x="1875" 
 />
    <glyph glyph-name="Agrave" unicode="&#xc0;" horiz-adv-x="909" 
d="M90 313l4 6q10 19 55 66q39 31 90 61q35 21 141 66q21 8 86.5 33.5t122.5 46.5v36q0 147 -47 197q-25 28 -62 41.5t-77 13.5q-70 0 -111 -34q-41 -39 -41 -82l3 -58q0 -19 -6 -38t-17 -33q-20 -27 -57 -27q-18 0 -33 6t-26 20l-15 31q-6 18 -6 41q0 90 90 164t254 74
q56 0 107 -9.5t98 -31.5q13 -8 25.5 -17.5t25.5 -23.5q27 -30 37 -59q7 -16 10.5 -32t3.5 -34l4 -113v-311h-160v215l-133 -49l-76 -33q-47 -23 -71 -43q-30 -20 -49 -45q-13 -15 -27 -45h-143zM90 313h143l-2 -4q-8 -34 -8 -53q0 -33 10 -64q13 -30 36 -52.5t48 -31.5
q27 -12 57 -12q41 0 95 25q31 13 59 29.5t61 41.5v121h160v-4v-26t2 -27v-54q0 -38 4 -57l6 -24q3 -11 11 -15l12 -8l14 -2h15l14 4l5 3l8 5l8 6l10 7l14 9l17 13l22 16v-45q-60 -73 -113.5 -109t-99.5 -36q-25 0 -45 10q-19 6 -32.5 25.5t-22.5 48.5q-9 36 -9 76l-118 -92
q-38 -31 -66 -41q-18 -10 -55 -19q-21 -4 -36 -6t-28 -2q-46 0 -88 16q-42 18 -71.5 48t-49.5 73q-16 48 -16 96q0 16 2 29.5t8 34.5q6 28 19 47zM706 1390l-303 -336h-33l111 336h225z" />
    <glyph glyph-name="Aacute" unicode="&#xc1;" horiz-adv-x="909" 
d="M90 293l4 6q15 29 55 65q11 9 39 28l51 34q55 31 141 67q125 50 209 78v39q0 144 -47 197q-24 25 -59 38q-30 15 -80 15q-69 0 -110.5 -35.5t-41.5 -79.5l3 -59q0 -20 -6 -38t-17 -34q-24 -27 -57 -27q-18 0 -32 6t-25 20.5t-17 32t-6 42.5q0 87 89 161t255 74
q56 0 111.5 -9.5t93.5 -31.5q30 -16 51 -41q23 -23 37 -57q9 -23 14 -68l4 -110v-313h-160v215q-33 -12 -68.5 -24.5t-64.5 -25.5q-23 -8 -41 -15t-35 -17q-48 -26 -71 -43q-37 -26 -49 -45q-18 -21 -27 -45h-143zM90 293h143l-2 -5q-4 -17 -6 -28t-2 -23q0 -37 10 -63
q4 -12 13 -25.5t22 -25.5q20 -24 49 -35q6 -3 23.5 -8t33.5 -5q36 0 95 25q57 27 120 72v121h160v-5v-26t2 -27v-53v-27t4 -28q0 -11 6 -25q3 -12 11 -16l7 -4l5 -2q5 -3 14 -5l7 1l8 1l14 5l31 20l53 39v-47q-59 -71 -111 -109q-55 -35 -102 -35q-27 0 -47 9.5t-31 23.5
q-13 21 -22 49q-9 41 -9 76l-118 -92q-18 -12 -37 -24q-12 -7 -29 -17q-22 -9 -55 -18q-18 -3 -34 -5t-30 -2q-46 0 -87 15t-72 47q-32 30 -50 76q-16 48 -16 96q0 17 2 30t8 31q6 28 19 48zM444 -144q45 0 80 -32q33 -33 33 -80q0 -45 -33 -79t-80 -34q-18 0 -35.5 6.5
t-42.5 26.5q-18 18 -24 37q-9 15 -9 43q0 25 7 43q11 23 24 37q37 32 80 32z" />
    <glyph glyph-name="Acircumflex" unicode="&#xc2;" horiz-adv-x="909" 
d="M90 311l4 6q14 28 55 66q49 39 90 61q23 13 58.5 30t82.5 38l99 38l110 42v36q0 144 -47 197q-23 26 -59 39q-33 14 -80 14q-70 0 -111 -35t-41 -79l3 -60q0 -19 -6 -38t-17 -33q-21 -27 -57 -27q-18 0 -33 6t-26 20l-15 31q-6 18 -6 43q0 88 90 162t254 74
q37 0 53.5 -1.5t58.5 -6.5q62 -16 93 -33q13 -8 25.5 -17.5t25.5 -23.5q23 -23 37 -57q9 -25 14 -68l4 -111v-313h-160v215l-69 -25l-64 -22q-36 -15 -39 -16q-11 -5 -37 -19q-43 -21 -71 -43q-35 -23 -49 -45q-15 -13 -27 -45h-143zM165 1358h39q14 -42 43 -82
q20 -29 58 -60q35 -21 70 -33t73 -12q37 0 76 12q43 17 67 35q31 25 58 58q30 46 41 82l45 2q-11 -78 -39.5 -139.5t-67.5 -106.5q-35 -37 -86 -62q-40 -20 -92 -20q-46 0 -94 18q-24 12 -46 28t-38 34q-35 33 -68 100q-26 68 -39 146zM90 311h143l-2 -4q-4 -17 -6 -28
t-2 -23q0 -37 10.5 -64.5t34 -50.5t50 -35t56.5 -12q41 0 95 25q65 30 120 71v121h160v-4v-26t2 -27v-54v-27t4 -28l6 -24q3 -12 11 -17l7 -4l5 -2l14 -4l7 1l8 1q6 0 14 4l31 21l14 9l17 13l22 16v-45q-60 -76 -111 -108q-51 -37 -102 -37q-30 0 -45 8q-22 11 -33 25
q-11 17 -22 49q-9 39 -9 76q-95 -75 -118 -90q-31 -26 -66 -43q-18 -10 -55 -19q-30 -6 -64 -6q-22 0 -42.5 3t-45.5 11q-42 18 -71 47q-32 32 -50 76q-16 48 -16 96q0 16 2 29.5t8 32.5q6 28 19 47zM149 1677h223l113 -336h-37z" />
    <glyph glyph-name="Atilde" unicode="&#xc3;" horiz-adv-x="909" 
d="M90 311l4 6q14 28 55 66q51 39 90 63q51 27 141 66l99 38l110 42v36q0 144 -47 197q-24 27 -58.5 40t-80.5 13q-70 0 -111 -35t-41 -79l3 -60q0 -19 -6.5 -39.5t-16.5 -31.5q-21 -27 -57 -27l-15 2l-18 4q-14 6 -23.5 18t-16.5 31.5t-7 44.5q0 87 91.5 162.5t252.5 75.5
q56 0 112 -10q62 -16 93 -33q23 -12 51 -39q24 -27 37 -59q9 -24 14 -66l4 -113v-313h-160v217q-16 -5 -34 -11.5t-37 -14.5l-62 -23l-32 -14l-29 -12l-15 -7q-25 -12 -71 -43q-33 -21 -49 -47q-15 -13 -27 -45h-143zM165 1358h39q15 -45 43 -82q25 -33 58 -60
q35 -21 70 -33t73 -12q37 0 76 12q43 17 67 35q32 26 58 60q30 40 41 80l45 2q-11 -78 -39.5 -139.5t-67.5 -106.5q-35 -37 -86 -62q-48 -20 -92 -20q-46 0 -94 18q-24 12 -46 28t-38 34q-34 34 -68 102q-25 63 -39 144zM90 311h143l-2 -4q-4 -17 -6 -28t-2 -23
q0 -33 10 -64q13 -30 36 -52.5t48 -31.5q31 -14 57 -14q33 0 95 25q65 30 120 71v121h160v-4v-26t2 -26v-55v-27t4 -28l6 -24q2 -7 11 -17l6 -3l6 -3l14 -4l7 1l8 1l14 4l5 3l8 5l8 6l10 7l14 9l17 13l22 16v-45q-60 -76 -111 -108q-51 -37 -102 -37q-30 0 -46.5 8.5
t-31.5 26.5q-13 19 -22 47q-9 39 -9 78l-118 -92q-38 -31 -66 -41q-26 -15 -55.5 -21t-63.5 -6q-46 0 -88 16q-37 16 -71 45q-32 32 -50 76q-16 48 -16 96q0 16 2 29.5t8 32.5q6 27 19 47zM311 1777q0 11 4 23q3 14 12 27q5 11 21 20q15 12 37 18q15 6 41 11l43 6h38h12.5
t17.5 -4l28 -9l22 -8l19 -10l14 -8l13 -14l9 -12l19 -25q8 -14 12 -31l4 -31l-2 -15l-2 -15q-2 -12 -10 -31q-3 -13 -14 -29l-9 -12l-10 -14l-14 -14l-10 -9q-6 -10 -31 -27l-18 -12l-17 -12l-16 -12q-5 -6 -17 -13l-24 -18l-15 -15l-4 -6l-6 -6l-4 -6l-4 -8l-2 -27
q0 -11 8 -30q4 -15 23 -29q23 -18 39 -27l-37 -22l-41 20l-15 9l-12 8l-20 18l-17 29l-10 26l-4 18l-2 13q0 23 2.5 37t7.5 20q6 22 13.5 36t21.5 28l31 28q15 17 47 44l12 8l15 12q7 3 20 20l13 15l14 16l10 31v18q0 11 -2 21l-12 22l-15 15l-18 8l-19 2q-14 0 -18 -2
l-12 -4l-9 -6l-2 -7q15 -23 15 -36q0 -22 -4 -29l-11 -23q-3 -9 -10 -10q-11 -15 -37 -20h-45q-22 6 -39 24q-18 23 -18 47z" />
    <glyph glyph-name="Adieresis" unicode="&#xc4;" horiz-adv-x="909" 
d="M90 311l4 8q13 22 55 66q39 31 90 61q35 21 141 66q14 6 113 43q48 18 96 37v36q0 147 -47 197q-24 27 -58.5 40t-80.5 13q-73 0 -112.5 -35t-39.5 -79l3 -60q0 -21 -6.5 -38.5t-16.5 -32.5q-22 -25 -57 -25q-18 0 -31.5 5t-24.5 18.5t-17.5 31t-6.5 43.5q0 89 92 163.5
t252 74.5q56 0 112 -10q61 -16 92 -34q31 -15 52 -38q27 -30 36.5 -56.5t14.5 -68.5l4 -113v-313h-160v217l-133 -49l-32 -14l-29 -12l-15 -7q-25 -12 -71 -43q-30 -20 -49 -45q-16 -17 -27 -47h-143zM165 1358h39q15 -45 43 -82q25 -33 58 -60q35 -21 70 -33t73 -12
q25 0 76 12q42 17 67 37q31 22 59.5 60t39.5 78l45 2q-11 -78 -40.5 -140.5t-67.5 -104t-85.5 -62.5t-91.5 -21q-51 0 -96.5 20.5t-80.5 57t-69 104.5q-25 63 -39 144zM90 311h143l-2 -2q-8 -34 -8 -53q0 -33 10 -64q13 -30 36 -52.5t48 -31.5q27 -12 57 -12q39 0 95 23
q65 31 120 73v119h160v-28.5t2 -27.5v-53q0 -38 4 -57l6 -24q3 -11 11 -15l12 -8l14 -2h15l14 4l5 3l8 5l8 6l10 7l14 9l17 13l22 16v-45q-66 -79 -111 -108q-51 -37 -102 -37q-30 0 -46.5 8.5t-31.5 26.5q-13 20 -22 49q-9 36 -9 76l-118 -92q-38 -31 -66 -41
q-18 -10 -55 -19q-14 -4 -28.5 -6t-35.5 -2q-46 0 -88 16q-42 18 -71 47q-32 32 -50 74q-16 48 -16 96q0 16 2 29.5t8 32.5q6 27 19 47zM213 1442h-33q0 71 16 122q12 53 41 86q24 30 59 47t72 17h13t25.5 -3.5t35.5 -10.5l23 -11l32 -16l72 -47q37 -26 74 -41
q31 -17 49 -17q10 0 26.5 7.5t30.5 21.5q8 9 21 43q15 53 18 74h31q0 -48 -6 -86q-2 -17 -5 -30t-12.5 -38t-32.5 -49q-16 -22 -40 -39q-45 -30 -95 -30q-24 0 -42.5 4t-44 15t-47.5 23t-62 37q-46 35 -84 54l-23 8l-20 2q-41 0 -66 -37l-7 -18l-5 -17z" />
    <glyph glyph-name="Aring" unicode="&#xc5;" horiz-adv-x="909" 
d="M90 311l4 6q14 28 55 66q51 39 90 63q51 27 141 66l99 38l110 42v36q0 144 -47 197q-24 27 -58.5 40t-80.5 13q-73 0 -112.5 -35t-39.5 -79l3 -60q0 -19 -6.5 -39.5t-16.5 -31.5q-22 -25 -57 -25q-14 0 -33 4q-14 6 -23.5 18t-16.5 31.5t-7 44.5q0 90 91.5 164t252.5 74
q56 0 112 -10q62 -16 93 -33q23 -12 51 -39q27 -30 36.5 -56.5t14.5 -68.5l4 -113v-313h-160v217q-16 -5 -34 -11.5t-37 -14.5l-62 -23l-32 -14l-29 -12l-15 -7q-25 -12 -71 -43q-33 -21 -49 -47q-15 -13 -27 -45h-143zM165 1358h39q15 -45 43 -82q25 -33 58 -60
q35 -21 70 -33t73 -12q37 0 76 12q43 17 67 35q32 26 58 60q30 40 41 80l45 2q-11 -78 -40.5 -140.5t-67.5 -104t-85.5 -62.5t-91.5 -21q-46 0 -94 18q-24 12 -46 28t-38 34q-34 34 -68 102q-25 63 -39 144zM90 311h143l-2 -2q-4 -19 -6 -31t-2 -22q0 -33 10 -64
q13 -30 36 -52.5t48 -31.5q27 -12 57 -12q39 0 95 23q65 31 120 73v119h160v-28.5t2 -27.5v-55v-27t4 -28l6 -24q2 -7 11 -17l6 -3l6 -3l14 -2h15l14 4l5 3l8 5l8 6l10 7l14 9l17 13l22 16v-45q-60 -76 -111 -108q-51 -37 -102 -37q-30 0 -46.5 8.5t-31.5 26.5
q-13 20 -22 49q-9 36 -9 76l-118 -92q-38 -31 -66 -41q-26 -15 -55.5 -21t-63.5 -6q-46 0 -88 16q-37 16 -71 45q-33 37 -50 76q-16 48 -16 96q0 16 2 29.5t8 32.5q6 27 19 47zM755 1702l-303 -336h-35l113 336h225z" />
    <glyph glyph-name="AE" unicode="&#xc6;" horiz-adv-x="909" 
d="M90 304l4 6q11 20 55 65q11 9 39 28l51 34q40 24 141 65q86 36 209 80v37q0 147 -47 197q-24 27 -60.5 41t-78.5 14q-70 0 -111 -35q-41 -39 -41 -82l3 -57q0 -20 -7 -41q-3 -13 -16 -33q-22 -25 -57 -25q-19 0 -33 7q-11 4 -25 18q-11 18 -16.5 34.5t-5.5 39.5
q0 87 89 162t255 75q56 0 112 -10q23 -4 45.5 -11t50 -21.5t48.5 -39.5q27 -30 36.5 -56t14.5 -69l4 -112v-311h-160v215q-33 -12 -68.5 -24.5t-64.5 -25.5l-76 -32q-48 -26 -71 -43q-32 -23 -48 -43t-28 -47h-143zM165 1348h39q15 -41 43 -82q29 -38 58 -57
q9 -7 28.5 -16.5t40.5 -18.5q36 -12 74 -12q25 0 76 12q50 23 67 37q32 24 58 57q30 45 41 80l45 2q-12 -80 -40.5 -142.5t-66.5 -101.5q-45 -45 -86 -61q-22 -11 -45 -17t-47 -6q-50 0 -94 21q-46 19 -83 57t-69 105q-26 64 -39 143zM90 304h143l-2 -5q-8 -34 -8 -53
q0 -34 10 -63q11 -26 35 -52q21 -21 49 -32q6 -3 23.5 -8t33.5 -5q36 0 93.5 24t121.5 73v121h160v-5v-26.5t2 -26.5v-53q0 -38 4 -57l6 -25q3 -9 11 -14l6 -5l6 -4l14 -2h15l14 5l5 3l8 5l8 6l10 6l53 39v-45q-59 -71 -111 -109q-59 -37 -102 -37q-24 0 -45 11
q-18 6 -33 24q-13 21 -22 49q-9 38 -9 76l-118 -92q-38 -31 -63 -40.5t-58 -18.5q-47 -9 -64 -9q-20 0 -43 4t-45 13q-40 15 -71.5 47t-49.5 74q-16 48 -16 96q0 17 2 30t8 31q6 27 19 50zM444 -135q47 0 80 -30q33 -33 33 -80q0 -45 -31.5 -79t-81.5 -34q-16 0 -23 1t-18 7
q-21 9 -38 26t-23 36q-9 15 -9 43q0 14 1 21t6 22q9 19 24 34q33 33 80 33z" />
    <glyph glyph-name="Ccedilla" unicode="&#xc7;" horiz-adv-x="909" 
d="M82 342l4 6q14 28 55 66q47 38 90 63q56 30 142 66q24 8 37.5 13t31.5 13l56 22l84 32v36q0 141 -47 197q-26 29 -59.5 41t-80.5 12q-74 0 -110 -35q-41 -33 -41 -79l2 -60q0 -20 -6 -41q-3 -7 -7 -14.5t-10 -15.5q-21 -27 -57 -27l-15 2l-18 4q-13 5 -24 21
q-4 4 -8 11.5t-9 18.5q-6 18 -6 43q0 87 92 162.5t252 75.5q56 0 113 -10q59 -16 89 -32t54 -40q24 -27 37 -59q9 -24 14 -66l4 -113v-313h-159v217l-74 -26l-59 -23l-47 -20l-29 -13q-29 -13 -72 -43q-35 -24 -49 -47q-15 -15 -27 -45h-143zM342 1360h182l191 -336h-33
l-264 209l-234 -209h-30zM82 342h143l-2 -4q-4 -17 -6 -28t-2 -23q0 -33 10 -64q13 -30 36 -52.5t48 -31.5q27 -12 58 -12q38 0 94 23q31 14 60.5 31t60.5 40v121h159v-4v-26t2 -26v-55q0 -18 1 -32t4 -23l6 -24q1 -8 10 -17l6 -3l6 -3l15 -2h14l14 4l8 5l10 6l13 10l15 10
l21 15l17 13v-45q-61 -76 -110 -108q-24 -17 -51 -27t-52 -10q-30 0 -45 8t-33 27q-13 19 -22 47q-8 46 -8 78l-119 -92q-40 -31 -66 -41q-26 -15 -55.5 -21t-62.5 -6q-45 0 -89 16q-37 16 -71 45q-32 33 -49 77.5t-17 94.5q0 16 2 29.5t8 32.5q6 27 19 47zM0 1757h223
l113 -336h-37z" />
    <glyph glyph-name="Egrave" unicode="&#xc8;" horiz-adv-x="909" 
d="M90 311l4 8q10 19 55 66q39 31 90 61q35 21 141 66q14 6 113 43q48 18 96 37v36q0 147 -47 197q-25 28 -62 41.5t-77 13.5q-70 0 -111 -34q-41 -39 -41 -82l3 -58q0 -21 -6.5 -39.5t-16.5 -33.5q-22 -25 -57 -25q-18 0 -31.5 5t-24.5 18.5t-17.5 31t-6.5 43.5
q0 90 90 164t254 74q56 0 109 -10t96 -33q24 -10 51 -39.5t37 -58.5q7 -16 10.5 -32t3.5 -34l4 -113v-313h-160v217l-133 -49l-76 -33q-25 -12 -71 -43q-30 -20 -49 -45q-16 -17 -27 -47h-143zM350 1329h182l191 -336h-33l-264 209l-234 -209h-31zM90 311h143l-2 -2
q-8 -34 -8 -53q0 -33 10 -64q13 -30 36 -52.5t48 -31.5q27 -12 57 -12q41 0 95 25q31 13 59 29.5t61 41.5v119h160v-28.5t2 -27.5v-53q0 -38 4 -57l6 -24q3 -11 11 -15l12 -8l14 -2h15l14 4l5 3l8 5l8 6l10 7l14 9l17 13l22 16v-45q-60 -73 -111 -109t-102 -36q-14 0 -22 1
t-23 7q-18 9 -33 27q-13 20 -22 49q-9 36 -9 76l-118 -92q-38 -31 -66 -41q-18 -10 -55 -19q-21 -4 -36 -6t-28 -2q-46 0 -88 16q-42 18 -71 47q-32 32 -50 74q-16 48 -16 96q0 16 2 29.5t8 32.5q6 30 19 47zM342 1847q0 16 2.5 25.5t12 22.5t21.5 22q22 14 35 18l41 10
l43 4l39 2q19 0 31 -4q30 -9 49 -18l33 -18l22 -23q12 -15 19 -29q6 -8 8.5 -14.5t5.5 -13.5l4 -33l-6 -29l-10 -31l-15 -28q-6 -15 -18 -27l-25 -24q-5 -8 -30 -25l-9 -7l-8 -7l-18 -11l-16 -12l-17 -12q-16 -11 -22 -21l-17 -14l-6 -6l-4 -4l-6 -15l-4 -28q0 -10 8 -29
l22 -29l39 -26l-36 -23l-39 19q-15 8 -29 18l-21 19l-16 26l-10 27l-4 17l-2 14q0 23 2 30q3 21 8 29l4 11l5 13l5 11q4 11 21 28l14 14l16 15l25 22l23 19l5 4l7 6q7 3 16 13l21 20l9 11l15 20q9 13 11 28v41l-13 21q-6 9 -16 16l-17 9l-10 1l-10 1l-9 -1l-7 -1
q-11 -3 -15 -5l-8 -6v-6q12 -21 12 -37v-14q0 -8 -2.5 -17t-9.5 -20q-3 -7 -10 -12q-20 -16 -39 -19h-45q-22 6 -39 23q-16 19 -16 49z" />
    <glyph glyph-name="Eacute" unicode="&#xc9;" horiz-adv-x="909" 
d="M90 311l4 6q14 28 55 66q36 33 88.5 61.5t142.5 67.5l99 38l110 42v36q0 144 -47 197q-24 27 -58.5 40t-80.5 13q-73 0 -112.5 -35t-39.5 -79l3 -60q0 -21 -6.5 -38.5t-16.5 -32.5q-22 -25 -57 -25q-14 0 -28.5 3.5t-29.5 21.5q-9 12 -15.5 29.5t-6.5 43.5q0 90 91.5 164
t252.5 74q56 0 112 -10q62 -16 93 -33q23 -12 51 -39q27 -30 36.5 -56.5t14.5 -68.5l4 -113v-313h-160v217q-16 -5 -34 -11.5t-37 -14.5l-62 -23l-32 -14l-29 -12l-15 -7q-25 -12 -71 -43q-33 -21 -49 -47q-15 -13 -27 -45h-143zM350 1329h182l191 -336h-33l-264 209
l-234 -209h-31zM90 311h143l-2 -2q-8 -34 -8 -53q0 -33 10 -64q13 -30 36 -52.5t48 -31.5q27 -12 57 -12q39 0 95 23q65 31 120 73v119h160v-28.5t2 -27.5v-55v-27t4 -28l6 -24q3 -11 11 -15l12 -8l14 -2h15l14 4l5 3l8 5l8 6l10 7l14 9l17 13l22 16v-45q-60 -76 -111 -108
q-51 -37 -102 -37q-30 0 -46.5 8.5t-31.5 26.5q-13 20 -22 49q-9 36 -9 76l-118 -92q-38 -31 -66 -41q-26 -15 -55.5 -21t-63.5 -6q-46 0 -88 16q-42 18 -71 47q-32 32 -50 74q-16 48 -16 96q0 16 2 29.5t8 32.5q6 27 19 47zM167 1405h-32q0 59 15.5 118t41.5 88
q20 29 59 50q38 16 72 16h13t25 -3.5t38 -10.5l55 -27l72 -47q43 -29 72 -41q28 -14 51 -14q14 0 28 6q12 3 27 20q8 8 23 43q10 36 16 74h33q0 -47 -5.5 -84t-19.5 -70q-15 -30 -31 -49q-21 -25 -43 -37q-49 -32 -92 -32q-21 0 -40 4t-48 16q-33 12 -108 60q-50 35 -84 53
l-23 8l-20 4q-39 0 -66 -39q-6 -9 -12 -35l-9 -35z" />
    <glyph glyph-name="Ecircumflex" unicode="&#xca;" horiz-adv-x="909" 
d="M88 311l4 6q15 31 55 66q51 41 92 61q38 22 139 68l82 31l74 28l53 19v38q0 147 -47 197q-28 28 -59 39q-33 14 -80 14q-70 0 -111 -35t-41 -79l2 -60q0 -20 -6 -41q0 -7 -7 -17l-7 -13q-24 -27 -59 -27q-18 0 -33 6t-26 20l-15 31q-6 18 -6 43q0 87 91 161.5t253 74.5
q56 0 112.5 -11t92.5 -30q13 -8 25.5 -17.5t25.5 -23.5q17 -14 37 -57q9 -25 14 -68q2 -18 3 -41t1 -70v-313h-160v215l-133 -49q-38 -13 -78.5 -33.5t-68.5 -42.5q-29 -19 -49 -45q-16 -18 -27 -45h-143zM348 1329h182l190 -336h-30l-267 207l-233 -207h-29zM88 311h143v-4
q-10 -30 -10 -51q0 -37 10 -64q13 -30 35 -51q26 -26 51 -36.5t55 -10.5q41 0 95 25q65 30 120 71v121h160v-4v-26t2 -27v-54l4 -55l6 -24q3 -12 11 -17l7 -4l5 -2l14 -4l7 1l8 1q6 0 14 4l31 21l14 9l17 13l22 16v-47q-54 -69 -111 -108q-53 -35 -102 -35q-30 0 -45 8
q-22 11 -33 25q-13 20 -22 49q-9 39 -9 76l-118 -92q-22 -15 -35.5 -24t-31 -18t-54.5 -18q-30 -6 -64 -6q-26 0 -47 3t-41 11q-42 17 -73 48.5t-48 74.5q-14 42 -14 96q0 38 8 62q6 28 19 47zM935 1718l-301 -336h-34l112 336h223z" />
    <glyph glyph-name="Edieresis" unicode="&#xcb;" horiz-adv-x="909" 
d="M90 304l4 6q15 29 55 65q11 9 39 28l51 34q58 33 142.5 67t207.5 78v37q0 146 -47 199q-24 25 -60.5 39t-78.5 14q-69 0 -110.5 -35.5t-41.5 -79.5l3 -59q0 -20 -6 -38t-17 -34q-24 -27 -57 -27q-18 0 -32 6t-25 20.5t-17 32t-6 40.5q0 87 89 162t255 75q56 0 112 -10
q23 -4 45.5 -11t50 -21.5t48.5 -39.5q27 -30 36.5 -56t14.5 -69l4 -112v-311h-160v215q-33 -12 -68.5 -24.5t-64.5 -25.5l-76 -32q-48 -26 -71 -43q-32 -23 -49.5 -44.5t-26.5 -45.5h-143zM350 1321h182l191 -336h-33l-264 207l-234 -207h-31zM90 304h143l-2 -5
q-8 -34 -8 -53q0 -34 11.5 -63t33.5 -49q20 -24 49 -35q6 -3 23.5 -8t33.5 -5q36 0 95 25q68 32 120 72v121h160v-5v-26t2 -27v-53q0 -17 0.5 -29.5t3.5 -25.5q0 -9 6 -27q3 -9 11 -14l6 -5l6 -4l8 -1l6 -1l7 1l8 1l14 5l9 5l22 13l21 16l32 23v-45q-59 -71 -111 -109
q-59 -37 -102 -37q-9 0 -20 1.5t-28 10.5t-30 23q-13 21 -22 49q-9 38 -9 76l-118 -92q-10 -7 -35 -22.5t-31 -18.5q-22 -9 -55 -18q-47 -9 -64 -9q-20 0 -43 4t-45 13q-40 15 -71 47q-32 30 -50 76q-8 25 -12 46t-4 48q0 16 2 30t8 33q6 28 19 48zM444 -133q45 0 80 -32
q33 -33 33 -80q0 -45 -31.5 -79t-81.5 -34q-18 0 -41 8q-21 9 -38 26t-23 36q-9 15 -9 43q0 25 7 43q12 23 24 34q35 35 80 35z" />
    <glyph glyph-name="Igrave" unicode="&#xcc;" horiz-adv-x="909" 
d="M135 751q19 33 45 62q57 63 130.5 97t170.5 34q149 0 250 -105q33 -36 59 -88h-188l-2 2q-7 20 -29 54q-15 16 -43 39q-18 12 -49.5 23t-52.5 11q-40 0 -78 -16q-29 -15 -68 -51q-27 -33 -43 -62h-102zM135 751h102q-3 -13 -8 -20q-20 -56 -25 -107h416q0 48 -6 78
l-12 49h188q4 -6 14 -34q25 -70 25 -156h-625q0 -93 27 -180q20 -79 74 -138q47 -55 107 -84.5t130 -29.5q53 0 86 10q31 6 72 31q29 17 59.5 62t53.5 104l16 -19q-9 -69 -40 -131.5t-81 -112.5q-56 -57 -112 -77q-65 -27 -140 -27t-145.5 30t-132.5 97q-117 132 -117 348
q0 187 74 307zM198 1380h223l113 -336h-37z" />
    <glyph glyph-name="Iacute" unicode="&#xcd;" horiz-adv-x="909" 
d="M135 751q19 33 45 62q57 63 130.5 97t170.5 34q149 0 250 -105q33 -36 59 -88h-188l-2 2q-7 20 -29 54q-15 16 -43 39q-30 18 -51 24q-30 10 -51 10q-40 0 -78 -16q-29 -15 -68 -51q-24 -24 -43 -62h-102zM135 751h102q-3 -13 -8 -20q-20 -56 -25 -107h416q0 48 -6 78
l-12 49h188q4 -6 14 -34q25 -70 25 -156h-625q0 -93 27 -180q20 -79 74 -138q47 -55 107 -84.5t130 -29.5q23 0 41.5 2t48 9t68.5 32q28 15 59 60t54 104l16 -19q-9 -69 -40 -131.5t-81 -112.5q-56 -57 -112 -77q-65 -27 -140 -27t-145 29.5t-133 99.5q-117 129 -117 346
q0 187 74 307zM292 1470q0 17 2 23l6 11l7 13q6 13 22 23q17 13 35 18l41 10q25 5 43 5l39 2q22 -3 31 -7q28 -6 49 -16l33 -18q11 -8 22 -23l19 -29q9 -15 12 -30l4 -31l-4 -31l-10 -28q0 -5 -14 -28t-21 -30l-10 -10l-11 -12q-18 -18 -32 -27l-11 -7l-6 -5l-18 -10
l-15 -13l-9 -6l-9 -6l-8 -7l-8 -6l-9 -7l-14 -15l-10 -12q-6 -6 -6 -12l-4 -29q0 -15 10 -29q6 -15 22 -28q14 -14 37 -27l-35 -25l-41 23l-12 6l-16 8q-8 5 -19 21q-7 5 -18 26l-10 27l-4 31v30q0 13 8 29l4 11l5 13l5 11q6 12 21 27l29 29q30 30 48 42l7 4l6 4l8 8l8 7
l21 18l16 21l8 10l12 33v16q0 9 -2 21l-12 22q-6 8 -14 14q-11 9 -21 9l-18 4l-10 -1l-9 -1l-12 -4l-8 -7l-2 -8q14 -22 14 -37v-13v-8q-2 -5 -2 -7q-3 -15 -10 -21l-10 -14q-12 -8 -39 -19q-30 0 -45 3q-23 6 -39 22q-17 20 -17 49z" />
    <glyph glyph-name="Icircumflex" unicode="&#xce;" horiz-adv-x="909" 
d="M135 751q24 38 45 60q56 65 134 99t167 34q149 0 250 -105q36 -43 59 -88h-188l-2 2q-2 5 -10.5 21t-18.5 31l-43 41q-18 12 -51 24q-24 8 -51 8q-40 0 -78 -16q-31 -13 -68 -51q-24 -26 -43 -60h-102zM135 751h102q-5 -16 -8 -20q-12 -33 -18.5 -59.5t-6.5 -49.5h416
q0 45 -6 80l-12 49h188l14 -34q25 -73 25 -158h-625q0 -90 27 -180q18 -74 74 -138q45 -51 108 -86q65 -28 129 -28q45 0 86 12q40 9 72 31q32 19 61 61.5t52 104.5l16 -19q-9 -73 -41 -131q-16 -33 -34 -59.5t-46 -55.5q-54 -56 -112 -75q-57 -27 -140 -27t-149.5 30
t-128.5 97q-117 129 -117 346q0 186 74 309zM120 1143h-30q0 33 3 62.5t11 59t17.5 49.5t23.5 37q28 32 59 48q38 16 72 16q30 0 38 -2q11 -1 38 -12q27 -9 53 -25q9 -4 31 -20l43 -27q31 -24 71 -43q30 -14 52 -14q15 0 30 6l13 10l12 10q11 14 23.5 48.5t15.5 68.5h33
q0 -48 -6 -86q-8 -41 -19 -68q-17 -33 -31 -49q-9 -11 -17.5 -18.5t-23.5 -18.5q-49 -32 -94 -32q-21 0 -40 4t-48 16q-51 22 -108 61l-84 54l-13 4l-10 2l-20 4q-40 0 -66 -39q-6 -9 -12 -35l-9 -35z" />
    <glyph glyph-name="Idieresis" unicode="&#xcf;" horiz-adv-x="909" 
d="M135 751q19 33 45 62q57 63 130.5 97t170.5 34q149 0 250 -105q33 -36 59 -88h-188l-2 2q-7 20 -29 54q-15 16 -43 39q-18 12 -49.5 23t-52.5 11q-40 0 -78 -16q-29 -15 -68 -51q-27 -33 -43 -62h-102zM135 751h102q-3 -13 -8 -20q-20 -56 -25 -107h416q0 48 -6 78
l-12 49h188q4 -6 14 -34q25 -70 25 -156h-625q0 -93 27 -180q20 -79 74 -138q47 -55 107 -84.5t130 -29.5q53 0 86 10q31 6 72 31q29 17 59.5 62t53.5 104l16 -19q-9 -69 -40 -131.5t-81 -112.5q-56 -57 -112 -77q-65 -27 -140 -27t-145.5 30t-132.5 97q-117 132 -117 348
q0 187 74 307zM704 1390l-301 -336h-35l113 336h223z" />
    <glyph glyph-name="Eth" unicode="&#xd0;" horiz-adv-x="1875" 
 />
    <glyph glyph-name="Ntilde" unicode="&#xd1;" horiz-adv-x="909" 
d="M135 731q25 39 45 61q63 69 135 100t166 31q149 0 250 -102q35 -43 59 -90h-188l-2 4q-7 14 -12.5 24.5t-16.5 26.5q-11 13 -43 41l-51 25q-24 8 -51 8q-43 0 -80 -18.5t-66 -49.5q-23 -23 -43 -61h-102zM135 731h102q-5 -17 -8 -21q-11 -28 -18 -55t-7 -51h416
q0 45 -6 78l-12 49h188l14 -35q25 -69 25 -156h-625q0 -93 27 -180q18 -72 74 -137q47 -55 108 -86q64 -29 129 -29q23 0 41.5 2t44.5 8q44 15 72 33q35 23 61.5 62.5t51.5 101.5l16 -18q-9 -72 -41 -132.5t-80 -111.5q-53 -56 -115.5 -79.5t-136.5 -23.5q-78 0 -148 30.5
t-130 96.5q-117 129 -117 347q0 187 74 307zM444 -144q45 0 78 -32.5t33 -79.5q0 -45 -31 -80q-36 -33 -80 -33q-13 0 -19.5 1.5t-23.5 6.5l-18 12l-19 13q-14 14 -22 37q-11 19 -11 43q0 19 9 43q11 23 24 37q34 32 80 32z" />
    <glyph glyph-name="Ograve" unicode="&#xd2;" horiz-adv-x="909" 
d="M127 751l45 60q56 65 134 99t167 34q149 0 250 -105q36 -43 59 -88h-188l-2 2q-10 25 -29 52q-11 13 -43 41q-18 12 -51 24q-22 8 -51 8q-39 0 -78 -16q-31 -13 -68 -51q-21 -23 -43 -60h-102zM350 1329h185l188 -336h-31l-266 209l-233 -209h-31zM127 751h102
q-5 -16 -8 -20q-11 -30 -17.5 -57.5t-6.5 -51.5h415q0 45 -6 80l-12 49h188l15 -34q24 -72 24 -158h-624q0 -96 26 -180q21 -77 74 -138q47 -53 109 -86q64 -28 129 -28q44 0 86 12q39 9 71 31q31 19 62.5 65.5t50.5 100.5l16 -19q-9 -73 -41 -131q-16 -33 -34 -59.5
t-46 -55.5q-51 -56 -112 -75q-57 -27 -139 -27q-85 0 -151 30t-128 97q-117 129 -117 346q0 186 74 309zM0 1726h223l111 -336h-35z" />
    <glyph glyph-name="Oacute" unicode="&#xd3;" horiz-adv-x="909" 
d="M135 751q18 30 45 60q56 65 134 99t167 34q149 0 250 -105q33 -36 59 -88h-188l-2 2q-5 12 -12 25.5t-17 28.5q-15 16 -43 39q-18 12 -49.5 23t-52.5 11q-42 0 -78 -18q-31 -13 -68 -51q-24 -26 -43 -60h-102zM358 1329h184l189 -336h-31l-266 209l-234 -209h-30z
M135 751h102q-5 -16 -8 -20q-20 -56 -25 -107h416q0 45 -6 78l-12 49h188q4 -6 14 -34q25 -70 25 -158h-625q0 -91 27 -178q20 -79 74 -138q47 -55 107 -84.5t130 -29.5q53 0 86 10q31 6 72 31q29 17 61 63q29 41 52 103l16 -19q-9 -73 -41 -131q-30 -63 -80 -113
q-56 -57 -112 -77q-57 -27 -140 -27q-75 0 -145.5 30t-132.5 97q-117 129 -117 348q0 187 74 307zM342 1847v23l6 12l6 12q5 6 11 12t13 11q22 14 35 18l39 10l43 4l39 2q18 0 33 -4q30 -9 52 -19.5t28 -16.5l22 -23l19 -29q6 -8 8.5 -14.5t5.5 -13.5l4 -33q0 -13 -4 -29
l-10 -31l-15 -28q-5 -10 -9 -15.5t-11 -11.5q-9 -12 -23 -24q-9 -11 -30 -25l-19 -14l-8 -6l-8 -5l-16 -12l-17 -12q-12 -6 -24 -21l-17 -14l-6 -6l-4 -4l-4 -15q-1 -2 -2.5 -8.5t-1.5 -19.5q0 -10 7 -26t23 -32q7 -6 17 -13q6 -4 22 -13l-36 -23l-39 19q-17 8 -29 18
l-21 19q-7 7 -18 26l-10 27l-4 31v30l10 29l4 11l5 13l5 11q6 16 19 28l30 29l26 22l24 19l6 5l4 5q7 3 16 13q13 8 21 20q10 10 24 31q7 8 13 28q0 26 -2.5 38.5t-10.5 23.5l-7 7l-9 9l-19 9l-8 1l-10 1l-9 -1l-7 -1q-11 -3 -15 -5t-6 -3.5t-2 -2.5l-2 -6q14 -25 14 -37
v-14v-8q-2 -5 -2 -7l-12 -22l-8 -12q-19 -14 -39 -19h-47q-11 3 -18.5 7.5t-18.5 15.5q-16 19 -16 49z" />
    <glyph glyph-name="Ocircumflex" unicode="&#xd4;" horiz-adv-x="909" 
d="M135 751q18 30 45 60q56 65 134 99t167 34q149 0 250 -105q36 -43 59 -88h-188l-2 2q-2 5 -10.5 21t-18 29.5t-20.5 22.5l-23 20q-18 12 -51 24q-24 8 -51 8q-40 0 -78 -16q-31 -13 -68 -51q-24 -26 -43 -60h-102zM358 1329h184l189 -336h-31l-266 209l-234 -209h-30z
M135 751h102q-5 -16 -8 -20q-12 -30 -18.5 -56.5t-6.5 -52.5h416q0 45 -6 80l-12 49h188l14 -34q25 -73 25 -158h-625q0 -90 27 -180q20 -75 74 -138q48 -54 108 -84t129 -30q45 0 86 12q31 6 72 31q32 19 61 61.5t52 104.5l16 -19q-9 -73 -41 -131q-16 -33 -34 -59.5
t-46 -55.5q-54 -56 -112 -75q-57 -27 -140 -27t-149.5 30t-128.5 97q-117 129 -117 348q0 92 18 168t56 139zM167 1405h-32q0 59 15.5 118t41.5 88q20 29 59 50q35 16 72 16h13t26.5 -3.5t36.5 -10.5l53 -27q18 -10 34.5 -20.5t37.5 -26.5q50 -31 74 -41q28 -14 49 -14
q18 0 30 6q12 3 27 20l23 43q10 36 16 74h33l-1 -28l-2 -25l-3 -33q-5 -35 -19 -68q-15 -31 -33 -49q-18 -24 -41 -37q-49 -32 -94 -32q-20 0 -38 4t-50 16q-28 9 -106 60q-58 40 -86 53l-21 8l-22 4q-39 0 -66 -39l-7 -18l-5 -17z" />
    <glyph glyph-name="Otilde" unicode="&#xd5;" horiz-adv-x="909" 
d="M135 749q8 15 18 28.5t27 33.5q62 68 133.5 99.5t165.5 31.5q150 0 250 -103q37 -40 59 -90h-188v4q-7 14 -15 28t-17 24q-13 17 -42 41l-19 10l-14 7l-16 7q-13 4 -25 6t-29 2q-40 0 -76.5 -17t-68.5 -50q-30 -36 -41 -62h-102zM358 1329h182l189 -336h-31l-266 207
l-232 -207h-30zM135 749h102l-4 -10l-4 -10q-13 -29 -19 -53.5t-6 -53.5h416l-6 78q-3 16 -4.5 20.5l-9.5 28.5h188l14 -32q27 -75 27 -158h-625q0 -101 25 -180q21 -74 76 -138q49 -57 109.5 -85.5t125.5 -28.5q23 0 41.5 2t44.5 8q44 12 72 33q33 21 61 61q23 32 54 103
l16 -19q-12 -66 -43 -131q-23 -49 -78 -113q-50 -51 -114 -76.5t-138 -25.5q-43 0 -78 7t-73 24q-71 31 -127 96q-117 129 -117 346q0 187 74 307zM935 1718l-301 -336h-34l112 336h223z" />
    <glyph glyph-name="Odieresis" unicode="&#xd6;" horiz-adv-x="909" 
d="M135 752q25 39 45 61q57 63 135 99q72 32 166 32q150 0 250 -104q34 -39 59 -88h-188l-2 2q-11 26 -29 53q-19 22 -43 39q-27 17 -54 26t-48 9q-43 0 -77.5 -17t-68.5 -51q-23 -23 -43 -61h-102zM358 1331h184l189 -336h-31l-266 207l-234 -207h-30zM135 752h102
q-5 -17 -8 -21q-20 -54 -25 -106h416q0 45 -6 78l-12 49h188l14 -35q25 -69 25 -156h-625q0 -93 27 -180q20 -77 74 -137q47 -55 106.5 -85t130.5 -30q23 0 41.5 2t44.5 8q44 15 72 33q35 23 61.5 62.5t51.5 101.5l16 -18q-9 -72 -41 -132.5t-80 -111.5q-53 -56 -112 -78
q-69 -27 -140 -27t-149 31q-68 31 -129 98q-117 129 -117 347q0 187 74 307zM444 -123q45 0 78 -32.5t33 -79.5q0 -45 -31 -80q-33 -33 -80 -33q-13 0 -19.5 1.5t-23.5 6.5q-17 9 -37 25q-14 14 -22 37q-11 19 -11 43q0 19 9 43q12 23 24 34q32 35 80 35z" />
    <glyph glyph-name="multiply" unicode="&#xd7;" horiz-adv-x="1875" 
 />
    <glyph glyph-name="Oslash" unicode="&#xd8;" horiz-adv-x="569" 
d="M346 944v-735v-45q3 -20 5 -40t9 -34l17 -27l20 -18l11 -3l12 -3q8 0 12 -2l60 -4v-33h-449v33h28h17q9 2 12 2q24 3 34.5 9t21.5 17l16 27q10 27 10 47q2 12 3 27t1 47v350q0 162 -8 199l-4 15l-4 11q-1 8 -12 19l-17 8l-22 4l-29 -4l-35 -10l-12 30l262 113h41z
M41 1393h223l113 -336h-37z" />
    <glyph glyph-name="Ugrave" unicode="&#xd9;" horiz-adv-x="569" 
d="M344 944v-737q0 -35 3.5 -69t10.5 -48q4 -8 8 -14.5t9 -12.5q10 -13 21 -18t34 -10l60 -4v-31h-449v31h35q15 3 30.5 5t26.5 9l21 16l16 27q10 27 10 45q2 15 3 29t1 45v352q0 161 -8 197l-4 16l-4 12q-1 5 -12 17q-6 7 -17 8q-9 6 -22 6l-29 -4q-13 -3 -35 -12l-12 32
l262 113h41zM119 1485q0 16 2 22l10 27q7 9 25 20q10 12 35 19l38 10l43 4l39 2l19 -2l14 -2l16 -5q9 -2 12 -4l11 -4l10 -3l33 -21l21 -22l9 -13l11 -14q12 -20 12 -33l4 -30l-4 -29q-2 -13 -10 -31q-1 -3 -5 -11.5t-9.5 -18.5t-20.5 -25l-22 -25l-31 -24q-6 -3 -10 -8
l-8 -7l-17 -10l-16 -12l-17 -12l-11 -9l-13 -10l-9 -8l-8 -6q-3 -7 -10 -14q-1 -5 -2 -6l-2 -5l-4 -30q0 -13 7 -28.5t24 -29.5q12 -10 20 -15t19 -11l-37 -25l-39 23l-14 7l-15 9l-20 18l-10 14l-9 13l-10 29l-1 10l-2 8l-1 10q0 26 2 33l3 15l3 12l17 35q6 15 20 26
q12 15 31 31l20 19l27 24l12 8l6 5l8 7q9 5 21 21q13 13 24 31q8 10 13 30v18q0 11 -2.5 23t-10 20.5t-16.5 12.5q-9 6 -18 8l-19 4l-9 -1l-7 -1l-14 -4l-9 -6l-2 -6q15 -26 15 -37v-14q0 -9 -2.5 -16.5t-4.5 -10.5l-8 -10l-8 -12q-13 -14 -39 -19h-45q-24 6 -39.5 25
t-15.5 47z" />
    <glyph glyph-name="Uacute" unicode="&#xda;" horiz-adv-x="569" 
d="M387 944v-735v-41.5t2.5 -40.5t8.5 -35.5t18 -25.5q7 -12 22 -19q8 -6 35 -10l57 -4v-33h-448v33h28h17q9 2 12 2q24 3 35 10l23 18l8 13l8 14q8 21 8 45q2 15 3 29t1 45v352q0 160 -8 197q-3 20 -8 26q-1 8 -12 19l-17 8l-22 4q-21 0 -29 -2q-6 0 -33 -12l-14 33
l262 110h43zM29 1059h-29q0 33 3 62t11 61q12 52 41 84q26 31 60 47q33 18 71 18h13t26 -4q6 0 35 -12q13 -3 55 -25q13 -7 40 -25q19 -13 32 -22l74 -43q36 -14 51 -14q8 0 29 8q9 3 26 20q16 24 24.5 49.5t14.5 67.5h33q0 -49 -6 -88t-19 -66.5t-30 -48.5q-23 -25 -43 -38
q-47 -31 -95 -31q-43 0 -86 20q-49 19 -110 60q-20 15 -42 29t-42 24l-10 4l-13 4l-20 2q-40 0 -66 -39q-8 -16 -12 -35l-9 -37z" />
    <glyph glyph-name="Ucircumflex" unicode="&#xdb;" horiz-adv-x="569" 
d="M344 944v-737v-41.5t2.5 -41t9.5 -34.5q3 -4 4 -7q6 -11 13 -20q14 -14 22 -18q16 -8 35 -8q22 -4 57 -4v-33h-446v33h28h17q9 2 12 2q22 3 33 10l23 16l16 27q5 14 10 45l4 74v352q0 27 -1 68t-1 55q0 46 -6.5 71.5t-9.5 30.5q-1 8 -10 17q-4 4 -19 10l-20 4
q-13 0 -29 -4q-6 0 -35 -10l-12 30l260 113h43zM500 1389l-303 -336h-33l110 336h226z" />
    <glyph glyph-name="Udieresis" unicode="&#xdc;" horiz-adv-x="569" 
d="M280 -133q48 0 80.5 -32.5t32.5 -79.5q0 -48 -32 -80q-30 -33 -81 -33q-11 0 -17 1t-24 7q-19 8 -36 25q-18 15 -25 37q-8 16 -8 43q0 17 1 24.5t7 18.5q8 23 23 34q33 35 79 35zM260 1416q42 0 78 -33q32 -34 32 -80q0 -44 -30 -80q-38 -33 -80 -33q-20 0 -43 8
q-24 12 -37 25q-17 18 -25 35.5t-8 44.5q0 18 1 25.5t7 17.5q9 20 25 35q33 35 80 35zM354 934v-735q0 -35 3.5 -70t10.5 -49l17 -26l20 -17q12 -5 35 -10l60 -4v-33h-449v33h28h17q9 2 12 2q24 3 34.5 9t21.5 20q12 12 16 26q10 22 10 45q2 15 3 29t1 45v352q0 160 -8 197
l-5 17l-3 10q-1 8 -12 18l-17 8l-22 4l-15 -1l-14 -1l-13 -4l-22 -8l-12 31l262 112h41z" />
    <glyph glyph-name="Yacute" unicode="&#xdd;" horiz-adv-x="1875" 
 />
    <glyph glyph-name="Thorn" unicode="&#xde;" horiz-adv-x="1875" 
 />
    <glyph glyph-name="germandbls" unicode="&#xdf;" 
d="M61 456q0 26 3 53t11 64q12 45 47 127q36 66 72 107q47 47 92 77q105 60 217 60q207 0 330 -160q53 -65 82 -145q27 -87 27 -166v-17h-195q0 43 -6.5 82.5t-15.5 73.5q-30 103 -78 170q-66 98 -174 98q-50 0 -105 -32q-25 -19 -45 -43q-26 -35 -37 -70q-18 -47 -24 -92
q-8 -46 -8 -115v-39.5t2 -32.5h-195zM61 456h195q0 -76 21 -149q18 -63 52 -127q82 -148 205 -148q42 0 84 21q35 15 70 59q29 39 45 115t16 164v30v24q-2 8 -2 11h195q0 -50 -17 -108q-15 -62 -43 -125q-21 -49 -69 -111q-46 -50 -93 -80q-24 -14 -52.5 -26.5t-55.5 -20.5
q-62 -16 -121 -16q-105 0 -185 40t-143 124q-102 140 -102 313v10zM313 1380h223l113 -336h-37z" />
    <glyph glyph-name="agrave" unicode="&#xe0;" 
d="M61 456q0 26 3 53t11 64q12 45 47 127q36 66 72 107q47 47 92 77q105 60 217 60q207 0 330 -160q55 -67 82 -149.5t27 -161.5v-17h-195q0 42 -6.5 81.5t-15.5 76.5q-30 105 -78 168q-66 98 -174 98q-56 0 -105 -32q-25 -19 -45 -43q-26 -35 -37 -70q-18 -46 -25 -93
t-7 -114v-39.5t2 -32.5h-195zM61 456h195q0 -76 21 -149q18 -63 52 -127q82 -148 205 -148q42 0 84 21q35 15 70 59q29 39 45 115t16 166v29v23q-2 8 -2 11h195q0 -52 -17 -106q-15 -64 -43 -127q-21 -49 -69 -111q-46 -50 -93 -80q-24 -14 -52.5 -26.5t-55.5 -20.5
q-62 -16 -121 -16q-105 0 -185 40t-143 124q-102 140 -102 313v10zM407 1470q0 17 2 23l4 10l8 14l23 23q19 13 37.5 19t41 10t40.5 4l39 2q21 -3 30 -7q27 -5 50.5 -16.5t32.5 -18t22 -22.5l18 -29q14 -22 15 -30l2 -31l-4 -31l-11 -28q-2 -10 -14 -29l-18 -29l-23 -22
q-10 -10 -18.5 -17t-12.5 -10l-18 -12l-17 -10l-16 -13l-8 -6l-10 -6l-13 -11l-11 -10l-15 -14l-10 -12l-7 -12l-4 -29q0 -15 11 -29q6 -15 22 -28q11 -13 37 -27l-35 -25l-24 13l-17 10q-13 5 -25.5 13.5t-21.5 21.5q-7 5 -18 26l-11 27l-4 31v30q3 21 8 29l6 14l9 21
q3 6 8 13t12 14l15 14l16 16l47 41l5 4l7 4l7 7q6 3 10 8l20 18l11 14l14 17l12 33v16q0 9 -2 21l-12 22q-5 9 -15 14q-11 9 -18 9l-20 4l-10 -1l-7 -1l-14 -4l-4 -4l-4 -3l-2 -8q14 -22 14 -37v-13v-8q-2 -5 -2 -7q-3 -15 -10 -21l-11 -14q-14 -11 -39 -19q-30 0 -45 3
q-22 6 -39 22q-16 19 -16 49z" />
    <glyph glyph-name="aacute" unicode="&#xe1;" 
d="M61 456q0 26 3 53t11 64q13 48 47 125q32 62 72 109q49 52 92 75q103 62 217 62q207 0 330 -160q53 -65 82 -145q27 -90 27 -166v-17h-195q0 43 -6.5 82.5t-15.5 73.5q-30 108 -78 168q-66 98 -174 98q-51 0 -105 -30q-25 -19 -45 -45q-25 -31 -37 -68q-20 -53 -24 -92
q-8 -46 -8 -115v-39.5t2 -34.5zM61 456l195 -2q0 -74 21 -147q18 -62 52 -129q82 -148 205 -148q36 0 84 21q36 18 70 61q30 39 45 111q8 38 12 78t4 90v29v19q-2 12 -2 17h195q0 -50 -17 -108q-17 -68 -43 -125q-22 -52 -69 -113q-53 -54 -93 -80q-58 -30 -114 -45.5
t-115 -15.5q-100 0 -181.5 38.5t-146.5 125.5q-102 140 -102 313v10zM235 1143h-31q0 69 17 124q12 51 38 82t60 50q38 16 72 16h21.5t19.5 -2l35 -12q24 -9 53 -25q16 -7 73 -47l72 -43q33 -14 51 -14q14 0 31 6l25 20q11 14 22 43q4 14 10 40t7 34h32q0 -48 -6 -89.5
t-18 -64.5q-15 -30 -31 -49q-12 -16 -41 -37q-50 -32 -94 -32q-20 0 -38 4t-50 16q-49 20 -109 61q-66 47 -84 54l-10 3l-5 2l-5 1l-23 4q-38 0 -65 -39q-4 -6 -13 -35l-7 -30z" />
    <glyph glyph-name="acircumflex" unicode="&#xe2;" 
d="M61 456q0 26 3 53t11 64q12 45 47 127q36 66 72 107q47 47 92 77q105 60 217 60q207 0 330 -160q53 -65 82 -145q27 -87 27 -166v-17h-195q0 43 -6.5 82.5t-15.5 73.5q-30 103 -78 170q-66 98 -174 98q-50 0 -105 -32q-25 -19 -45 -43q-26 -35 -37 -70q-18 -47 -24 -92
q-8 -46 -8 -115v-39.5t2 -32.5h-195zM61 456h195q0 -75 21 -149q18 -62 52 -129q81 -146 205 -146q42 0 84 21q35 15 70 59q29 39 45 115t16 164v30v24q-2 8 -2 11h195q0 -50 -17 -108q-15 -62 -43 -125q-24 -57 -69 -111q-46 -50 -93 -80q-24 -14 -52.5 -26.5t-55.5 -20.5
q-62 -16 -121 -16q-105 0 -185 40t-143 124q-102 140 -102 313v10zM819 1390l-301 -336h-35l113 336h223z" />
    <glyph glyph-name="atilde" unicode="&#xe3;" 
d="M499 -133q46 0 78.5 -32.5t32.5 -79.5t-33 -80q-30 -33 -78 -33q-12 0 -19 1t-20.5 6t-21.5 12l-19 14q-18 18 -24 37q-8 16 -8 43q0 17 1 24.5t7 18.5q6 20 22 37q37 32 82 32zM61 455q0 28 3 55t11 64q13 48 47 125q34 68 74 108q36 41 90 76q103 62 217 62
q206 0 330 -160q54 -66 81.5 -145t27.5 -167v-18h-195q0 45 -6 84t-16 74q-27 102 -78 168q-68 98 -174 98q-53 0 -105 -31q-24 -18 -45 -45q-26 -34 -37 -67q-18 -51 -24 -93q-8 -45 -8 -114v-39.5t2 -34.5h-195zM61 455h195q0 -75 21 -148q18 -64 52 -128
q82 -148 205 -148q39 0 82.5 21t71.5 61q30 39 45 111q8 38 12 78t4 90v29v23q-2 8 -2 11h195q0 -30 -3.5 -51t-13.5 -55q-17 -68 -43 -125q-22 -52 -69 -113q-42 -49 -93 -80q-63 -33 -108 -45q-62 -16 -121 -16q-100 0 -182.5 37.5t-145.5 126.5q-102 140 -102 313v8z" />
    <glyph glyph-name="adieresis" unicode="&#xe4;" 
d="M61 454q0 25 3 52.5t11 66.5q13 48 47 125q32 62 72 109q43 45 92 75q103 62 217 62q207 0 330 -160q53 -65 82 -145q27 -90 27 -166v-19h-195q0 44 -6 83t-16 75q-30 108 -78 168q-66 98 -174 98q-51 0 -105 -30q-25 -19 -45 -45q-27 -37 -37 -68q-20 -53 -24 -92
q-8 -46 -8 -115v-39.5t2 -34.5h-195zM430 1329h182l190 -336h-32l-267 209l-231 -209h-31zM61 454h195q0 -74 21 -147q18 -62 52 -129q82 -148 205 -148q36 0 84 21q36 18 70 61q30 39 45 111q8 38 12 78t4 90v29v23q-2 8 -2 11h195q0 -46 -17 -110t-43 -121
q-22 -52 -69 -113q-53 -54 -93 -80q-58 -30 -114 -45.5t-115 -15.5q-100 0 -181.5 38.5t-146.5 125.5q-102 140 -102 313v8zM122 1726h224l112 -336h-37z" />
    <glyph glyph-name="aring" unicode="&#xe5;" 
d="M61 456q0 26 3 53t11 64q13 48 47 125q32 62 72 109q47 47 92 77q105 60 217 60q207 0 330 -160q53 -65 82 -145q27 -87 27 -166v-17h-195q0 43 -6.5 82.5t-15.5 73.5q-30 103 -78 170q-69 98 -174 98q-50 0 -105 -32q-25 -19 -45 -43q-26 -35 -37 -70q-18 -47 -24 -92
q-8 -46 -8 -115v-39.5t2 -34.5zM430 1329h182l190 -336h-32l-267 209l-231 -209h-31zM61 456l195 -2q0 -74 21 -147q18 -62 52 -129q81 -146 205 -146q42 0 84 19q36 18 70 61q29 39 45 111q8 38 12 78t4 90v30v24q-2 8 -2 11h195q0 -50 -17 -108q-17 -68 -42 -125
t-72.5 -111.5t-90.5 -79.5q-24 -14 -52.5 -26.5t-55.5 -20.5q-62 -16 -121 -16q-100 0 -184 41t-144 123q-102 140 -102 313v10zM456 1847q0 16 2.5 26t12.5 21q11 17 22 23q17 13 35 18l41 10l43 4l39 2h16q11 -3 15 -4l49 -18l32 -18q16 -13 21 -23l20 -29l7 -13l8 -15
l1 -15l1 -18q0 -13 -2.5 -24t-5 -18.5t-7.5 -17.5q-1 -3 -5 -11.5t-9 -16.5q-13 -22 -20 -27l-23 -24l-31 -25l-18 -14l-16 -11l-7 -6l-10 -6l-16 -12l-25 -21l-7 -6l-7 -8l-6 -6l-4 -4q-6 -6 -6 -15q-5 -8 -5 -28l9 -29l21 -29q7 -7 40 -26l-37 -23l-39 19q-19 9 -28 18
q-11 6 -21 19q-9 9 -16 26l-10 27l-7 31q0 23 2.5 34t8.5 25l4 11l5 13l5 11q5 13 20 28l31 29l24 22l23 19l6 5l4 5q6 2 19 13l18 20q10 9 25 31q9 12 12 28v18v13q-2 7 -3 13.5t-8 16.5t-17 17l-10 5l-9 3l-8 2l-10 1l-10 -1l-7 -1l-14 -5l-8 -6v-6q12 -27 12 -37v-14
q0 -8 -2 -14q0 -7 -5 -12l-5 -11q-3 -7 -10 -12q-22 -16 -39 -19h-45q-22 6 -39 24t-17 48z" />
    <glyph glyph-name="ae" unicode="&#xe6;" 
d="M61 456q0 26 3 53t11 64q13 48 47 125q32 62 72 109q49 52 92 75q103 62 217 62q207 0 330 -160q53 -65 82 -145q27 -87 27 -166v-17h-195q0 43 -6.5 82.5t-15.5 73.5q-30 103 -78 170q-66 96 -174 96q-51 0 -105 -30q-25 -19 -45 -45q-25 -31 -37 -68q-20 -53 -24 -92
q-8 -46 -8 -115v-39.5t2 -34.5zM430 1329h182l190 -336h-32l-267 209l-231 -209h-31zM61 456l195 -2q0 -74 21 -147q18 -62 52 -129q80 -146 205 -146q42 0 84 19q36 18 70 61q30 39 45 111q8 38 12 78t4 90v29v19q-2 12 -2 17h195q0 -50 -17 -108q-17 -68 -43 -125
q-22 -52 -69 -113q-55 -57 -93 -78q-24 -14 -52.5 -26.5t-55.5 -20.5q-62 -16 -121 -16q-100 0 -184 41t-144 123q-102 140 -102 313v10zM282 1405h-33q0 28 3 52.5t14 70.5q17 57 41 83q20 29 59 50q38 16 72 16l39 -4q21 -3 36 -11q8 -3 23 -9.5t33 -16.5l72 -47
q40 -29 71 -41q30 -14 51 -14q18 0 29.5 5.5t26.5 20.5q10 10 22 43l17 74h32q0 -48 -6 -86t-18 -68q-14 -27 -33 -50.5t-41 -35.5q-50 -32 -94 -32q-19 0 -37 4t-51 16t-107 60q-60 42 -86 53l-20 8l-23 4q-38 0 -65 -39l-10 -35q-4 -10 -8.5 -29t-8.5 -42z" />
    <glyph glyph-name="ccedilla" unicode="&#xe7;" 
d="M61 454q0 65 14 117q8 32 19.5 63.5t27.5 63.5q32 62 72 109q33 36 90 75q102 60 217 60q105 0 188 -39.5t144 -118.5q26 -34 45.5 -70t34.5 -77q27 -78 27 -166v-17h-193q0 42 -5.5 73.5t-18.5 84.5q-24 93 -76 168q-69 98 -176 98q-28 0 -51.5 -7t-51.5 -25
q-26 -15 -45 -43q-26 -36 -39 -68q-14 -40 -24 -92q-6 -51 -6 -115v-39.5t2 -34.5h-195zM428 1329h184l188 -336h-30l-267 207l-233 -207h-31zM61 454h195q0 -74 21 -147q18 -62 52 -129q77 -148 203 -148q38 0 86 21q37 18 70 61q29 36 44 106.5t15 172.5v63h193
q0 -26 -3 -46.5t-12 -59.5q-15 -64 -44.5 -128.5t-69 -110t-93.5 -79.5q-44 -28 -106 -47q-56 -14 -121 -14q-99 0 -182 39t-148 123q-100 138 -100 315v8zM1050 1718l-301 -336h-33l111 336h223z" />
    <glyph glyph-name="egrave" unicode="&#xe8;" 
d="M499 -123q48 0 80.5 -32.5t32.5 -79.5t-33 -80q-29 -33 -80 -33q-11 0 -17 1t-24 7q-18 8 -36.5 25.5t-24.5 36.5q-8 16 -8 43q0 22 6 43q12 23 24 34q35 35 80 35zM430 1331h182l190 -336h-32l-267 207l-231 -207h-31zM61 457q0 26 3 53t10.5 59.5t18.5 62t29 69.5
q33 67 74 106q38 44 90 78q103 59 217 59q207 0 330 -159q54 -61 81.5 -141t27.5 -171v-16h-195q0 43 -6 82.5t-16 75.5q-25 96 -78 167q-66 99 -174 99q-54 0 -105 -33q-26 -19 -45 -43q-25 -33 -37 -68q-18 -49 -23 -82t-7 -60.5t-2 -65.5v-39.5t2 -32.5h-195zM61 457h195
q0 -74 21 -148q18 -62 52 -129q81 -147 205 -147q47 0 84 20q41 19 70 60q29 38 45 114t16 166v29v19q-2 12 -2 16h195q0 -26 -2.5 -47.5t-14.5 -59.5q-15 -64 -43 -127q-20 -49 -69 -110q-39 -48 -91 -79.5t-113.5 -48t-117.5 -16.5q-101 0 -183 40t-145 124
q-102 140 -102 314v10z" />
    <glyph glyph-name="eacute" unicode="&#xe9;" 
d="M61 456q0 26 3 53t11 64q12 45 47 127q36 66 72 107q47 47 92 77q105 60 217 60q127 0 228 -64l6 -4l4 -3l4 -3l12 -10l17 -12l43 20l39 29q14 14 28 39q3 7 8 21.5t5 27.5v33q-3 18 -9 30q-6 17 -14 25q-8 11 -22 18l-6 2h-5q-6 0 -8 -6v-8l2 -5l4 -7q10 -10 10 -23v-12
q0 -6 -2 -14q-6 -15 -14 -23q-6 -11 -18 -16l-27 -9l-27 -2q-9 2 -24 11l-11 6l-16 14l-2 7l-4 10l-2 24l4 31q6 16 19 28q6 8 20 17l22 8l23 4l7 1l9 1q18 0 33 -4l27 -6l18 -12l17 -15l12 -16l10 -23l8 -24l4 -27q0 -41 -12 -67q-15 -33 -39 -54q-9 -10 -20 -19.5
t-27 -19.5l-19 -11l-20 -9l9 -7l10 -9q11 -12 16 -23q53 -65 82 -145q27 -87 27 -166v-17h-195q0 43 -6.5 82.5t-15.5 73.5q-30 103 -78 170q-66 98 -174 98q-50 0 -105 -32q-25 -19 -45 -43q-26 -35 -37 -70q-18 -47 -24 -92q-8 -46 -8 -115v-39.5t2 -32.5h-195zM61 456
h195q0 -76 21 -149q18 -63 52 -127q82 -148 205 -148q42 0 84 21q35 15 70 59q29 39 45 115t16 164v30v24q-2 8 -2 11h195q0 -50 -17 -108q-15 -62 -43 -125q-21 -49 -69 -111q-46 -50 -93 -80q-24 -14 -52.5 -26.5t-55.5 -20.5q-62 -16 -121 -16q-105 0 -185 40t-143 124
q-102 140 -102 313v10zM313 1380h223l113 -336h-37z" />
    <glyph glyph-name="ecircumflex" unicode="&#xea;" 
d="M61 456q0 26 3 53t11 64q12 45 47 127q36 66 72 107q47 47 92 77q105 60 217 60q127 0 228 -64l6 -4l4 -3l4 -3l12 -10l17 -12l43 20l39 29q18 22 28 39q3 7 8 21.5t5 27.5v33q-3 18 -9 30q-6 17 -14 25q-8 11 -22 18l-6 2h-5q-6 0 -8 -6v-8l2 -5l4 -7q10 -10 10 -23v-12
q0 -6 -2 -14q-6 -15 -14 -23q-6 -11 -18 -16l-27 -9l-27 -2q-9 2 -24 11l-27 20l-2 7l-4 10l-2 24l4 31q6 16 19 28q6 8 20 17l23 8l13 4l9 2h16q25 0 33 -4l27 -6l18 -12l17 -15l12 -16l10 -23l8 -24l4 -27q0 -41 -12 -67q-15 -33 -39 -54q-9 -10 -20 -19.5t-27 -19.5
l-19 -11l-20 -9l9 -7l10 -9q11 -12 16 -23q55 -67 82 -149.5t27 -161.5v-17h-195q0 42 -6.5 81.5t-15.5 76.5q-30 105 -78 168q-66 98 -174 98q-56 0 -105 -32q-25 -19 -45 -43q-26 -35 -37 -70q-18 -46 -25 -93t-7 -114v-39.5t2 -32.5h-195zM61 456h195q0 -76 21 -149
q18 -63 52 -127q82 -148 205 -148q42 0 84 21q35 15 70 59q29 39 45 115t16 166v29v23q-2 8 -2 11h195q0 -52 -17 -106q-15 -64 -43 -127q-21 -49 -69 -111q-46 -50 -93 -80q-24 -14 -52.5 -26.5t-55.5 -20.5q-62 -16 -121 -16q-105 0 -185 40t-143 124q-102 140 -102 313
v10zM407 1470q0 17 2 23l4 10l8 14l23 23q19 13 37.5 19t41 10t40.5 4l39 2q21 -3 30 -7q27 -5 50.5 -16.5t32.5 -18t22 -22.5l18 -29q14 -22 15 -30l2 -31l-4 -31l-11 -28q-2 -10 -14 -29l-18 -29l-23 -22q-10 -10 -18.5 -17t-12.5 -10l-18 -12l-17 -10l-16 -13l-8 -6
l-10 -6l-13 -11l-11 -10l-15 -14l-10 -12l-7 -12l-4 -29q0 -15 11 -29q6 -15 22 -28q11 -13 37 -27l-35 -25l-24 13l-17 10q-13 5 -25.5 13.5t-21.5 21.5q-7 5 -18 26l-11 27l-4 31v30q3 21 8 29l6 14l9 21q3 6 8 13t12 14l15 14l16 16l47 41l5 4l7 4l7 7q6 3 10 8l20 18
l11 14l14 17l12 33v16q0 9 -2 21l-12 22q-5 9 -15 14q-11 9 -18 9l-20 4l-10 -1l-7 -1l-14 -4l-4 -4l-4 -3l-2 -8q14 -22 14 -37v-13v-8q-2 -5 -2 -7q-3 -15 -10 -21l-11 -14q-14 -11 -39 -19q-30 0 -45 3q-22 6 -39 22q-16 19 -16 49z" />
    <glyph glyph-name="edieresis" unicode="&#xeb;" 
d="M61 456q0 26 3 53t11 64q13 48 47 125q32 62 72 109q49 52 92 75q103 62 217 62q122 0 228 -64l6 -4l8 -8q3 -1 5.5 -2t6.5 -6l6 -5l11 -9l43 22l39 29q18 18 28 37q13 33 13 51v33q-3 20 -9 30l-14 25q-6 7 -22 16l-6 3l-5 1q-4 -2 -6 -3.5t-2 -2.5v-8l2 -5l4 -7
q10 -10 10 -23v-12q0 -6 -3 -15t-5 -13t-8 -12t-18 -13l-16 -6l-11 -3l-27 -2q-6 0 -24 9q-10 5 -27 22l-1 3l-2 5l-3 9l-2 24l4 31q6 16 19 28q9 12 20 15l23 10l12 2l10 2h16q27 0 33 -2q20 -3 27 -8l18 -10l17 -15l12 -16l10 -23l5 -15l3 -9l4 -27q0 -44 -13 -70t-38 -53
q-18 -18 -47 -37l-19 -11l-20 -9l9 -8l10 -10l16 -21q53 -65 82 -145q27 -90 27 -166v-17h-195q0 43 -6.5 82.5t-15.5 73.5q-30 108 -78 168q-66 98 -174 98q-51 0 -105 -30q-25 -19 -45 -45q-25 -31 -37 -68q-20 -53 -24 -92q-8 -46 -8 -115v-39.5t2 -34.5zM61 456l195 -2
q0 -74 21 -147q18 -62 52 -129q82 -148 205 -148q36 0 84 21q36 18 70 61q30 39 45 111q8 38 12 78t4 90v29v19q-2 12 -2 17h195q0 -50 -17 -108q-17 -68 -43 -125q-22 -52 -69 -113q-53 -54 -93 -80q-58 -30 -114 -45.5t-115 -15.5q-100 0 -181.5 38.5t-146.5 125.5
q-102 140 -102 313v10zM235 1143h-31q0 69 17 124q12 51 38 82t60 50q38 16 72 16h21.5t19.5 -2l35 -12q24 -9 53 -25q16 -7 73 -47l72 -43q33 -14 51 -14q14 0 31 6l25 20q11 14 22 43q4 14 10 40t7 34h32q0 -48 -6 -89.5t-18 -64.5q-15 -30 -31 -49q-12 -16 -41 -37
q-50 -32 -94 -32q-20 0 -38 4t-50 16q-49 20 -109 61q-66 47 -84 54l-10 3l-5 2l-5 1l-23 4q-38 0 -65 -39q-4 -6 -13 -35l-7 -30z" />
    <glyph glyph-name="igrave" unicode="&#xec;" 
d="M61 456q0 26 3 53t11 64q12 45 47 127q36 66 72 107q47 47 92 77q105 60 217 60q127 0 228 -64l6 -4l4 -3l4 -3l12 -10l17 -12l43 20l39 29q14 14 28 39q3 7 8 21.5t5 27.5v33q-3 20 -9 30q-6 17 -14 25q-8 11 -22 18l-6 2h-5q-6 0 -8 -6v-8l2 -5l4 -7q10 -10 10 -23v-12
q0 -6 -2 -14q-6 -15 -14 -23q-6 -11 -18 -16l-27 -9l-27 -2q-9 2 -24 11q-10 2 -27 20l-2 7l-4 10l-2 24l4 31q6 16 19 28q6 8 20 17l22 8l23 4l7 1l9 1q18 0 33 -4l27 -6l18 -12l17 -15l12 -16l10 -23l8 -24l4 -27q0 -41 -12 -67q-15 -33 -39 -54q-9 -10 -20 -19.5
t-27 -19.5l-19 -11l-20 -9l9 -7l10 -9q11 -12 16 -23q53 -65 82 -145q27 -87 27 -166v-17h-195q0 43 -6.5 82.5t-15.5 73.5q-30 103 -78 170q-66 98 -174 98q-50 0 -105 -32q-25 -19 -45 -43q-26 -35 -37 -70q-18 -47 -24 -92q-8 -46 -8 -115v-39.5t2 -32.5h-195zM61 456
h195q0 -75 21 -149q18 -62 52 -129q81 -146 205 -146q42 0 84 21q35 15 70 59q29 39 45 115t16 164v30v24q-2 8 -2 11h195q0 -50 -17 -108q-15 -62 -43 -125q-24 -57 -69 -111q-46 -50 -93 -80q-24 -14 -52.5 -26.5t-55.5 -20.5q-62 -16 -121 -16q-105 0 -185 40t-143 124
q-102 140 -102 313v10zM819 1390l-301 -336h-35l113 336h223z" />
    <glyph glyph-name="iacute" unicode="&#xed;" 
d="M499 -123q48 0 80.5 -32.5t32.5 -79.5t-33 -80q-29 -33 -80 -33q-11 0 -17 1t-24 7q-18 8 -36.5 25.5t-24.5 36.5q-8 16 -8 43q0 22 6 43q12 23 24 34q35 35 80 35zM61 457q0 26 3 53t11 64q12 45 47 127q40 73 74 106q38 44 90 78q103 59 217 59q127 0 228 -63l6 -4
l10 -6l10 -9l17 -14l43 21l39 28q10 12 15.5 19.5t12.5 19.5q3 7 8 21.5t5 27.5v33q-3 17 -8.5 30.5t-15.5 26.5q-6 7 -21 17l-6 2h-5q-6 0 -8 -6v-9l2 -5l4 -7q10 -10 10 -22v-12v-8q-2 -5 -2 -7l-14 -23q-6 -11 -18 -16l-16 -5l-11 -3l-27 -2q-13 3 -25.5 10t-23.5 23
l-8 14l-2 25q0 15 6 30q6 21 17 29l20 16q3 3 23 9l13 4l9 2h16q25 0 33 -4l10 -2q7 -1 9 -2l8 -3l18 -12l17 -14l12 -15l10 -24l6 -14l3 -11l2 -12l1 -12q0 -44 -12 -70q-17 -33 -39 -53q-19 -22 -47 -39l-20 -12l-19 -9l19 -16q9 -8 16 -22q55 -69 82 -145t27 -167v-16
h-195q0 43 -6 82.5t-16 75.5q-25 96 -78 167q-66 99 -174 99q-54 0 -105 -33q-26 -19 -45 -43q-25 -32 -37 -70q-18 -43 -24 -90q-4 -23 -6 -50.5t-2 -65.5v-40.5t2 -31.5h-195zM61 457h195q0 -76 21 -150q18 -63 52 -127q81 -147 205 -147q47 0 84 20q41 19 70 60
q29 38 45 114t16 166v29v19q-2 12 -2 16h195q0 -26 -2.5 -47.5t-14.5 -59.5q-15 -64 -43 -127q-19 -46 -69 -110q-39 -48 -91 -79.5t-113.5 -48t-117.5 -16.5q-101 0 -183 40t-145 124q-102 140 -102 314v10z" />
    <glyph glyph-name="icircumflex" unicode="&#xee;" 
d="M862 927v-575q0 -21 2 -72.5t2 -56.5v-31t3.5 -33.5t9.5 -29.5q9 -18 13 -21l8 -6l8 -5l20 -1h13q9 0 17 2q25 6 35 14l15 -32l-263 -111h-43v199q-49 -57 -106 -109q-49 -43 -79.5 -58.5t-63.5 -21.5q-42 -10 -70 -10q-38 0 -71.5 10.5t-65.5 34.5q-23 14 -49 51
q-23 38 -31 66q-1 6 -10 50q-4 18 -7 36q-6 48 -6 117v417v34q0 15 -2 24l-7 22l-3 12q-5 11 -15 21.5t-22 17t-39 11.5l-55 4v30h303v-622q0 -127 47 -168q29 -23 51 -31q35 -10 62 -10q42 0 102 27q24 10 64 39q50 41 73 65v524q0 41 -6 70.5t-18.5 41.5t-44.5 24
q-38 10 -74 10v30h303zM299 1380h223l113 -336h-37z" />
    <glyph glyph-name="idieresis" unicode="&#xef;" 
d="M862 927v-575q0 -21 2 -72.5t2 -56.5v-31t3.5 -33.5t9.5 -29.5q9 -19 14 -21l7 -5l9 -5l9 -1l10 -1l14 1l16 1q25 6 35 14l15 -32l-263 -111h-43v199q-49 -57 -106 -109q-49 -43 -78 -57q-24 -10 -34 -13.5t-31 -9.5q-42 -10 -70 -10q-38 0 -75.5 12.5t-61.5 32.5
q-23 14 -49 51q-23 38 -31 66q-1 6 -10 50q-4 18 -7 36q-6 48 -6 117v417v34q0 15 -2 24l-7 22l-3 12q-5 11 -15 21.5t-22 17t-39 11.5l-55 4v30h303v-622q0 -127 47 -168q29 -23 51 -31q35 -10 62 -10q42 0 102 27q24 10 64 39q50 41 73 65v524q0 41 -6 70.5t-20 42.5
q-8 9 -43 23q-38 10 -74 10v30h303zM393 1470q0 17 2 22.5t4.5 10.5t8.5 14q11 17 22 23q17 13 35 18l41 10q25 5 43 5l39 2q21 -3 30 -7q27 -5 50.5 -16.5t32.5 -18t22 -22.5l18 -29q12 -18 15 -30l2 -31l-4 -31q-2 -6 -5 -14t-6 -14q-2 -10 -14 -29l-18 -29l-11 -11
l-12 -11q-10 -10 -18.5 -17t-12.5 -10l-18 -12l-16 -10q-8 -4 -17 -13l-8 -6l-10 -6l-13 -11l-10 -9l-16 -15l-10 -12l-5 -6l-2 -6l-4 -29q0 -15 11 -29q6 -15 22 -28q11 -13 37 -27l-35 -25l-24 13l-17 10q-13 5 -25.5 13.5t-21.5 21.5q-7 5 -18 26l-11 27l-4 31v30
q3 20 9 29l4 11l5 13l5 11q3 6 8 13t12 14l31 30l47 41l5 4l7 4l9 8l8 7l20 18l11 14l14 17l12 33v16q0 9 -2 21l-12 22q-6 8 -14 14q-12 9 -19 9l-20 4l-10 -1l-7 -1l-14 -4l-4 -4l-4 -3l-2 -8q14 -22 14 -37v-13v-8q-2 -5 -2 -7q-3 -15 -10 -21l-11 -14q-15 -12 -38 -19
q-30 0 -45 3q-23 6 -39.5 23.5t-16.5 47.5z" />
    <glyph glyph-name="eth" unicode="&#xf0;" horiz-adv-x="1875" 
 />
    <glyph glyph-name="ntilde" unicode="&#xf1;" 
d="M862 925v-575q0 -21 2 -72.5t2 -56.5q0 -46 3.5 -65.5t9.5 -28.5q9 -19 14 -21q7 -7 16 -10l19 -4l30 4q6 0 35 12l15 -30l-263 -111h-43v199q-39 -46 -106 -109q-42 -39 -78 -57q-30 -14 -65 -25q-15 -4 -31 -6t-39 -2q-37 0 -74 10q-30 10 -63 33q-24 18 -47.5 51.5
t-33 69t-14 71.5t-6.5 64.5t-2 62.5v420v33l-2 23l-5 15q0 7 -2 11l-3 8q-6 15 -15.5 24.5t-21.5 16t-39 11.5l-55 2v32h303v-622q0 -130 47 -168q22 -20 51 -31q35 -10 62 -10q48 0 102 27q32 13 64 39l40 33l33 30v526q0 42 -5.5 69t-19 41.5t-44.5 22.5q-35 11 -74 11v32
h303zM221 1141h-31q0 69 17 124q12 51 38 82t60 50q38 16 72 16q32 0 41 -2l35 -12q24 -9 53 -25l74 -47q20 -15 71 -43q33 -14 51 -14q14 0 31 6l25 20q11 14 22 43q4 14 10 40t7 34h32q0 -48 -6 -89.5t-19 -67.5t-29.5 -46t-41.5 -37q-50 -32 -94 -32q-20 0 -38 4t-50 16
q-49 20 -109 61q-66 47 -84 54l-10 3l-5 2l-5 1l-23 4q-38 0 -65 -39q-6 -9 -12 -35z" />
    <glyph glyph-name="ograve" unicode="&#xf2;" 
d="M862 927v-575q0 -21 2 -72.5t2 -56.5v-31t3.5 -33.5t9.5 -29.5q9 -19 14 -21q7 -7 16 -10l19 -2h13q9 0 17 2q25 6 35 14l15 -32l-263 -111h-43v199q-49 -57 -106 -109q-49 -43 -79.5 -58.5t-63.5 -21.5q-42 -10 -70 -10q-38 0 -71.5 10.5t-65.5 34.5q-23 14 -49 51
q-23 38 -31 66q-1 6 -10 50q-4 18 -7 36q-6 48 -6 117v417v33l-2 23l-4 15l-3 12l-3 9q-5 11 -15 21.5t-22 17t-39 11.5l-55 4v30h303v-622q0 -127 47 -168q29 -23 51 -31q35 -10 62 -10q48 0 102 27q24 10 64 39q50 41 73 65v524q0 41 -6 70.5t-18.5 41.5t-44.5 24
q-38 10 -74 10v30h303zM805 1390l-301 -336h-35l113 336h223z" />
    <glyph glyph-name="oacute" unicode="&#xf3;" 
d="M862 920v-578q0 -20 2 -69.5t2 -57.5v-33t3.5 -34t11 -32.5t12.5 -14.5q7 -7 16 -10q5 -3 19 -5q15 0 30 5q6 0 35 12l15 -33l-263 -109h-43v197q-45 -51 -106 -106q-49 -46 -78 -60l-65 -22q-33 -9 -70 -9q-14 0 -30 1.5t-44 9.5q-22 8 -36.5 15t-26.5 17q-30 24 -49 52
q-22 34 -31 65l-16 86q-3 24 -5 53t-2 64v420v32l-2 23l-10 35q-6 12 -16.5 23.5t-23 16t-36.5 9.5l-55 4v33h303v-623q0 -129 47 -170q23 -17 51 -28q7 -3 25 -8t37 -5q39 0 102 27q16 8 32.5 18.5t31.5 22.5q20 15 37 30t36 33v527q0 41 -5.5 68t-20.5 42q-11 15 -46 24
t-71 9v33h303zM545 -133q45 0 78 -32q34 -37 34 -80q0 -46 -33.5 -79.5t-78.5 -33.5q-13 0 -19.5 1.5t-21.5 6.5t-37 27q-18 15 -23.5 29.5t-8.5 25.5t-3 23t1 19t7 24q11 21 25 37q35 32 80 32z" />
    <glyph glyph-name="ocircumflex" unicode="&#xf4;" 
d="M866 891l-2 -539v-32t2 -32v-65l6 -66q3 -16 10.5 -31.5t12.5 -17.5q7 -7 14 -10l21 -2h13h10q6 2 8 2q10 3 17.5 6t16.5 8l15 -32l-262 -111h-43v199l-107 -109q-46 -40 -77 -56t-69.5 -25t-66.5 -9q-38 0 -74 12q-30 7 -63 33q-29 18 -49 51q-22 30 -31 66q-1 6 -10 50
q-4 18 -7 36q-6 48 -6 117v417v26q-3 21 -5 36.5t-8.5 30t-14.5 22.5l-23 16q-10 6 -37 11l-57 4v30h305v-622q0 -127 47 -168q29 -23 51 -31q35 -10 62 -10q39 0 102 27q26 11 60.5 37.5t77.5 66.5v524q0 39 -7 70q-5 16 -9 25t-11 18q-6 5 -17.5 11t-27.5 12
q-35 10 -72 10v30h307l37 5q17 0 37 14q20 17 32.5 36t12.5 44v33q-3 18 -10 30q-6 20 -14 27q-12 11 -23 16l-10 2l-4 -6l-2 -8l4 -12q9 -8 10 -25q0 -18 -2.5 -29t-12 -20.5t-20.5 -13.5l-11 -4l-13 -5l-27 -2q-5 1 -9.5 2.5t-17.5 8.5t-24 20l-6 16l-2 25q0 14 6 31
q3 15 16 28q9 12 21 15l22 10l21 4l8 1l10 1q14 0 32.5 -3.5t26.5 -8.5l21 -10l6 -7l8 -8l7 -7l6 -7l12 -25l3 -12l3 -12l4 -27v-24q-3 -18 -4 -27q-6 -20 -16 -37q-12 -17 -23 -26l-29 -17l-28 -10l-27 -4l-20 -4q-9 0 -13 -4zM301 1380h223l113 -336h-37z" />
    <glyph glyph-name="otilde" unicode="&#xf5;" 
d="M866 891l-2 -539v-32t2 -32v-65l6 -66q3 -16 10.5 -31.5t12.5 -17.5l14 -10l11 -1l10 -1l13 1l18 1q10 3 17.5 6t16.5 8l15 -32l-262 -111h-43v199l-107 -109q-45 -39 -78 -57l-65 -23q-42 -10 -70 -10q-39 0 -73.5 11.5t-63.5 33.5q-29 18 -49 51q-22 30 -31 66
q-1 6 -10 50q-4 18 -7 36q-6 48 -6 117v417v26q-3 21 -5 36.5t-8.5 30t-14.5 22.5l-23 16q-10 6 -37 11l-57 4v30h305v-622q0 -127 47 -168q29 -23 51 -31q35 -10 62 -10q39 0 102 27q26 11 60.5 37.5t77.5 66.5v524q0 39 -7 70q-5 16 -9 25t-11 18q-9 9 -45 23
q-35 10 -72 10v30h307l37 5q20 3 37 16q19 12 32 32.5t13 45.5v33q-3 18 -10 30q-6 20 -14 27q-12 11 -23 16l-10 2l-4 -6l-2 -8l4 -12q9 -8 10 -25q0 -18 -2.5 -29t-12 -20.5t-20.5 -13.5l-11 -4l-13 -5l-27 -2q-5 1 -9.5 2.5t-17.5 8.5t-24 20l-6 16l-2 25q0 14 6 31
q3 15 16 28q9 12 21 15q6 6 22 10l21 4l8 1l10 1l18 -1l15 -1l26 -8l10 -6l10 -7l7 -6l8 -8l13 -14l12 -25l3 -12l3 -12l4 -27v-24q-3 -18 -4 -27q-6 -20 -16 -37q-12 -17 -23 -26l-29 -17l-28 -10l-27 -4l-20 -4q-9 0 -13 -4zM395 1470q0 17 2.5 26.5t12.5 20.5q6 13 22 23
q17 13 33 18t38.5 9.5t32 5t15.5 0.5l39 2l31 -7q26 -5 49.5 -16.5t32.5 -18t22 -22.5l18 -29q8 -12 13 -30l4 -31l-4 -31q-2 -6 -5 -14t-6 -14l-14 -29q-13 -22 -20 -29l-9 -10l-12 -12q-16 -16 -33 -27l-16 -12l-18 -10l-15 -13l-9 -6l-9 -6l-15 -12l-10 -8l-8 -9l-6 -6
l-12 -12l-4 -12q-5 -10 -5 -29q0 -9 9 -29q9 -16 24 -28q11 -13 37 -27l-35 -25l-41 23l-12 6l-16 8q-8 5 -19 21q-7 5 -18 26l-7 14l-6 13l-4 31q0 23 2 30q0 9 9 29l4 11l5 13l5 11q3 6 8 13t12 14l13 12l18 18q22 23 47 41l5 3l8 5l8 8l8 7q9 6 18 18l13 14l14 17l12 33
q0 25 -3 35.5t-9.5 21.5t-17.5 16q-9 9 -19 9l-18 4l-10 -1l-9 -1l-12 -4l-8 -7l-2 -8q14 -22 14 -37v-13v-8q-2 -5 -2 -7q-3 -15 -10 -21l-10 -14q-12 -8 -39 -19q-30 0 -48.5 4t-35.5 22t-17 48z" />
    <glyph glyph-name="odieresis" unicode="&#xf6;" 
d="M864 352v-32t2 -32v-65l6 -66q3 -16 10.5 -31.5t12.5 -17.5q3 -6 14 -10l21 -4l31 4q8 0 16 5l18 7l15 -30l-262 -111h-43v199q-56 -62 -107 -109q-39 -36 -78 -57q-26 -13 -65 -25q-15 -4 -31 -6t-39 -2q-37 0 -74 10q-27 9 -63 33q-30 23 -49 53q-20 26 -30.5 64.5
t-15 74.5t-6.5 64.5t-2 62.5v420v33q-3 16 -4 23q0 16 -10 34q-9 20 -14 25l-23 16q-10 6 -37 11l-57 2v32h305v-622q0 -130 47 -168q22 -20 51 -31q35 -10 62 -10q46 0 102 27q32 14 62 39q40 29 76 63v526q0 40 -5.5 61.5t-9 30t-12.5 21.5q-16 14 -45 20q-31 11 -72 11
v32h307l37 5q17 0 36.5 13t32.5 33.5t13 47.5v33q-3 18 -10 30l-14 25q-9 13 -23 18h-10l-2 -2l-2 -2l-2 -10q0 -6 4 -10q8 -14 10 -25v-12v-8q-2 -5 -2 -7q-4 -14 -13 -23t-20 -13l-24 -9l-27 -2q-10 0 -27 9q-11 5 -24 22q-6 6 -6 16l-2 25q0 14 6 31q3 15 16 28
q9 12 21 15l22 10l21 4l8 1l10 1q14 0 32.5 -3.5t26.5 -8.5l21 -10l6 -7l8 -8l7 -8l6 -8l12 -23l3 -12l3 -12l4 -27v-24q-3 -18 -4 -27q-6 -25 -16 -39q-5 -6 -11.5 -13.5t-11.5 -10.5q-12 -12 -29 -19l-16 -4l-12 -4l-17 -4l-10 -2l-11 -1l-9 -1l-13 -4zM223 1143h-33
q0 61 16 120.5t42 87.5q23 31 59 48q38 16 72 16q31 0 39 -2q5 0 37 -12q24 -9 53 -25l33 -21l41 -26q31 -24 71 -43q30 -14 52 -14q14 0 28 6l27 20q11 14 22 43q5 18 9 35.5t8 38.5h32q0 -48 -6 -85.5t-18 -68.5q-15 -30 -32 -50t-42 -36q-50 -32 -92 -32q-21 0 -40 4
t-48 16q-49 20 -109 61l-84 54l-22 6l-21 4q-38 0 -65 -39q-6 -9 -12 -35l-9 -35z" />
    <glyph glyph-name="divide" unicode="&#xf7;" 
d="M866 891l-2 -539v-32t2 -32v-65l6 -66q3 -16 10.5 -31.5t12.5 -17.5q3 -6 14 -10l21 -2h13h10q6 2 8 2q10 3 17.5 6t16.5 8l15 -32l-262 -111h-43v199l-107 -109q-46 -40 -77 -56t-69.5 -25t-66.5 -9q-38 0 -74 12q-30 7 -63 33q-29 18 -49 51q-22 30 -31 66q-1 6 -10 50
q-4 18 -7 36q-6 48 -6 117v417v33q-3 16 -5 30.5t-8.5 29t-14.5 22.5l-23 16q-10 6 -37 11l-57 4v30h305v-622q0 -127 47 -168q29 -23 51 -31q35 -10 62 -10q46 0 102 27q26 11 60.5 37.5t77.5 66.5v524q0 39 -7 70q-5 16 -9 25t-11 18q-6 5 -17.5 11t-27.5 12
q-35 10 -72 10v30h307l37 5q17 0 34.5 12.5t33.5 34.5q14 17 14 47v33q-3 18 -10 30q-6 20 -14 27q-12 11 -23 16l-10 2l-4 -6l-2 -8l4 -12q9 -8 10 -25q0 -18 -2.5 -29t-12 -20.5t-20.5 -13.5l-11 -4l-13 -5l-27 -2q-5 1 -9.5 2.5t-17.5 8.5t-24 20l-6 16l-2 25q0 14 6 31
q3 15 16 28q9 12 21 15l22 10l21 4l8 1l10 1q14 0 32.5 -3.5t26.5 -8.5l21 -10l6 -7l8 -8l7 -7l6 -7l12 -25l3 -12l3 -12l4 -27v-24q-3 -18 -4 -27q-6 -20 -16 -37q-12 -17 -23 -26l-29 -17l-28 -10l-27 -4l-20 -4q-9 0 -13 -4zM807 1390l-301 -336h-35l113 336h223z" />
    <glyph glyph-name="oslash" unicode="&#xf8;" 
d="M866 891l-2 -539v-32t2 -32v-65l6 -65q3 -16 9.5 -30t13.5 -19l6 -5l8 -6l21 -2h13h10q6 2 8 2l34 15l15 -33l-262 -111h-43v199q-26 -27 -51 -53q-37 -38 -56 -55q-46 -41 -78 -58q-43 -17 -63.5 -22t-39 -8t-32.5 -3q-37 0 -74 12.5t-63 32.5q-31 21 -49 52
q-21 28 -31 65l-16 86q-3 24 -5 53t-2 64v418v33q-3 16 -5 30.5t-9.5 29.5t-13.5 21l-23 17q-13 5 -37 10l-57 4v31h305v-623q0 -127 47 -168q27 -21 51 -30q16 -5 32 -8t30 -3q36 0 102 27q22 8 62 39q10 8 27 22q22 19 49 43v525q0 38 -7 69q-5 15 -9 24.5t-10 16.5
t-18 13t-28 12q-35 10 -72 10v31h307l37 4q20 3 39 17t29 30q14 22 14 47v33q-3 19 -10 31q-4 10 -6 14t-8 12l-23 17l-10 2l-4 -6l-2 -9l4 -12q10 -10 10 -24v-11q0 -6 -2.5 -17t-12 -21.5t-20.5 -14.5l-13 -4l-11 -4l-27 -2l-27 10q-13 6 -24 21l-6 16l-2 25q0 15 6 30
q3 14 16 29q9 9 21 14l22 10q6 3 21 5l8 1l10 1l18 -1l15 -1l14 -6q8 -3 12 -5l21 -10l5 -5l4 -4l5 -5l7 -8l6 -7l6 -12l6 -12l3 -14l3 -11l4 -26v-29q-3 -16 -5 -24.5t-5.5 -17t-10.5 -18.5q-10 -17 -22 -26l-29 -16l-28 -11l-27 -4l-20 -4q-9 0 -13 -4zM547 -125
q45 0 78 -30q32 -34 32 -80q0 -45 -30 -80q-33 -33 -80 -33q-18 0 -25.5 1t-17.5 7q-24 12 -37 25t-25 37q-4 14 -6 23t-2 20q0 10 1 16t7 27q3 12 25 34q29 33 80 33z" />
    <glyph glyph-name="ugrave" unicode="&#xf9;" 
d="M0 928h430v-33h-22h-13.5t-25.5 -4q-7 -3 -13 -5.5t-14 -8.5q-23 -21 -23 -50q0 -18 7 -47q7 -21 12.5 -35.5t13.5 -27.5l215 -457l201 500l12 43l4 41q0 10 -2 14q0 8 -4 12l-4 5l-6 6l-4 2l-6 3l-6 3l-23 4l-37 2v33h275v-33h-18q-9 -3 -13 -4l-27 -12l-8 -7l-12 -10
l-23 -28q-9 -17 -12 -29l-23 -51l-354 -893q-22 -57 -63 -127q-36 -54 -78 -90q-91 -74 -170 -74q-33 0 -54.5 8.5t-41.5 28t-29.5 40.5t-9.5 44q0 20 8 42t20 32q18 15 35 22l25 4l22 2q18 0 39 -6q12 0 31 -5q9 -2 25 -7l22 -6l12 -4q10 -2 13.5 -2.5t6.5 -2.5q25 0 64 29
q12 10 37 45l20 40q9 19 15 32l63 153l-325 685l-4 7l-5 9l-5 9l-7 9l-26 41l-25 31l-10 11l-8 7q-11 9 -29 15l-45 12v33zM303 1380h223l113 -335h-37z" />
    <glyph glyph-name="uacute" unicode="&#xfa;" 
d="M0 928h430v-33h-22h-13.5t-25.5 -4q-7 -3 -13 -5.5t-14 -8.5q-23 -21 -23 -50q0 -18 7 -47q7 -21 12.5 -35.5t13.5 -27.5l215 -457l201 500l12 43l4 41q0 10 -2 14q0 8 -4 12l-4 5l-6 6l-4 2l-6 3l-6 3l-23 4l-37 2v33h275v-33h-18q-9 -3 -13 -4l-27 -12l-8 -7l-12 -10
l-23 -28q-9 -17 -12 -29l-23 -51l-354 -893q-22 -57 -63 -127q-36 -54 -78 -90q-91 -74 -170 -74q-33 0 -54.5 8.5t-41.5 28t-29.5 40.5t-9.5 44q0 20 7 41t21 33q18 15 35 22l25 4l22 2l39 -4l56 -14l22 -6l12 -4q10 -2 13.5 -2.5t6.5 -2.5q25 0 64 29q12 10 37 45l20 40
q9 19 15 32l63 153l-325 685l-4 7l-5 9l-5 9l-7 9l-26 43l-25 29l-10 11l-8 7q-11 9 -29 15l-45 12v33zM397 1471q0 16 2 22q0 6 4 10l9 13q15 20 22 24q18 15 35 19l41 8l24 4l19 2h39h16q11 -3 15 -4q21 -6 33 -10.5t15 -6.5l22 -13l12 -7q15 -12 22 -23q7 -7 18.5 -25.5
t14.5 -31.5l2 -31l-4 -30q-2 -12 -10 -31l-15 -27q-9 -19 -18 -28l-13 -14l-10 -9l-30 -26l-13 -9l-6 -4l-16 -12l-9 -5l-8 -6l-18 -14l-14 -11l-9 -7l-8 -8l-8 -6l-10 -13l-4 -7l-2 -5q-5 -10 -5 -29q0 -13 11 -30q6 -11 22 -29q20 -16 37 -25l-35 -24l-41 20l-26 17
l-21 18l-18 27l-10 28l-5 29v31l9 28l5 14l9 21q5 14 20 29l12 11l19 18l47 43l5 3l8 5l7 5l9 7l20 21l25 30l12 31v18q0 11 -2 21l-12 22l-14 15l-11 5l-8 3l-20 2q-13 0 -17 -2q-6 0 -14 -4l-4 -3l-4 -3l-2 -6q14 -23 14 -37v-14v-8q-2 -5 -2 -7q-3 -11 -10 -22l-5 -6
l-5 -7q-21 -15 -39 -18h-45q-24 6 -40 25t-16 49z" />
    <glyph glyph-name="ucircumflex" unicode="&#xfb;" 
d="M0 930h430v-33h-22q-21 0 -39 -6q-16 -3 -27 -14q-23 -18 -23 -50q0 -10 0.5 -15.5t6.5 -31.5q6 -19 11.5 -32t14.5 -29l215 -457l201 500l7 23l5 18l4 41q0 13 -2 16l-4 13l-10 10l-8 4l-8 4l-23 4l-16 1l-21 1v33h275v-33l-31 -6q-17 -3 -27 -10l-8 -8l-12 -11l-12 -14
l-11 -14l-12 -27l-23 -51l-354 -893q-23 -62 -63 -127q-27 -44 -78 -92q-91 -74 -170 -74q-26 0 -53 10q-20 6 -43 27q-16 16 -29 39q-4 11 -7 23t-3 24q0 22 7.5 40.5t20.5 33.5q19 14 35 20q17 4 27 6t20 2q18 0 39 -6q6 0 18 -3t38 -11l18 -4l16 -4l19 -4q27 0 65 28
q17 13 37 45l35 70l63 156l-325 684l-21 34l-26 41l-25 31l-10 9l-8 7q-9 12 -29 15l-45 14v33zM225 1145h-30q0 71 16 123q12 51 39 86q28 31 59 47q38 16 72 16q18 0 36.5 -3t39.5 -11q15 -4 53 -27q43 -23 74 -47q35 -24 71 -41q38 -16 52 -16q11 0 27.5 7.5t28.5 22.5
t21 42q14 38 17 73h33q0 -28 -1 -42t-6 -44q-6 -47 -18 -67q-12 -29 -31 -49q-21 -26 -41 -37q-42 -33 -94 -33q-24 0 -42.5 4t-45.5 16q-51 23 -109 60q-48 37 -84 53l-13 5l-7 3l-23 2q-40 0 -65 -37q-6 -8 -12 -34l-9 -36z" />
    <glyph glyph-name="udieresis" unicode="&#xfc;" 
d="M0 928h430v-33h-22h-13.5t-25.5 -4q-7 -3 -13 -5.5t-14 -8.5q-23 -21 -23 -50q0 -18 7 -47q7 -21 12.5 -35.5t13.5 -27.5l215 -457l201 500l12 43l4 41q0 10 -2 14q0 8 -4 12l-4 5l-6 6l-4 2l-6 3l-6 3l-23 4l-37 2v33h275v-33h-18q-9 -3 -13 -4l-27 -12l-8 -7l-12 -10
l-23 -28l-4 -9l-4 -8l-4 -12l-23 -51l-354 -893q-22 -57 -63 -127q-36 -54 -78 -90q-91 -74 -170 -74q-33 0 -54.5 8.5t-41.5 28t-29.5 40.5t-9.5 44q0 20 8 43q4 11 7.5 16t12.5 15q18 15 35 22l25 4l22 2q18 0 39 -6q12 0 31 -5q9 -2 25 -7l22 -6l12 -4q10 -2 13.5 -2.5
t6.5 -2.5q25 0 64 29q12 10 37 45l35 70l63 155l-325 685l-4 7l-5 9l-5 9l-7 9l-26 41l-25 31l-6 6l-7 6l-5 6q-11 9 -29 15l-45 12v33zM809 1389l-301 -334h-35l113 334h223z" />
    <glyph glyph-name="yacute" unicode="&#xfd;" horiz-adv-x="1875" 
 />
    <glyph glyph-name="thorn" unicode="&#xfe;" horiz-adv-x="1875" 
 />
    <glyph glyph-name="ydieresis" unicode="&#xff;" 
d="M0 928h430v-31h-22q-21 0 -39 -6q-16 -3 -27 -14q-23 -18 -23 -50q0 -10 0.5 -15.5t6.5 -31.5q6 -19 11.5 -32t14.5 -29l215 -457l201 500l7 23l5 18l4 41q0 13 -2 16l-4 13l-4 4l-6 4l-16 8l-23 6l-16 1l-21 1v31h275v-31l-31 -6q-17 -3 -27 -10l-8 -8l-12 -11l-12 -14
l-11 -14l-12 -27l-23 -51l-354 -893q-23 -62 -63 -127q-27 -44 -78 -92q-91 -74 -170 -74q-26 0 -53 10q-20 6 -41 25.5t-31 40.5q-4 11 -7 23t-3 24q0 22 7.5 40.5t20.5 33.5q19 14 35 20q17 4 27 6t20 2q18 0 39 -6q6 0 18 -3t38 -11l18 -4l16 -4l19 -4q27 0 65 28
q17 13 37 45l35 70l63 156l-325 684l-21 34l-13 20l-13 21l-13 15l-12 14l-10 11l-8 7q-9 12 -29 15l-45 14v31zM631 -123q42 0 80 -33q32 -35 32 -79q0 -45 -32 -80q-33 -33 -80 -33q-13 0 -19.5 1.5t-23.5 6.5q-20 9 -35 25q-19 19 -25 37q-8 16 -8 43q0 22 6 43
q11 22 25 36q35 33 80 33z" />
    <glyph glyph-name="oe" unicode="&#x153;" horiz-adv-x="1479" 
d="M1352 1336q-20 -3 -58 -21q-24 -17 -41 -43q-8 -15 -16 -51l-4 -92v-555q0 -100 -10 -184q-7 -39 -14.5 -74t-16.5 -64q-18 -56 -59 -104q-35 -47 -97 -90q-119 -78 -319 -78q-107 0 -190.5 16.5t-141.5 57.5q-51 33 -96 90q-40 50 -66 119q-14 43 -22 127q0 44 -2 82
q-6 115 -6 124v533q0 62 -9 105.5t-26 62.5t-43 29q-27 12 -66 12h-49v31h578v-31h-52q-39 0 -69 -15q-30 -10 -49 -40q-9 -18 -17 -56q-6 -39 -6 -98v-606v-46.5t2 -39.5l4 -39l8 -60q3 -26 19 -92q9 -34 33 -71q13 -24 43 -54l61 -43q18 -7 38 -14t40 -12q55 -11 94 -11
q127 0 231 60q49 25 86 65t54 86t28 129.5t11 184.5v563q0 45 -7 104q-8 37 -22 60q-15 20 -44.5 32.5t-68.5 12.5h-51v31h406q18 0 27 1.5t32 7t45 19.5q24 19 31 37q14 25 14 51v33q-2 15 -10 33q-3 7 -7.5 14.5t-6.5 9.5q-9 10 -23 17l-10 2q-4 -4 -4 -6l-2 -11l4 -10
q10 -10 10 -22v-12v-8q-2 -5 -2 -7q-3 -11 -11 -20.5t-22 -18.5l-13 -4l-11 -4h-27q-11 0 -23.5 6.5t-27.5 22.5l-6 16l-2 27q0 14 6 28q3 18 16 31l21 14l21 8l22 7h18q26 0 33 -2q6 0 13 -4l13 -6q7 -2 10 -5l11 -6l7 -6l7 -6l6 -8l7 -11l12 -20l6 -27l4 -24
q0 -26 -3.5 -48t-8.5 -30l-6 -16q-5 -9 -25 -29q-16 -16 -29 -21l-30 -12l-33 -8l-27 -4l-14 -1z" />
    <glyph glyph-name="c274" unicode="&#x154;" horiz-adv-x="1875" 
 />
    <glyph glyph-name="c275" unicode="&#x155;" horiz-adv-x="1875" 
 />
    <glyph glyph-name="c276" unicode="&#x156;" horiz-adv-x="1875" 
 />
    <glyph glyph-name="c277" unicode="&#x157;" horiz-adv-x="1875" 
 />
    <glyph glyph-name="c278" unicode="&#x158;" horiz-adv-x="1875" 
 />
    <glyph glyph-name="c279" unicode="&#x159;" horiz-adv-x="1875" 
 />
    <glyph glyph-name="c280" unicode="&#x15a;" horiz-adv-x="1875" 
 />
    <glyph glyph-name="c281" unicode="&#x15b;" horiz-adv-x="1875" 
 />
    <glyph glyph-name="c282" unicode="&#x15c;" horiz-adv-x="1875" 
 />
    <glyph glyph-name="c283" unicode="&#x15d;" horiz-adv-x="1875" 
 />
    <glyph glyph-name="Scedilla" unicode="&#x15e;" horiz-adv-x="1875" 
 />
    <glyph glyph-name="scedilla" unicode="&#x15f;" horiz-adv-x="1875" 
 />
    <glyph glyph-name="Scaron" unicode="&#x160;" horiz-adv-x="1875" 
 />
    <glyph glyph-name="scaron" unicode="&#x161;" horiz-adv-x="1479" 
d="M82 680v4q0 164 53 293.5t164 236.5q92 86 207 131t244 45q88 0 167.5 -21.5t151 -67.5t133.5 -111q98 -101 145.5 -229.5t47.5 -272.5v-8h-226q0 161 -32 288q-36 131 -103 220q-53 67 -127 103t-176 36q-93 0 -162 -33q-38 -20 -69 -45t-58 -59q-66 -86 -101.5 -216
t-35.5 -284v-10h-223zM668 1800h182l188 -336h-30l-267 207l-231 -207h-31zM82 680h223q0 -76 9 -146.5t26 -142.5q39 -138 107 -221q54 -72 125.5 -105t160.5 -33q91 0 171.5 38t140 111t94.5 196q30 117 30 284v19h226q0 -70 -12.5 -140.5t-36.5 -136.5
q-46 -128 -146 -231q-92 -100 -209.5 -151.5t-255.5 -51.5q-141 0 -258 50t-207 149q-97 103 -141 227q-47 130 -47 285z" />
    <glyph glyph-name="Ydieresis" unicode="&#x178;" horiz-adv-x="909" 
d="M90 313l4 6q14 28 55 66q39 31 90 61t141 66q21 8 86.5 33.5t122.5 46.5v36q0 146 -47 199q-28 28 -59 39q-33 14 -80 14q-70 0 -111 -35t-41 -79l3 -60q0 -19 -6 -38t-17 -33q-21 -27 -57 -27q-18 0 -33 6t-26 20l-15 31q-6 18 -6 41q0 90 90 164t254 74q56 0 107 -9.5
t98 -31.5q13 -8 25.5 -17.5t25.5 -23.5q27 -30 37 -59q7 -16 10.5 -32t3.5 -34l4 -113v-311h-160v215l-133 -49l-76 -33q-47 -23 -71 -43q-30 -20 -49 -45q-16 -18 -27 -45h-143zM165 1358h39q12 -36 43 -82q25 -34 58 -58q8 -5 30 -16t39 -19q36 -12 74 -12q32 0 73 14.5
t70 34.5q31 25 58 58q29 40 41 80l45 2q-12 -80 -42 -143t-65 -100.5t-86 -62.5q-40 -20 -92 -20q-46 0 -94 18q-42 18 -84 60q-31 31 -68 102q-25 63 -39 144zM90 313h143l-2 -4q-8 -34 -8 -53q0 -33 11 -64t34 -49q21 -24 48.5 -35.5t57.5 -11.5q41 0 95 25q74 34 120 71
v121h160v-4v-26t2 -27v-54q0 -17 0.5 -29.5t3.5 -25.5l6 -26q3 -11 11 -15l7 -4l5 -2l14 -4l7 1l8 1q6 0 14 4l10 5l21 14l21 15l32 23v-45q-60 -73 -113.5 -109t-99.5 -36q-25 0 -46 10.5t-32 24.5q-13 20 -22 49q-9 36 -9 76l-118 -92q-45 -32 -66 -41q-18 -10 -55 -19
q-21 -4 -36 -6t-28 -2q-46 0 -88 16q-42 18 -71 47q-32 32 -50 76q-8 25 -12 46t-4 48q0 34 10 64q6 28 19 47z" />
    <glyph glyph-name="tilde" unicode="&#x2dc;" horiz-adv-x="1479" 
d="M30 680v45h180v395q0 63 -6 104t-20 58q-21 24 -49 33q-27 12 -66 12h-49v33h549q159 0 264 -19q111 -13 195 -51q69 -29 143 -92q67 -64 111 -139q50 -82 71 -172q27 -102 27 -201v-6h-225q0 140 -36.5 252.5t-116 197.5t-175.5 123q-100 43 -219 43q-26 0 -50 -2
q-29 -4 -60.5 -7.5t-94.5 -20.5v-535h235v-51h-608zM30 680h608v-10h-235v-578l117 -22l96 -7q110 0 213 41q103 47 172 125q77 85 115.5 197t38.5 254h225q0 -66 -10.5 -127t-32.5 -127q-46 -118 -129 -215q-193 -211 -586 -211h-602v31h49q41 0 71.5 14.5t49.5 42.5
q1 3 5.5 20t9.5 44t5 88v428h-180v12z" />
    <glyph glyph-name="endash" unicode="&#x2013;" horiz-adv-x="1479" 
d="M451 784l272 607h39l246 -607h-211l-113 275l-127 -275h-106zM453 1796h41q12 -42 43.5 -83.5t56.5 -55.5q26 -19 70 -35q33 -12 73 -12q16 0 33 3t41 11q45 14 70 35q32 21 57.5 57t40.5 80l43 2q-10 -72 -38 -137.5t-69 -106.5q-34 -40 -83.5 -62t-94.5 -22t-89 18.5
t-89 61.5q-36 41 -63.5 96.5t-42.5 149.5zM451 784h106l-127 -274h481l-114 274h211l213 -526q11 -29 24 -58t29 -57q22 -41 49 -65q17 -18 55.5 -32.5t75.5 -14.5v-31h-541v31q22 0 33 1t36.5 7t39.5 20q29 21 29 58q0 17 -9 59l-30 88l-74 182h-537l-92 -208
q-9 -21 -14 -34l-12 -36q-9 -27 -9 -51q0 -28 29 -56q10 -8 47 -20l80 -10v-31h-430v31q23 3 70 18q25 8 39 23q20 20 53 78q29 47 59 129z" />
    <glyph glyph-name="emdash" unicode="&#x2014;" horiz-adv-x="1479" 
d="M451 784l272 607h39l246 -607h-211l-113 275l-127 -275h-106zM678 1798h182l189 -336h-31l-266 209l-234 -209h-29zM451 784h106l-127 -274h481l-114 274h211l213 -526q11 -29 24 -58t29 -57q22 -41 49 -65q17 -18 55.5 -32.5t75.5 -14.5v-31h-541v31q22 0 33 1t36.5 7
t39.5 20q29 21 29 58q0 17 -9 59l-30 88l-74 182h-537l-92 -208q-9 -21 -14 -34l-12 -36q-9 -27 -9 -51q0 -28 29 -56q10 -8 47 -20l80 -10v-31h-430v31q23 3 70 18q25 8 39 23q20 20 53 78q29 47 59 129z" />
    <glyph glyph-name="c284" unicode="&#x2015;" horiz-adv-x="1875" 
 />
    <glyph glyph-name="c285" unicode="&#x2016;" horiz-adv-x="1875" 
 />
    <glyph glyph-name="c286" unicode="&#x2017;" horiz-adv-x="1875" 
 />
    <glyph glyph-name="quoteleft" unicode="&#x2018;" horiz-adv-x="369" 
d="M144 816l-45 292l-14 101l-5 62q0 62 24 92q13 14 30.5 21.5t37.5 7.5q23 0 39 -8q17 -5 32 -21q29 -31 29 -77q0 -23 -1 -32q-5 -20 -6 -31l-19 -116l-54 -291h-48z" />
    <glyph glyph-name="quoteright" unicode="&#x2019;" horiz-adv-x="369" 
d="M144 816l-45 292l-14 101l-5 62q0 62 24 92q13 14 30.5 21.5t37.5 7.5q23 0 39 -8q17 -5 32 -21q29 -31 29 -77q0 -23 -1 -32q-5 -20 -6 -31l-19 -116l-54 -291h-48z" />
    <glyph glyph-name="quotesinglbase" unicode="&#x201a;" horiz-adv-x="1875" 
 />
    <glyph glyph-name="c287" unicode="&#x201b;" horiz-adv-x="1875" 
 />
    <glyph glyph-name="quotedblleft" unicode="&#x201c;" horiz-adv-x="836" 
d="M544 816l-45 288l-18 119v25l-1 24q0 62 26.5 91t70.5 29q39 0 67 -29q10 -12 19 -32.5t9 -44.5q0 -20 -1 -42.5t-4.5 -56.5t-14.5 -82l-60 -289h-48zM192 816l-46 292l-14 101l-4 62q0 31 6 54.5t18.5 37.5t31 21.5t38.5 7.5q42 0 70 -29q11 -13 19.5 -33.5t8.5 -44.5
q0 -23 -1 -32q-5 -21 -6 -32l-19 -114l-54 -291h-48z" />
    <glyph glyph-name="quotedblright" unicode="&#x201d;" horiz-adv-x="836" 
d="M544 816l-45 288l-18 119v25l-1 24q0 62 26.5 91t70.5 29q39 0 67 -29q10 -12 19 -32.5t9 -44.5q0 -20 -1 -42.5t-4.5 -56.5t-14.5 -82l-60 -289h-48zM192 816l-46 292l-14 101l-4 62q0 31 6 54.5t18.5 37.5t31 21.5t38.5 7.5q42 0 70 -29q11 -13 19.5 -33.5t8.5 -44.5
q0 -23 -1 -32q-5 -21 -6 -32l-19 -114l-54 -291h-48z" />
    <glyph glyph-name="guilsinglright" unicode="&#x203a;" horiz-adv-x="1479" 
d="M82 680v4q0 162 53.5 294t163.5 234q94 86 205.5 132t245.5 46q107 0 194 -32q45 -15 89 -36t89 -50q32 3 70.5 18t69 36t49.5 50q20 26 20 59q0 40 -6 58q-11 25 -39 47l-5 3l-3 1q-6 0 -6 -6l-2 -13q0 -7 4 -8q8 -11 10 -24l-1 -16l-1 -11q-8 -16 -14 -22
q-3 -7 -19 -17l-13 -4l-11 -4h-27q-10 0 -26 8q-8 4 -25 21l-5 9l-3 7l-2 27q0 15 5.5 30t18.5 29l19 14l22 11l12 2l11 2h16q27 0 35 -2q5 0 25 -9l20 -12l7 -6l7 -6l15 -19q6 -6 10 -20l10 -27l4 -24v-37l-4 -16q-6 -28 -18 -43q-6 -16 -27 -37q-12 -18 -33 -27l-10 -7
l-14 -8l-10 -7l-37 -15l-35 -10l-29 -8l23 -25l22 -24q97 -100 145 -228.5t48 -275.5v-6h-226q0 157 -34 288t-101 220q-56 69 -132 104t-171 35q-91 0 -164 -35.5t-125 -103.5q-66 -83 -101.5 -212.5t-35.5 -287.5v-8h-223zM82 680h223q0 -78 8.5 -148.5t26.5 -142.5
q40 -137 107 -219q54 -71 124 -105q81 -35 162 -35q91 0 173.5 40t140 110.5t92.5 196.5q30 117 30 282v21h226q0 -72 -12.5 -142t-36.5 -135q-47 -132 -142.5 -230.5t-216.5 -154.5q-118 -49 -252 -49q-139 0 -254.5 48t-210 148.5t-141.5 229.5t-47 285z" />
    <glyph glyph-name="trademark" unicode="&#x2122;" horiz-adv-x="1251" 
d="M403 1294v-559h289q61 0 92 8q43 11 57 25q26 23 42 64t16 96h32v-449h-32l-4 24l-4 19l-4 16l-3 17q-6 31 -12 43q-9 15 -25 31l-32 22q-27 12 -52 15l-71 6h-289v-455v-42.5t2 -31.5l6 -37q3 -12 10 -18l19 -14l29 -8q12 -3 47 -3h229h17h14h11q41 0 56 5q21 0 33 2
t33.5 9t52.5 25q39 31 49 43q32 35 63 84q16 24 32.5 53.5t33.5 65.5h47l-118 -350h-1049v31h45q24 0 48.5 6t41.5 16l29 21q11 13 14 30q12 30 12 134v880q0 134 -24 166q-37 43 -121 43h-45v31h1038l17 -303h-47l-12 51l-11 45q-12 40 -24 60.5t-31 37.5q-11 12 -43 29
l-53 12l-86 4h-365zM493 1798h182l191 -336h-33l-266 209l-232 -209h-30z" />
    <glyph glyph-name="periodcentered" unicode="&#x2219;" horiz-adv-x="1875" 
 />
  </font>
</defs>
</svg>
