<?xml version="1.0" encoding="utf-8"?>
<svg width="15px" height="15px" viewBox="0 0 15 15" version="1.1" xmlns:xlink="http://www.w3.org/1999/xlink" xmlns="http://www.w3.org/2000/svg">
  <desc>Created with Lunacy</desc>
  <g id="calendar-copy-3">
    <path d="M1.90855 0.33954C1.90855 0.151963 1.7529 0 1.56085 0L0.34751 0C0.15568 0 0 0.151963 0 0.33954L0 1.52543C0 1.71325 0.15568 1.86528 0.34751 1.86528L1.56085 1.86528C1.7529 1.86528 1.90855 1.71325 1.90855 1.52543L1.90855 0.33954L1.90855 0.33954Z" transform="translate(3.515743 7.921534)" id="Path" fill="#FAAE17" stroke="none" />
    <path d="M1.90836 0.33954C1.90836 0.151963 1.75268 0 1.561 0L0.34751 0C0.15568 0 0 0.151963 0 0.33954L0 1.52543C0 1.71325 0.15568 1.86528 0.34751 1.86528L1.561 1.86528C1.75268 1.86528 1.90836 1.71325 1.90836 1.52543L1.90836 0.33954Z" transform="translate(6.548222 7.921534)" id="Path" fill="#FAAE17" stroke="none" />
    <path d="M1.90855 0.33954C1.90855 0.151963 1.75287 0 1.56104 0L0.347699 0C0.155648 0 0 0.151963 0 0.33954L0 1.52543C0 1.71325 0.155648 1.86528 0.347699 1.86528L1.56104 1.86528C1.75287 1.86528 1.90855 1.71325 1.90855 1.52543L1.90855 0.33954Z" transform="translate(9.580482 7.921534)" id="Path" fill="#FAAE17" stroke="none" />
    <path d="M1.90855 0.339724C1.90855 0.151841 1.7529 0 1.56085 0L0.34751 0C0.15568 0 0 0.151841 0 0.339724L0 1.5254C0 1.7131 0.15568 1.86509 0.34751 1.86509L1.56085 1.86509C1.7529 1.86509 1.90855 1.71307 1.90855 1.5254L1.90855 0.339724L1.90855 0.339724Z" transform="translate(3.515743 10.88574)" id="Path" fill="#FAAE17" stroke="none" />
    <path d="M1.90836 0.339724C1.90836 0.151841 1.75268 0 1.561 0L0.34751 0C0.15568 0 0 0.151841 0 0.339724L0 1.5254C0 1.7131 0.15568 1.86509 0.34751 1.86509L1.561 1.86509C1.75268 1.86509 1.90836 1.71307 1.90836 1.5254L1.90836 0.339724Z" transform="translate(6.548222 10.88574)" id="Path" fill="#FAAE17" stroke="none" />
    <path d="M1.90855 0.339724C1.90855 0.151841 1.75287 0 1.56119 0L0.347699 0C0.155648 0 0 0.151841 0 0.339724L0 1.5254C0 1.7131 0.155648 1.86509 0.347699 1.86509L1.56119 1.86509C1.75287 1.86509 1.90855 1.71307 1.90855 1.5254L1.90855 0.339724L1.90855 0.339724Z" transform="translate(9.580482 10.88574)" id="Path" fill="#FAAE17" stroke="none" />
    <path d="M13.6457 0.00650307L13.6457 1.81785C13.6457 2.63656 12.9662 3.29632 12.1288 3.29632L11.1719 3.29632C10.3344 3.29632 9.64597 2.63656 9.64597 1.81785L9.64597 0L5.333 0L5.333 1.81785C5.333 2.63656 4.64457 3.29632 3.80721 3.29632L2.85013 3.29632C2.01273 3.29632 1.33331 2.63656 1.33331 1.81785L1.33331 0.00650307C0.601412 0.0280675 0 0.620061 0 1.3477L0 11.9631C0 12.7044 0.614686 13.3132 1.37306 13.3132L13.6059 13.3132C14.3632 13.3132 14.979 12.7031 14.979 11.9631L14.979 1.3477C14.979 0.620061 14.3776 0.0280675 13.6457 0.00650307ZM13.2013 11.302C13.2013 11.6224 12.9355 11.8823 12.6077 11.8823L2.34518 11.8823C2.01731 11.8823 1.75158 11.6224 1.75158 11.302L1.75158 5.8188C1.75158 5.49831 2.01728 5.2384 2.34518 5.2384L12.6076 5.2384C12.9355 5.2384 13.2012 5.49831 13.2012 5.8188L13.2013 11.302L13.2013 11.302Z" transform="translate(0.01289749 1.660798)" id="Shape" fill="#FAAE17" stroke="none" />
    <path d="M0.52023 3.98604L1.46674 3.98604C1.75403 3.98604 1.98697 3.75868 1.98697 3.47785L1.98697 0.508374C1.98697 0.227515 1.75403 0 1.46674 0L0.52023 0C0.232908 0 0 0.227515 0 0.508374L0 3.47785C0 3.75868 0.232908 3.98604 0.52023 3.98604Z" transform="translate(2.339435 0)" id="Path" fill="#FAAE17" stroke="none" />
    <path d="M0.520199 3.98604L1.4667 3.98604C1.75381 3.98604 1.98675 3.75868 1.98675 3.47785L1.98675 0.508374C1.98678 0.227515 1.75384 0 1.4667 0L0.520199 0C0.232939 0 0 0.227515 0 0.508374L0 3.47785C0 3.75868 0.232939 3.98604 0.520199 3.98604Z" transform="translate(10.65245 0)" id="Path" fill="#FAAE17" stroke="none" />
  </g>
</svg>