<?xml version="1.0" encoding="utf-8"?>
<svg width="25px" height="25px" viewBox="0 0 25 25" version="1.1" xmlns:xlink="http://www.w3.org/1999/xlink" xmlns="http://www.w3.org/2000/svg">
  <desc>Created with Lunacy</desc>
  <g id="auricular-phone-symbol-in-a-circle">
    <path d="M12.5 1.5625C18.5303 1.5625 23.4375 6.46973 23.4375 12.5C23.4375 18.5303 18.5303 23.4375 12.5 23.4375C6.46973 23.4375 1.5625 18.5303 1.5625 12.5C1.5625 6.46973 6.46973 1.5625 12.5 1.5625L12.5 1.5625ZM12.5 0C5.59692 0 0 5.59692 0 12.5C0 19.4031 5.59692 25 12.5 25C19.4031 25 25 19.4031 25 12.5C25 5.59692 19.4031 0 12.5 0L12.5 0ZM19.4687 16.6794L19.3985 16.4658C19.2337 15.9745 18.6905 15.4618 18.19 15.3244L16.3422 14.8193C15.8417 14.6835 15.1276 14.8666 14.7599 15.2344L14.0916 15.9027C11.6624 15.2451 9.75654 13.3393 9.10039 10.9101L9.76875 10.2417C10.135 9.87549 10.3181 9.16138 10.1823 8.65937L9.67866 6.81152C9.54287 6.31104 9.0271 5.76782 8.53579 5.60303L8.3252 5.53281C7.83232 5.36802 7.12891 5.53433 6.7627 5.9021L5.76172 6.90308C5.5832 7.08008 5.46875 7.58818 5.46875 7.58975C5.43516 10.7667 6.68032 13.826 8.92642 16.0736C11.1664 18.3136 14.2151 19.5573 17.3813 19.5297C17.3981 19.5297 17.9215 19.4184 18.1 19.2398L19.101 18.2388C19.4672 17.8741 19.6319 17.1707 19.4687 16.6794Z" id="Shape" fill="#FAAE17" stroke="none" />
  </g>
</svg>