<?xml version="1.0" encoding="utf-8"?>
<svg width="18px" height="18px" viewBox="0 0 18 18" version="1.1" xmlns:xlink="http://www.w3.org/1999/xlink" xmlns="http://www.w3.org/2000/svg">
  <desc>Created with Lunacy</desc>
  <g id="facebook">
    <path d="M15.75 0L2.25 0C1.00912 0 0 1.00912 0 2.25L0 15.75C0 16.9909 1.00912 18 2.25 18L9 18L9 11.8125L6.75 11.8125L6.75 9L9 9L9 6.75C9 4.88587 10.5109 3.375 12.375 3.375L14.625 3.375L14.625 6.1875L13.5 6.1875C12.879 6.1875 12.375 6.129 12.375 6.75L12.375 9L15.1875 9L14.0625 11.8125L12.375 11.8125L12.375 18L15.75 18C16.9909 18 18 16.9909 18 15.75L18 2.25C18 1.00912 16.9909 0 15.75 0Z" id="Path" fill="#FAAE17" stroke="none" />
  </g>
</svg>