<?xml version="1.0" encoding="utf-8"?>
<svg width="25px" height="6px" viewBox="0 0 25 6" version="1.1" xmlns:xlink="http://www.w3.org/1999/xlink" xmlns="http://www.w3.org/2000/svg">
  <desc>Created with Lunacy</desc>
  <path d="M24.7171 0.269181C24.5405 0.0899256 24.3311 0 24.0896 0L0.892285 0C0.650488 0 0.441455 0.0899256 0.264795 0.269181C0.0883301 0.448685 0 0.66134 0 0.906898L0 4.53395C0 4.7797 0.0883301 4.99226 0.264844 5.17166C0.44165 5.35117 0.650781 5.44084 0.892334 5.44084L24.0897 5.44084C24.3311 5.44084 24.5405 5.35117 24.7171 5.17166C24.8936 4.99226 24.982 4.7797 24.982 4.53395L24.982 0.906898C24.9819 0.66134 24.8936 0.448834 24.7171 0.269181ZM23.1972 3.62739L17.8442 3.62739L17.8442 1.81365L23.1972 1.81365L23.1972 3.62739L23.1972 3.62739Z" id="Shape" fill="#FAAE17" stroke="none" />
</svg>