<?xml version="1.0" encoding="utf-8"?>
<svg width="25px" height="6px" viewBox="0 0 25 6" version="1.1" xmlns:xlink="http://www.w3.org/1999/xlink" xmlns="http://www.w3.org/2000/svg">
  <desc>Created with Lunacy</desc>
  <path d="M24.0896 0L0.892285 0C0.650488 0 0.441455 0.0897767 0.264795 0.26928C0.0883301 0.448685 0 0.661241 0 0.906749L0 4.5339C0 4.77945 0.0883301 4.99211 0.264844 5.17146C0.44165 5.35082 0.650781 5.44084 0.892334 5.44084L24.0897 5.44084C24.3311 5.44084 24.5405 5.35087 24.7171 5.17146C24.8936 4.99216 24.982 4.7795 24.982 4.5339L24.982 0.906749C24.982 0.661241 24.8936 0.448734 24.7171 0.26928C24.5404 0.089727 24.3311 0 24.0896 0ZM23.1972 3.6273L8.92227 3.6273L8.92227 1.81375L23.1972 1.81375L23.1972 3.6273Z" id="Shape" fill="#FAAE17" stroke="none" />
</svg>