<?xml version="1.0" encoding="utf-8"?>
<svg width="25px" height="6px" viewBox="0 0 25 6" version="1.1" xmlns:xlink="http://www.w3.org/1999/xlink" xmlns="http://www.w3.org/2000/svg">
  <desc>Created with Lunacy</desc>
  <path d="M24.0896 0L0.892285 0C0.650488 0 0.441455 0.0898759 0.264795 0.269231C0.0883301 0.448536 0 0.661489 0 0.907097L0 4.53404C0 4.7793 0.0883301 4.99226 0.264844 5.17161C0.44165 5.35097 0.650781 5.44099 0.892334 5.44099L24.0897 5.44099C24.3311 5.44099 24.5405 5.35102 24.7171 5.17161C24.8936 4.99231 24.982 4.77935 24.982 4.53404L24.982 0.907097C24.982 0.661489 24.8936 0.448536 24.7171 0.269181C24.5404 0.0898263 24.3311 0 24.0896 0ZM23.1975 3.62749L14.2758 3.62749L14.2758 1.8137L23.1979 1.8137L23.1979 3.62749L23.1975 3.62749Z" id="Shape" fill="#FAAE17" stroke="none" />
</svg>