<svg width="183" height="116" viewBox="0 0 183 116" fill="none" xmlns="http://www.w3.org/2000/svg">
<mask id="mask0" mask-type="alpha" maskUnits="userSpaceOnUse" x="0" y="0" width="183" height="116">
<path fill-rule="evenodd" clip-rule="evenodd" d="M0 0.0915527H182.575V116H0V0.0915527Z" fill="white"/>
</mask>
<g mask="url(#mask0)">
<path fill-rule="evenodd" clip-rule="evenodd" d="M143.704 1.51201C146.256 2.93977 148.195 5.06954 149.28 7.84829C149.979 9.63802 150.075 10.8574 150.203 12.9232C158.131 13.0475 163.732 17.5757 165.135 24.3179C166.227 24.3946 168.202 23.5263 171.956 24.667C174.039 25.2996 175.51 26.2008 176.936 27.2758C180.289 29.8041 181.609 32.7016 182.429 36.4749C182.439 36.5133 182.464 36.6248 182.474 36.6595L182.575 36.9301V39.8185C182.402 40.2043 182.367 43.1457 180.4 46.0305L177.274 49.2571C170.717 54.46 164.006 59.9681 157.538 65.3209C155.464 67.0375 152.454 69.3482 150.532 71.0246C149.186 72.2001 149.423 71.4908 148.778 73.3921C147.378 77.52 145.718 81.6808 144.184 85.6935C142.626 89.7757 141.136 93.8214 139.541 97.8323C136.567 105.315 134.975 114.039 125.834 115.766C125.374 115.85 124.429 115.865 124.115 116H122.32L122.132 115.931C122.1 115.922 122.069 115.911 122.034 115.901C120.389 115.461 119.997 115.746 117.707 114.417C115.093 112.9 113.233 110.379 112.461 107.41C111.712 104.534 112.215 103.649 112.045 101.977C107.978 104.037 104.416 104.185 100.19 102.368C99.6727 102.145 99.1089 101.741 98.656 101.446C97.5211 100.708 96.9554 100.024 96.1329 99.0644C94.0052 96.5782 93.1993 92.8524 93.7113 89.5381C93.9923 87.7081 94.6134 86.9695 94.9202 85.933C94.0755 85.7995 93.2548 85.5747 92.434 85.3242C89.1031 84.3041 91.2011 84.2475 87.798 85.359C85.9052 85.975 86.1677 85.5198 85.7832 86.4686C84.6593 89.2492 82.2988 91.4521 79.502 92.5563C76.4927 93.7464 71.6866 93.6458 68.7623 92.4338C66.2003 91.3753 63.3832 88.6971 62.6679 86.1432C60.7917 86.1432 59.4626 86.1231 57.7768 85.7995C54.9079 85.2511 55.4163 84.6661 53.7471 85.2712C51.3847 86.1268 46.8874 86.1012 44.4492 85.3297C43.3549 84.9842 43.6322 84.7301 42.5416 85.1688C40.1959 86.114 35.8371 86.1213 33.3454 85.4485C32.7058 85.2749 32.0829 84.8325 31.3379 85.05C29.8943 85.4723 28.7223 85.8324 27.1881 86.0408C14.4039 87.7885 4.73822 79.9331 1.45716 70.9862C-2.51154 60.1674 1.87307 48.4747 11.6053 42.7253C16.2025 40.0068 22.5132 38.6138 28.6761 39.9794C31.349 40.5699 29.5523 40.3926 32.3916 39.3377C34.826 38.4346 38.9832 38.3304 41.4732 38.9611C42.1386 39.1293 42.7468 39.3615 43.3808 39.6321C43.9723 39.8862 44.4843 40.2993 44.9982 40.5041C45.1091 37.069 45.0075 33.4658 45.0075 30.0088V19.4825C45.0075 15.6928 45.4677 13.6946 47.3624 11.2523C51.5918 5.79347 57.3221 6.89949 64.0949 6.89949C66.7992 6.89949 68.8252 6.91046 71.3336 7.67644C74.2394 8.56308 72.4297 8.52287 75.0139 7.5631C77.2561 6.7313 79.807 6.83916 82.2489 6.89949C86.6649 7.00735 88.8221 9.58318 89.6502 9.99451C89.9719 9.80438 90.1863 9.52285 90.5246 9.26508C93.2289 7.21393 95.4027 6.89949 98.8427 6.89949C103.771 6.89949 104.989 7.59052 108.008 9.80255C112.483 7.12435 118.548 5.78616 124.709 6.56129C125.335 6.6399 126.337 6.9909 126.871 6.74776C128.394 6.05672 127.945 4.96899 130.517 2.81363C133.814 0.0458496 137.615 0.215865 137.899 0.0915527H139.16C139.763 0.400506 140.907 0.440725 141.559 0.634506C142.286 0.850225 143.068 1.15552 143.704 1.51201Z" fill="white"/>
</g>
<path fill-rule="evenodd" clip-rule="evenodd" d="M173.542 37.85C174.949 35.7122 172.843 33.2908 170.892 33.0145C169.03 32.7512 166.199 36.1331 164.025 37.9094L153.827 47.1799C151.447 49.7849 141.138 58.4083 137.453 62.1203L112.836 84.3473C111.906 85.38 106.926 89.0604 107.001 90.1043C107.251 93.5807 114.454 85.9937 117.846 83.4295L171.495 39.4297C171.926 39.0682 173.534 37.8611 173.542 37.85Z" fill="#191919"/>
<path fill-rule="evenodd" clip-rule="evenodd" d="M138 58C140.121 56.6122 140.097 56.0434 141.451 54.985C146.179 51.2878 145.946 49.4841 148.524 42.2391C149.641 39.0981 150.938 35.8616 152.152 32.6918C152.767 31.088 153.338 29.5472 153.971 27.9146C154.662 26.1254 155.836 24.2425 154.079 22.8295C152.563 21.6091 150.232 21.7585 149.345 23.1247L144.447 37.9838C143.37 41.3643 142.275 44.5899 141.214 47.9199C140.332 50.7027 138.415 55.4836 138 58Z" fill="#191919"/>
<path fill-rule="evenodd" clip-rule="evenodd" d="M125.174 102C126.575 102.005 127.249 100.163 127.995 98.2555C129.734 93.8141 140.754 66.5065 141 65C139.746 65.8041 138.509 66.8187 137.178 67.8714C135.144 69.4832 135.382 69.0694 134.411 71.8609L127.678 91.9064C126.892 94.148 124.313 100.076 125.174 102Z" fill="#191919"/>
<path fill-rule="evenodd" clip-rule="evenodd" d="M26.2807 74.041C24.578 74.041 22.9857 73.7228 21.4982 73.0881C20.0107 72.4517 18.7126 71.5893 17.6039 70.4973C16.4951 69.407 15.6162 68.1306 14.9708 66.6679C14.3236 65.207 14 63.6395 14 61.9653C14 60.2928 14.3236 58.7199 14.9708 57.2463C15.6162 55.7746 16.4951 54.4927 17.6039 53.4007C18.7126 52.3105 20.0107 51.448 21.4982 50.8116C22.9857 50.177 24.578 49.8588 26.2807 49.8588C28.2407 49.8588 30.05 50.2728 31.7104 51.0991C33.3689 51.9254 34.7589 53.0355 35.8787 54.4349L33.9407 55.5468C33.0342 54.4457 31.92 53.5652 30.5943 52.9089C29.2704 52.2526 27.8325 51.9254 26.2807 51.9254C24.9017 51.9254 23.6035 52.1893 22.3863 52.7191C21.1691 53.2488 20.1082 53.9684 19.2035 54.8797C18.2989 55.7909 17.5836 56.854 17.0541 58.0726C16.5264 59.2912 16.2634 60.5894 16.2634 61.9653C16.2634 63.343 16.5264 64.6393 17.0541 65.8579C17.5836 67.0765 18.2989 68.136 19.2035 69.0364C20.1082 69.935 21.1691 70.6509 22.3863 71.1807C23.6035 71.7104 24.9017 71.9744 26.2807 71.9744C27.8325 71.9744 29.2704 71.6526 30.5943 71.0053C31.92 70.3598 33.0342 69.4848 33.9407 68.3855L35.8787 69.4974C34.7589 70.895 33.3689 72.0015 31.7104 72.8169C30.05 73.6324 28.2407 74.041 26.2807 74.041ZM41.1135 60.7575C41.8453 59.8047 42.7996 59.0417 43.9727 58.4704C45.1476 57.899 46.3814 57.6134 47.674 57.6134C49.2902 57.6134 50.5056 58.0563 51.3256 58.9459C52.1438 59.8372 52.5539 60.9907 52.5539 62.41V73.6269H50.4522V62.4733C50.4522 60.5243 49.3325 59.5497 47.0911 59.5497C45.7985 59.5497 44.5868 59.9258 43.456 60.6779C42.3252 61.4301 41.5437 62.4733 41.1135 63.8076V73.6269H39.0118V49H41.1135V60.7575ZM77.6944 81H75.5615V58.0256H77.6944V60.8859C78.4501 59.868 79.3805 59.0742 80.4892 58.5011C81.5998 57.9298 82.8207 57.6441 84.1575 57.6441C86.4209 57.6441 88.289 58.4125 89.7636 59.9475C91.2401 61.4843 91.9774 63.4496 91.9774 65.8416C91.9774 68.2155 91.2401 70.1682 89.7636 71.705C88.289 73.24 86.4209 74.0084 84.1575 74.0084C82.8207 74.0084 81.5998 73.7228 80.4892 73.1514C79.3805 72.5783 78.4501 71.7846 77.6944 70.7667V81ZM89.7802 65.8109C89.7802 63.9468 89.2304 62.4317 88.1327 61.2674C87.0332 60.1012 85.6339 59.519 83.9313 59.519C82.122 59.519 80.6198 60.1337 79.4228 61.3614C78.2276 62.5908 77.6301 64.0734 77.6301 65.8109C77.6301 67.5484 78.2276 69.031 79.4228 70.2604C80.6198 71.4881 82.122 72.1028 83.9313 72.1028C85.6339 72.1028 87.0332 71.5188 88.1327 70.3544C89.2304 69.1883 89.7802 67.675 89.7802 65.8109ZM95.9858 70.0995C96.394 70.7359 97.0578 71.2548 97.9734 71.658C98.8873 72.0594 99.8305 72.2619 100.8 72.2619C101.899 72.2619 102.842 71.9907 103.627 71.4501C104.414 70.9113 104.808 70.1845 104.808 69.275C104.808 68.2788 104.359 67.6062 103.467 67.2573C102.572 66.9065 101.553 66.6155 100.412 66.3822C99.7662 66.2557 99.1208 66.102 98.4736 65.9212C97.8282 65.7422 97.2453 65.4981 96.7287 65.1907C96.212 64.8834 95.7909 64.4856 95.4673 63.9993C95.1455 63.5129 94.9837 62.8982 94.9837 62.1569C94.9837 60.7575 95.5335 59.6564 96.6312 58.8519C97.7307 58.0473 99.0564 57.6441 100.606 57.6441C101.726 57.6441 102.809 57.8665 103.854 58.3113C104.898 58.756 105.668 59.3816 106.165 60.1862L104.58 61.2348C104.278 60.6834 103.736 60.2386 102.949 59.9005C102.164 59.5606 101.393 59.3906 100.638 59.3906C99.7331 59.3906 98.9149 59.6293 98.1831 60.1066C97.4513 60.5839 97.0835 61.224 97.0835 62.0285C97.0835 62.9181 97.5266 63.5382 98.4092 63.8872C99.2918 64.2379 100.347 64.529 101.575 64.7622C102.179 64.8888 102.798 65.0425 103.434 65.2233C104.069 65.4023 104.646 65.6518 105.163 65.97C105.679 66.2864 106.106 66.695 106.439 67.1922C106.773 67.6912 106.941 68.3204 106.941 69.0834C106.941 70.6094 106.327 71.8117 105.098 72.6904C103.87 73.5691 102.427 74.0084 100.768 74.0084C99.4959 74.0084 98.2695 73.7499 97.0835 73.231C95.8994 72.7121 95.026 72.007 94.4652 71.1174L95.9858 70.0995ZM117.151 58.0256V59.8372H113.597V69.2118C113.597 70.0362 113.904 70.7305 114.518 71.291C115.132 71.8533 115.87 72.1335 116.732 72.1335C116.969 72.1335 117.142 72.1227 117.249 72.1028L117.475 74.0084H116.925C115.288 74.0084 113.974 73.5691 112.983 72.6904C111.992 71.8117 111.497 70.6184 111.497 69.1159V59.8372H108.653V58.0256H111.497V51.8928H113.597V58.0256H117.151ZM120.867 73.6269H123V58.0256H120.867V73.6269ZM120.867 53.5453H123V50.3361H120.867V53.5453Z" fill="#231F20"/>
<path fill-rule="evenodd" clip-rule="evenodd" d="M62.5 57C63.682 57 64.7875 57.2272 65.8145 57.6761C66.8434 58.1287 67.7397 58.7391 68.5053 59.5091C69.2709 60.2791 69.8777 61.1824 70.3259 62.2153C70.7759 63.2501 71 64.3506 71 65.5169C71 66.6832 70.7759 67.7781 70.3259 68.8016C69.8777 69.8232 69.2709 70.7209 68.5053 71.4909C67.7397 72.2609 66.8434 72.8713 65.8145 73.322C64.7875 73.7746 63.682 74 62.5 74C61.318 74 60.2144 73.7746 59.1855 73.322C58.1566 72.8713 57.2603 72.2609 56.4947 71.4909C55.7291 70.7209 55.1204 69.8232 54.6741 68.8016C54.2241 67.7781 54 66.6832 54 65.5169C54 64.3506 54.2241 63.2501 54.6741 62.2153C55.1204 61.1824 55.7291 60.2791 56.4947 59.5091C57.2603 58.7391 58.1566 58.1287 59.1855 57.6761C60.2144 57.2272 61.318 57 62.5 57ZM56.1661 65.5169C56.1661 67.3217 56.7842 68.8542 58.0203 70.12C59.2565 71.3858 60.7597 72.0187 62.5336 72.0187C64.2833 72.0187 65.7715 71.3858 66.9965 70.12C68.2214 68.8542 68.8339 67.3217 68.8339 65.5169C68.8339 63.7121 68.2214 62.1778 66.9965 60.912C65.7715 59.6462 64.2833 59.0133 62.5336 59.0133C60.7597 59.0133 59.2565 59.6462 58.0203 60.912C56.7842 62.1778 56.1661 63.7121 56.1661 65.5169Z" fill="#231F20"/>
<path fill-rule="evenodd" clip-rule="evenodd" d="M118.105 41.8409C119.521 40.6758 122.091 41.3582 122.567 42.8673C121.54 42.9025 118.536 42.3976 118.105 41.8409ZM117.316 18.3798C117.775 18.2448 117.361 18.3909 117.725 18.2152C117.814 18.1726 117.844 18.1634 117.918 18.1153C118.066 18.0247 118.008 18.0654 118.11 17.9674C118.49 17.9877 119.198 17.6012 119.657 17.4699C120.126 17.3349 120.823 17.2683 121.384 17.1851C124.856 16.671 128.341 17.886 130.868 19.7779C133.439 21.7031 136.355 25.8346 135.863 30.9037C135.474 30.9259 134.938 30.7465 134.497 30.6836C132.894 30.4525 134.083 30.3378 131.83 28.5754C128.784 26.1934 125.465 25.818 121.917 26.9905C119.743 27.7062 118.743 29.0507 118.082 29.4668C116.644 29.0525 115.993 28.5902 114.255 28.5495C111.592 28.4866 111.767 28.8657 110.167 29.1616C110.043 28.0409 110.611 26.3487 110.944 25.4166C111.342 24.307 111.873 23.3805 112.512 22.4891C114.649 19.4986 116.733 18.9013 117.316 18.3798ZM117.374 17.2258C117.253 17.2739 117.127 17.3034 116.97 17.3756C116.528 17.579 116.872 17.3478 116.641 17.6178C116.298 17.6141 115.28 18.3483 115.043 18.5074C114.564 18.8292 113.89 19.4802 113.526 19.6244L112.149 21.1668C108.292 25.9862 108.027 32.189 111.086 37.3432C113.905 42.0961 120.922 45.7986 127.936 43.0744C130.803 41.9611 133.061 40.1025 134.647 37.715C139.779 29.9864 136.202 19.4802 126.963 16.5803C126.67 16.4897 124.492 16.0625 124.481 16.0551C123.043 15.9386 121.843 16.0107 120.513 16.2345C119.872 16.3418 117.664 16.9391 117.374 17.2258ZM116.237 40.8829C116.622 39.9083 119.171 38.8412 121.121 39.3591C121.917 39.5699 122.091 39.7567 122.678 40.0248L122.697 41.0993C122.139 40.9625 121.827 40.5427 121.197 40.3577C120.551 40.1672 119.852 40.1191 119.173 40.2283C117.272 40.5334 117 42.0665 116.237 40.8829ZM115.21 40.2227C114.908 40.0896 114.818 39.9786 114.57 39.7345C114.827 38.9337 117.022 37.7076 118.097 37.4542C119.744 37.0658 121.629 37.2045 123.004 37.9147L122.861 38.8431C121.677 38.6322 119.861 37.2138 116.665 39.0872C116.056 39.4423 115.641 40.0156 115.21 40.2227ZM129.785 40.8903C129.68 38.9577 131.329 37.3525 133.285 37.6576C133.115 38.2864 130.54 40.735 129.785 40.8903ZM134.068 36.6534C132.872 36.6608 131.66 36.2114 130.055 37.6317C128.961 38.599 128.719 39.6457 128.747 41.4581C128.523 41.6837 128.356 41.8132 127.947 41.8354C127.129 40.3004 128.436 36.5628 131.466 35.7879C132.328 35.5678 133.661 35.4643 134.386 35.9063C134.334 36.2595 134.223 36.3335 134.068 36.6534ZM113.676 38.8727C113.446 38.697 113.341 38.6045 113.191 38.2994C113.385 37.8093 114.534 36.9604 115.064 36.6183C118.132 34.6228 120.733 35.1092 123.661 35.9858C123.657 36.4703 123.557 36.5184 123.441 36.8698C122.824 36.794 122.704 36.4574 120.816 36.217C116.483 35.6659 114.249 38.6674 113.676 38.8727ZM112.432 37.3266C112.23 37.1583 111.93 36.7163 111.851 36.3834C112.321 35.6991 113.32 35.6141 114.29 35.6917C114.109 36.119 113.857 36.1264 113.359 36.5462C113.065 36.794 112.806 37.1638 112.432 37.3266ZM110.968 34.4434C111.853 33.9774 112.7 33.5631 113.966 33.6075C114.708 33.6352 116.395 34.0236 116.678 34.6838C116.122 34.8336 115.954 35.0796 115.291 34.854C114.19 34.4767 113.496 34.4416 112.393 34.8004C111.866 34.9742 111.688 35.1998 111.281 35.3034C111.072 35.0611 111.003 34.7948 110.968 34.4434ZM134.969 34.7893C134.31 34.7856 133.872 34.5858 133.122 34.5581C130.209 34.4545 128.136 36.045 127.033 38.623C126.487 39.8954 126.818 40.9902 126.818 42.3273L126.021 42.4697C124.473 37.1084 129.915 32.0799 135.225 34.0717L134.969 34.7893ZM123.154 34.6616C123.23 33.9681 124.59 33.3597 125.641 33.4429C125.587 33.5853 124.538 34.9391 124.301 35.1277L123.154 34.6616ZM110.418 32.4609C111.973 31.7285 113.394 31.3457 115.469 31.8155C116.68 32.091 118.717 33.2173 119.111 34.0865C118.876 34.2548 118.264 34.338 117.979 34.1919C117.781 34.092 117.416 33.7314 117.161 33.5705C113.84 31.4807 111.723 33.0841 110.613 33.3911C110.413 33.0823 110.385 32.8918 110.418 32.4609ZM124.02 42.7785C123.526 41.5228 123.816 38.9097 124.277 37.6928C124.868 36.1337 125.606 35.0463 126.617 34.0957C128.852 31.9912 132.695 30.913 135.693 32.0873C135.687 32.3925 135.65 32.6329 135.515 32.8715C135.04 32.9029 134.642 32.742 134.258 32.6625C130.488 31.8894 126.376 34.2862 125.121 38.0663C124.264 40.6444 124.979 41.6911 124.877 42.7896L124.02 42.7785ZM122.088 32.7457C123.35 31.2459 126.496 31.0239 127.649 31.9671C127.285 32.1872 127.061 32.5312 126.439 32.4646C123.366 32.1317 123.565 33.1359 122.48 33.5187C122.354 33.2654 122.18 33.0453 122.088 32.7457ZM110.137 30.3637C112.619 29.415 114.74 29.3188 117.281 30.2971C118.862 30.9037 121.477 33.1322 121.617 34.2511C120.735 34.2233 120.62 34.3047 120.192 33.6981C118.743 31.6472 116.035 30.4358 113.291 30.5727C111.627 30.6559 110.731 31.2662 110.128 31.3235L110.137 30.3637ZM120.77 31.207C121.638 30.5875 121.455 30.569 122.617 30.0105C124.929 28.8972 128.776 29.5814 129.755 30.9259C128.928 31.6157 128.621 31.1608 127.792 30.7983C126.326 30.1584 124.505 30.2176 123.069 30.826C122.691 30.9869 122.434 31.133 122.125 31.3291C121.782 31.5492 121.651 31.7396 121.34 31.8654C121.123 31.6953 120.89 31.5011 120.77 31.207ZM119.165 30.0641C119.463 29.4723 121.14 28.4311 121.962 28.1093C123.141 27.647 124.49 27.3233 125.93 27.4066C128.212 27.5416 131.225 28.8935 132.243 30.5302C131.207 30.7872 131.227 30.7114 130.607 30.1843C129.415 29.1746 127.712 28.4847 126.126 28.383C123.069 28.187 121.564 29.2837 119.889 30.5283L119.165 30.0641Z" fill="#006837"/>
<path fill-rule="evenodd" clip-rule="evenodd" d="M60.8036 31.7292V45.4472H58V16.551H67.4505C69.6133 16.551 71.4472 17.2874 72.9561 18.7585C74.4632 20.2314 75.2186 22.0189 75.2186 24.121C75.2186 26.2485 74.4632 28.0506 72.9561 29.5216C71.4472 30.9927 69.6133 31.7292 67.4505 31.7292H60.8036ZM67.1698 29.3634C68.6122 29.3634 69.8404 28.8506 70.8525 27.8269C71.8683 26.8013 72.3762 25.5666 72.3762 24.121C72.3762 22.7008 71.8757 21.4934 70.8747 20.4933C69.8737 19.495 68.651 18.9967 67.2105 18.9967H60.8036V29.3634H67.1698ZM83.3855 32.0056V45.4472H80.582V16.551H83.3855V29.5216H99.1617V16.551H101.965V45.4472H99.1617V32.0056H83.3855ZM122.785 16C124.894 16 126.869 16.3928 128.712 17.182C130.553 17.9711 132.162 19.0422 133.536 20.3951C134.91 21.748 136 23.3391 136.8 25.1647C137.601 26.9922 138 28.9434 138 31.02C138 33.0948 137.601 35.0405 136.8 36.8534C136 38.6664 134.91 40.252 133.536 41.6049C132.162 42.9578 130.553 44.0289 128.712 44.818C126.869 45.6054 124.894 46 122.785 46C120.676 46 118.702 45.6054 116.86 44.818C115.017 44.0289 113.409 42.9578 112.035 41.6049C110.66 40.252 109.573 38.6664 108.771 36.8534C107.971 35.0405 107.571 33.0948 107.571 31.02C107.571 28.9434 107.971 26.9922 108.771 25.1647C109.573 23.3391 110.66 21.748 112.035 20.3951C113.409 19.0422 115.017 17.9711 116.86 17.182C118.702 16.3928 120.676 16 122.785 16ZM110.372 31.02C110.372 32.7275 110.701 34.3386 111.355 35.8497C112.009 37.3608 112.897 38.6737 114.016 39.792C115.137 40.9085 116.452 41.7959 117.961 42.4523C119.468 43.1087 121.077 43.4379 122.785 43.4379C124.494 43.4379 126.102 43.1087 127.611 42.4523C129.118 41.7959 130.433 40.9085 131.554 39.792C132.675 38.6737 133.564 37.3608 134.218 35.8497C134.871 34.3386 135.198 32.7275 135.198 31.02C135.198 29.3107 134.871 27.7014 134.218 26.1903C133.564 24.6792 132.675 23.3573 131.554 22.228C130.433 21.0988 129.118 20.2041 127.611 19.5477C126.102 18.8913 124.494 18.5621 122.785 18.5621C121.077 18.5621 119.468 18.8913 117.961 19.5477C116.452 20.2041 115.137 21.0988 114.016 22.228C112.897 23.3573 112.009 24.6792 111.355 26.1903C110.701 27.7014 110.372 29.3107 110.372 31.02Z" fill="#006837"/>
<path fill-rule="evenodd" clip-rule="evenodd" d="M137.528 14.9739C137.786 15.1539 138.392 14.3509 138.602 14.161C140.763 12.2109 140.004 8.27699 139.076 9.11559C138.527 9.61202 139.631 11.3841 138.295 12.9189C137.946 13.3204 136.702 14.3984 137.066 14.6515L137.528 14.9739Z" fill="#006837"/>
<path fill-rule="evenodd" clip-rule="evenodd" d="M134.822 20C135.619 19.3024 136.791 19.3374 137.581 17.8904C138.109 16.924 138.341 14.5441 137.022 14.741C136.821 14.8361 137.021 14.4806 136.715 15.0147C136.471 15.4386 136.749 15.5505 136.757 16.2631C136.778 18.4311 134.875 18.1174 133.655 19.5427L134.822 20ZM132.159 18.9552C132.737 18.2425 133.708 17.9438 134.078 17.7035C136.818 15.926 135.855 12.341 134.678 13.1054C133.982 13.556 135.382 15.1716 133.69 16.5702C133.131 17.0342 131.765 17.2946 131 18.5012L132.159 18.9552Z" fill="#006837"/>
</svg>
