<svg width="193" height="116" viewBox="0 0 193 116" fill="none" xmlns="http://www.w3.org/2000/svg">
<g filter="url(#filter0_d)">
<mask id="mask0" mask-type="alpha" maskUnits="userSpaceOnUse" x="112" y="29" width="77" height="68">
<path fill-rule="evenodd" clip-rule="evenodd" d="M112.073 29.8655H188.032V96.587H112.073V29.8655Z" fill="white"/>
</mask>
<g mask="url(#mask0)">
<path fill-rule="evenodd" clip-rule="evenodd" d="M187.513 35.4448C189.109 32.9856 186.719 30.2 184.506 29.8822C182.397 29.5793 179.188 33.4697 176.724 35.5131L165.163 46.1776C162.462 49.1765 150.773 59.0945 146.597 63.3646L118.688 88.9339C117.635 90.1219 111.989 94.3557 112.074 95.5565C112.355 99.5557 120.522 90.8279 124.368 87.8781L185.193 37.2642C185.681 36.8461 187.505 35.4576 187.513 35.4448Z" fill="white"/>
</g>
<path fill-rule="evenodd" clip-rule="evenodd" d="M149 60C151.622 58.3423 151.593 57.665 153.265 56.3986C159.103 51.9823 158.815 49.8279 161.997 41.1759C163.379 37.4218 164.982 33.5581 166.484 29.7696C167.243 27.8539 167.946 26.0134 168.728 24.0654C169.582 21.9261 171.033 19.6792 168.864 17.9893C166.99 16.5337 164.109 16.7121 163.017 18.3419L156.964 36.0931C155.636 40.1288 154.28 43.9818 152.973 47.9616C151.88 51.2857 149.512 56.9942 149 60Z" fill="white"/>
<path fill-rule="evenodd" clip-rule="evenodd" d="M134.185 110C135.672 110.006 136.39 107.865 137.183 105.648C139.031 100.487 150.738 68.7508 151 67C149.667 67.9345 148.353 69.1136 146.939 70.3371C144.777 72.2102 145.031 71.7272 144 74.9735L136.846 98.2696C136.009 100.875 133.268 107.766 134.185 110Z" fill="white"/>
<mask id="mask1" mask-type="alpha" maskUnits="userSpaceOnUse" x="4" y="46" width="127" height="39">
<path fill-rule="evenodd" clip-rule="evenodd" d="M4 46.7418H130.649V84.1722H4V46.7418Z" fill="white"/>
</mask>
<g mask="url(#mask1)">
<path fill-rule="evenodd" clip-rule="evenodd" d="M18.2698 76.0323C16.2914 76.0323 14.4391 75.66 12.7107 74.9177C10.9845 74.1733 9.47615 73.1645 8.18573 71.8872C6.89745 70.6119 5.87623 69.1189 5.12634 67.408C4.37431 65.6992 3.99829 63.8656 3.99829 61.9073C3.99829 59.9511 4.37431 58.109 5.12634 56.3876C5.87623 54.6661 6.89745 53.1667 8.18573 51.8914C9.47615 50.6141 10.9845 49.6053 12.7107 48.8609C14.4391 48.1186 16.2914 47.7464 18.2698 47.7464C20.5451 47.7464 22.6495 48.2307 24.5766 49.1971C26.5036 50.1636 28.1167 51.4621 29.4199 53.099L27.1681 54.3996C26.1169 53.1117 24.8201 52.0839 23.2819 51.3141C21.7415 50.5464 20.0708 50.1636 18.2698 50.1636C16.6674 50.1636 15.1591 50.4724 13.7448 51.092C12.3304 51.7117 11.0977 52.5534 10.0444 53.6193C8.99331 54.6851 8.16223 55.9308 7.54693 57.3541C6.93377 58.7794 6.62826 60.2979 6.62826 61.9073C6.62826 63.5188 6.93377 65.0351 7.54693 66.4605C8.16223 67.8859 8.99331 69.1252 10.0444 70.1784C11.0977 71.2295 12.3304 72.0669 13.7448 72.6866C15.1591 73.3062 16.6674 73.615 18.2698 73.615C20.0708 73.615 21.7415 73.2386 23.2819 72.4814C24.8201 71.7265 26.1169 70.7029 27.1681 69.4171L29.4199 70.7156C28.1167 72.3524 26.5036 73.6467 24.5766 74.6005C22.6495 75.5543 20.5451 76.0323 18.2698 76.0323ZM35.5024 60.4946C36.3548 59.3801 37.4615 58.4897 38.8267 57.8193C40.1919 57.151 41.6233 56.8169 43.1252 56.8169C45.0032 56.8169 46.4175 57.3371 47.3682 58.3776C48.3189 59.4181 48.7953 60.7674 48.7953 62.4275V75.548H46.3555V62.5037C46.3555 60.2218 45.0523 59.084 42.448 59.084C40.946 59.084 39.5402 59.5218 38.2263 60.4015C36.9124 61.2813 36.0044 62.5037 35.5024 64.0644V75.548H33.0625V46.7418H35.5024V60.4946ZM78.0091 84.1722H75.5309V57.2991H78.0091V60.6447C78.8829 59.4562 79.9661 58.5257 81.2544 57.8574C82.5448 57.187 83.9656 56.8528 85.5188 56.8528C88.1466 56.8528 90.3194 57.7516 92.0307 59.5492C93.7462 61.3447 94.6029 63.6436 94.6029 66.4415C94.6029 69.2183 93.7462 71.5023 92.0307 73.2999C90.3194 75.0975 88.1466 75.9942 85.5188 75.9942C83.9656 75.9942 82.5448 75.66 81.2544 74.9918C79.9661 74.3214 78.8829 73.3929 78.0091 72.2023V84.1722ZM92.0499 66.4055C92.0499 64.2251 91.4111 62.4529 90.1378 61.091C88.8602 59.7269 87.2322 59.0459 85.256 59.0459C83.1516 59.0459 81.4061 59.765 80.0153 61.2009C78.6287 62.639 77.9344 64.3732 77.9344 66.4055C77.9344 68.4379 78.6287 70.1721 80.0153 71.608C81.4061 73.0461 83.1516 73.7652 85.256 73.7652C87.2322 73.7652 88.8602 73.0821 90.1378 71.7201C91.4111 70.3582 92.0499 68.5859 92.0499 66.4055ZM99.2604 71.4219C99.7368 72.1663 100.506 72.7733 101.57 73.2449C102.634 73.7144 103.728 73.9513 104.854 73.9513C106.131 73.9513 107.227 73.634 108.139 73.0017C109.054 72.3715 109.511 71.5213 109.511 70.4576C109.511 69.2902 108.992 68.5056 107.954 68.0974C106.913 67.6871 105.732 67.3466 104.405 67.0738C103.653 66.9258 102.901 66.746 102.151 66.5345C101.401 66.3252 100.726 66.0397 100.124 65.6801C99.5232 65.3227 99.0361 64.8575 98.6601 64.2865C98.284 63.7176 98.096 62.9985 98.096 62.1315C98.096 60.4946 98.7348 59.2066 100.012 58.2655C101.288 57.3244 102.826 56.8528 104.629 56.8528C105.93 56.8528 107.189 57.113 108.402 57.6332C109.618 58.1535 110.513 58.8852 111.088 59.8263L109.248 61.0529C108.898 60.4079 108.266 59.8876 107.351 59.4921C106.439 59.0946 105.544 58.8979 104.668 58.8979C103.614 58.8979 102.666 59.177 101.813 59.7332C100.963 60.2916 100.538 61.0402 100.538 61.9813C100.538 63.0239 101.051 63.7472 102.076 64.1575C103.102 64.5656 104.33 64.9061 105.755 65.1789C106.456 65.327 107.176 65.5067 107.915 65.7182C108.654 65.9276 109.323 66.2194 109.923 66.5916C110.526 66.9617 111.019 67.4397 111.408 68.0213C111.795 68.605 111.989 69.3409 111.989 70.2334C111.989 72.0183 111.276 73.4247 109.849 74.4525C108.421 75.4803 106.744 75.9942 104.819 75.9942C103.341 75.9942 101.914 75.6918 100.538 75.0848C99.16 74.4778 98.1473 73.6531 97.4957 72.6126L99.2604 71.4219ZM123.855 57.2991V59.4181H119.723V70.3835C119.723 71.3479 120.08 72.16 120.794 72.8156C121.507 73.4733 122.366 73.8011 123.366 73.8011C123.642 73.8011 123.842 73.7884 123.968 73.7652L124.231 75.9942H123.592C121.689 75.9942 120.161 75.4803 119.01 74.4525C117.858 73.4247 117.283 72.0289 117.283 70.2693V59.4181H113.981V57.2991H117.283V50.1256H119.723V57.2991H123.855ZM128.171 75.548H130.649V57.2991H128.171V75.548ZM128.171 52.0585H130.649V48.3047H128.171V52.0585Z" fill="white"/>
</g>
<path fill-rule="evenodd" clip-rule="evenodd" d="M62.5 57C63.8211 57 65.0566 57.2519 66.2044 57.7557C67.3523 58.2616 68.3561 58.9418 69.2118 59.8046C70.0674 60.6652 70.7457 61.6729 71.2466 62.8295C71.7496 63.9841 72 65.2142 72 66.5178C72 67.8215 71.7496 69.0453 71.2466 70.1894C70.7457 71.3334 70.0674 72.3348 69.2118 73.1954C68.3561 74.0561 67.3523 74.7405 66.2044 75.2443C65.0566 75.7481 63.8211 76 62.5 76C61.1789 76 59.9434 75.7481 58.7956 75.2443C57.6456 74.7405 56.6418 74.0561 55.7861 73.1954C54.9305 72.3348 54.2543 71.3334 53.7534 70.1894C53.2484 69.0453 53 67.8215 53 66.5178C53 65.2142 53.2484 63.9841 53.7534 62.8295C54.2543 61.6729 54.9305 60.6652 55.7861 59.8046C56.6418 58.9418 57.6456 58.2616 58.7956 57.7557C59.9434 57.2519 61.1789 57 62.5 57ZM55.4209 66.5178C55.4209 68.5352 56.1096 70.2502 57.4933 71.6651C58.8749 73.08 60.5549 73.7874 62.5376 73.7874C64.4931 73.7874 66.1543 73.08 67.5234 71.6651C68.8925 70.2502 69.5791 68.5352 69.5791 66.5178C69.5791 64.5026 68.8925 62.7854 67.5234 61.3727C66.1543 59.9578 64.4931 59.2504 62.5376 59.2504C60.5549 59.2504 58.8749 59.9578 57.4933 61.3727C56.1096 62.7854 55.4209 64.5026 55.4209 66.5178Z" fill="white"/>
<path fill-rule="evenodd" clip-rule="evenodd" d="M124.405 40.5336C126.023 39.1999 128.961 39.9819 129.503 41.7045C128.331 41.7468 124.896 41.1676 124.405 40.5336ZM123.504 13.7182C124.029 13.566 123.553 13.7309 123.972 13.5301C124.073 13.4815 124.107 13.4709 124.192 13.4181C124.361 13.3124 124.293 13.361 124.412 13.249C124.843 13.2701 125.655 12.8305 126.18 12.6783C126.715 12.5261 127.513 12.45 128.153 12.3528C132.119 11.7652 136.104 13.1539 138.991 15.3161C141.927 17.5163 145.263 22.2403 144.7 28.0337C144.256 28.059 143.644 27.854 143.139 27.7822C141.307 27.5158 142.667 27.3869 140.091 25.3726C136.61 22.6503 132.819 22.2212 128.763 23.5613C126.279 24.3792 125.135 25.9158 124.38 26.3914C122.737 25.9179 121.99 25.3895 120.006 25.343C116.96 25.2712 117.163 25.7045 115.334 26.0405C115.192 24.7618 115.841 22.8257 116.222 21.7626C116.677 20.4944 117.284 19.4334 118.014 18.4146C120.456 14.9969 122.838 14.3163 123.504 13.7182ZM123.568 12.3993C123.43 12.4564 123.289 12.4902 123.109 12.5726C122.603 12.8051 122.999 12.5409 122.734 12.8474C122.339 12.8453 121.18 13.6844 120.907 13.8661C120.359 14.2318 119.589 14.9779 119.173 15.1407L117.597 16.9055C113.191 22.4115 112.889 29.5026 116.383 35.3933C119.606 40.8231 127.622 45.0546 135.641 41.9433C138.915 40.6709 141.498 38.5468 143.31 35.816C149.178 26.9853 145.087 14.9779 134.526 11.6617C134.196 11.5581 131.703 11.072 131.69 11.0635C130.049 10.9303 128.678 11.0107 127.157 11.2664C126.423 11.3911 123.904 12.0717 123.568 12.3993ZM122.271 39.4387C122.711 38.3248 125.624 37.1053 127.853 37.6971C128.763 37.938 128.961 38.1494 129.632 38.4559L129.653 39.6839C129.016 39.5296 128.659 39.0477 127.94 38.8363C127.199 38.6186 126.4 38.5658 125.626 38.6905C123.454 39.0392 123.141 40.7893 122.271 39.4387ZM121.097 38.6842C120.753 38.5299 120.649 38.4052 120.368 38.1262C120.66 37.211 123.166 35.8096 124.395 35.518C126.279 35.0762 128.433 35.2326 130.004 36.0464L129.841 37.1074C128.488 36.8664 126.413 35.2432 122.76 37.3843C122.064 37.7922 121.59 38.4474 121.097 38.6842ZM137.754 39.4472C137.633 37.2384 139.518 35.4038 141.751 35.7526C141.557 36.4712 138.617 39.2675 137.754 39.4472ZM142.648 34.6049C141.282 34.6112 139.894 34.0997 138.063 35.723C136.811 36.8284 136.536 38.0247 136.567 40.0939C136.311 40.3518 136.121 40.4997 135.654 40.5272C134.719 38.7729 136.212 34.4992 139.674 33.6157C140.66 33.3642 142.183 33.2458 143.012 33.7489C142.953 34.1547 142.828 34.2392 142.648 34.6049ZM119.344 37.1412C119.082 36.9404 118.961 36.8347 118.79 36.4839C119.01 35.9238 120.325 34.9557 120.928 34.5626C124.437 32.2841 127.409 32.84 130.757 33.8398C130.751 34.3935 130.634 34.4485 130.503 34.8522C129.799 34.7655 129.661 34.3808 127.502 34.1061C122.553 33.4762 120 36.9066 119.344 37.1412ZM117.923 35.3742C117.69 35.1819 117.349 34.6767 117.258 34.2963C117.794 33.5121 118.938 33.417 120.046 33.5037C119.839 33.9919 119.549 34.0025 118.984 34.4802C118.646 34.7655 118.35 35.1882 117.923 35.3742ZM116.25 32.0791C117.258 31.5465 118.229 31.0709 119.676 31.1238C120.524 31.1555 122.451 31.5993 122.775 32.3518C122.14 32.5251 121.948 32.8041 121.19 32.5462C119.932 32.1172 119.137 32.077 117.876 32.487C117.275 32.6836 117.072 32.9436 116.607 33.0598C116.368 32.7851 116.29 32.4807 116.25 32.0791ZM143.676 32.4744C142.925 32.468 142.424 32.2398 141.567 32.2102C138.238 32.0897 135.869 33.9095 134.607 36.8538C133.983 38.31 134.363 39.5613 134.361 41.0873L133.452 41.2522C131.684 35.1248 137.902 29.3758 143.968 31.6543L143.676 32.4744ZM130.175 32.3264C130.262 31.5359 131.817 30.8405 133.016 30.9357C132.957 31.0963 131.758 32.6456 131.487 32.8612L130.175 32.3264ZM115.621 29.8112C117.398 28.9763 119.022 28.5388 121.391 29.0757C122.775 29.3885 125.106 30.6778 125.556 31.6691C125.285 31.8614 124.587 31.9586 124.262 31.7917C124.033 31.6775 123.619 31.2654 123.327 31.0815C119.532 28.6931 117.112 30.5235 115.841 30.8765C115.615 30.5235 115.581 30.3058 115.621 29.8112ZM131.165 41.6052C130.601 40.17 130.933 37.1835 131.459 35.7927C132.132 34.011 132.978 32.766 134.133 31.6797C136.686 29.2765 141.081 28.0421 144.505 29.3843C144.501 29.7351 144.455 30.0099 144.3 30.2826C143.759 30.3185 143.304 30.1325 142.866 30.0437C138.556 29.1602 133.858 31.8995 132.422 36.2197C131.444 39.1661 132.261 40.3624 132.145 41.6178L131.165 41.6052ZM128.955 30.1388C130.4 28.4247 133.995 28.1711 135.313 29.249C134.896 29.5005 134.64 29.8937 133.93 29.8154C130.421 29.4371 130.645 30.5848 129.403 31.0223C129.262 30.7306 129.061 30.4791 128.955 30.1388ZM115.3 27.4165C118.136 26.3301 120.562 26.2223 123.464 27.3383C125.27 28.0337 128.257 30.5806 128.418 31.8593C127.411 31.8255 127.28 31.9206 126.791 31.2273C125.135 28.8812 122.041 27.4989 118.904 27.6553C117.002 27.7504 115.979 28.4479 115.289 28.5135L115.3 27.4165ZM127.451 28.3803C128.443 27.6701 128.234 27.6511 129.562 27.0107C132.204 25.7404 136.601 26.5224 137.72 28.059C136.775 28.8453 136.423 28.3254 135.474 27.9111C133.801 27.1819 131.717 27.2495 130.078 27.9449C129.647 28.1288 129.353 28.2936 128.999 28.5198C128.606 28.7713 128.458 28.9869 128.101 29.1306C127.855 28.9383 127.589 28.7164 127.451 28.3803ZM125.615 27.0741C125.958 26.3977 127.874 25.2078 128.815 24.84C130.161 24.3116 131.703 23.9417 133.348 24.0368C135.956 24.189 139.399 25.7362 140.563 27.6067C139.378 27.8984 139.404 27.8117 138.693 27.2094C137.331 26.0553 135.383 25.267 133.572 25.1528C130.078 24.9288 128.359 26.1822 126.444 27.6046L125.615 27.0741Z" fill="white"/>
<path fill-rule="evenodd" clip-rule="evenodd" d="M59.2241 28.875V45.3366H56V10.6612H66.8681C69.3552 10.6612 71.4643 11.5449 73.1974 13.3102C74.9327 15.0777 75.8014 17.2227 75.8014 19.7452C75.8014 22.3004 74.9327 24.4607 73.1974 26.226C71.4643 27.9913 69.3552 28.875 66.8681 28.875H59.2241ZM66.5453 26.0361C68.2041 26.0361 69.6165 25.4208 70.7804 24.1923C71.9464 22.9638 72.5326 21.4799 72.5326 19.7452C72.5326 18.0432 71.9549 16.5921 70.8038 15.3919C69.6526 14.194 68.2487 13.5961 66.592 13.5961H59.2241V26.0361H66.5453ZM85.1955 29.2067V45.3366H81.9714V10.6612H85.1955V26.226H103.336V10.6612H106.558V45.3366H103.336V29.2067H85.1955ZM130.503 10C132.929 10 135.199 10.4713 137.319 11.4184C139.436 12.3654 141.286 13.6506 142.866 15.2741C144.449 16.8997 145.698 18.8069 146.619 20.9999C147.541 23.1907 148 25.5321 148 28.024C148 30.5159 147.541 32.8486 146.619 35.0241C145.698 37.1997 144.449 39.1024 142.866 40.7259C141.286 42.3494 139.436 43.6346 137.319 44.5816C135.199 45.5265 132.929 46 130.503 46C128.078 46 125.807 45.5265 123.69 44.5816C121.57 43.6346 119.72 42.3494 118.14 40.7259C116.557 39.1024 115.309 37.1997 114.387 35.0241C113.465 32.8486 113.006 30.5159 113.006 28.024C113.006 25.5321 113.465 23.1907 114.387 20.9999C115.309 18.8069 116.557 16.8997 118.14 15.2741C119.72 13.6506 121.57 12.3654 123.69 11.4184C125.807 10.4713 128.078 10 130.503 10ZM116.228 28.024C116.228 30.073 116.606 32.0063 117.356 33.8196C118.11 35.6329 119.129 37.2084 120.419 38.5504C121.708 39.8902 123.22 40.955 124.953 41.7428C126.689 42.5305 128.538 42.9254 130.503 42.9254C132.468 42.9254 134.316 42.5305 136.053 41.7428C137.786 40.955 139.298 39.8902 140.587 38.5504C141.877 37.2084 142.898 35.6329 143.65 33.8196C144.402 32.0063 144.778 30.073 144.778 28.024C144.778 25.9728 144.402 24.0417 143.65 22.2284C142.898 20.4151 141.877 18.8287 140.587 17.4736C139.298 16.1186 137.786 15.0472 136.053 14.2572C134.316 13.4673 132.468 13.0746 130.503 13.0746C128.538 13.0746 126.689 13.4673 124.953 14.2572C123.22 15.0472 121.708 16.1186 120.419 17.4736C119.129 18.8287 118.11 20.4151 117.356 22.2284C116.606 24.0417 116.228 25.9728 116.228 28.024Z" fill="white"/>
<path fill-rule="evenodd" clip-rule="evenodd" d="M147.705 6.97864C148.048 7.12699 148.856 6.45942 149.136 6.30119C152.018 4.67595 151.005 1.39744 149.768 2.09633C149.036 2.51006 150.507 3.98695 148.727 5.26604C148.262 5.60065 146.602 6.49898 147.088 6.70997L147.705 6.97864Z" fill="white"/>
<path fill-rule="evenodd" clip-rule="evenodd" d="M143.914 17C144.94 16.0034 146.446 16.0534 147.462 13.9863C148.141 12.6058 148.439 9.20579 146.743 9.48714C146.483 9.62304 146.741 9.11519 146.349 9.87816C146.034 10.4838 146.39 10.6435 146.399 11.6616C146.429 14.7612 143.984 14.3129 142.416 16.3467L143.914 17ZM140.492 15.5074C141.236 14.4894 142.485 14.0626 142.958 13.7192C146.478 11.18 145.242 6.05854 143.73 7.15054C142.836 7.79668 144.635 10.1023 142.46 12.1003C141.741 12.7631 139.986 13.1351 139 14.8589L140.492 15.5074Z" fill="white"/>
</g>
<defs>
<filter id="filter0_d" x="0" y="0" width="192.032" height="116" filterUnits="userSpaceOnUse" color-interpolation-filters="sRGB">
<feFlood flood-opacity="0" result="BackgroundImageFix"/>
<feColorMatrix in="SourceAlpha" type="matrix" values="0 0 0 0 0 0 0 0 0 0 0 0 0 0 0 0 0 0 127 0"/>
<feOffset dy="2"/>
<feGaussianBlur stdDeviation="2"/>
<feColorMatrix type="matrix" values="0 0 0 0 0 0 0 0 0 0 0 0 0 0 0 0 0 0 0.5 0"/>
<feBlend mode="normal" in2="BackgroundImageFix" result="effect1_dropShadow"/>
<feBlend mode="normal" in="SourceGraphic" in2="effect1_dropShadow" result="shape"/>
</filter>
</defs>
</svg>
