<?xml version="1.0" encoding="utf-8"?>
<svg width="140px" height="45px" viewBox="0 0 140 45" version="1.1" xmlns:xlink="http://www.w3.org/1999/xlink" xmlns="http://www.w3.org/2000/svg">
  <desc>Created with Lunacy</desc>
  <defs>
    <path d="M0 0L24.2788 0L24.2788 16.8722L0 16.8722L0 0Z" transform="translate(3.285117E-05 0.055561)" id="path_1" />
    <clipPath id="mask_1">
      <use xlink:href="#path_1" />
    </clipPath>
  </defs>
  <g id="Group-22">
    <path d="M6.80453 10.3502C4.44112 10.3502 2.52517 12.2451 2.52517 14.5826C2.52517 16.92 4.44112 18.8149 6.80453 18.8149C9.16795 18.8149 11.0839 16.92 11.0839 14.5826C11.0839 12.2451 9.16795 10.3502 6.80453 10.3502M6.37419 6.50857C8.15781 6.50857 9.80767 7.07477 11.1508 8.03483L11.1508 2.30693C11.1508 1.61674 11.3391 1.05689 11.7159 0.6371C12.0928 0.212366 12.5825 0 13.1855 0C13.7885 0 14.2782 0.212366 14.6551 0.6371C15.0319 1.06166 15.2202 1.62168 15.2202 2.31169L15.2202 20.13C15.2202 20.8202 15.0319 21.3801 14.6551 21.8048C14.2782 22.2295 13.7885 22.4419 13.1855 22.4419C12.1948 22.4419 11.5483 21.9817 11.2458 21.0615C9.88614 22.0634 8.20025 22.6565 6.37419 22.6565C3.79516 22.6565 1.49595 21.4734 0 19.6264C1.00087 18.1935 1.5878 16.4558 1.5878 14.5826C1.5878 12.7092 1.00087 10.9714 0 9.5385C1.49595 7.69176 3.79516 6.50857 6.37419 6.50857" transform="translate(55.51292 9.015769)" id="Fill-1" fill="#FFFFFF" stroke="none" />
    <path d="M5.25205 0C9.76076 0 13.4157 3.61482 13.4157 8.07381C13.4157 12.533 9.76076 16.1478 5.25205 16.1478C3.25157 16.1478 1.41962 15.4357 0 14.2545C0.922038 13.3129 1.63559 12.1703 2.06647 10.8995C2.84994 11.7629 3.9867 12.3063 5.25205 12.3063C7.61546 12.3063 9.53141 10.4114 9.53141 8.07381C9.53141 5.73654 7.61546 3.84165 5.25205 3.84165C3.9867 3.84165 2.84994 4.38491 2.06647 5.24813C1.63559 3.97746 0.922038 2.83485 0 1.89313C1.41944 0.712063 3.25157 0 5.25205 0" transform="translate(42.86461 15.52438)" id="Fill-3" fill="#FFFFFF" stroke="none" />
    <path d="M7.42107 3.84165C5.05783 3.84165 3.14171 5.73654 3.14171 8.07398C3.14171 10.4114 5.05783 12.3063 7.42107 12.3063C9.78448 12.3063 11.7004 10.4114 11.7004 8.07398C11.7004 5.73654 9.78448 3.84165 7.42107 3.84165M7.42107 0C11.9298 0 15.5848 3.61482 15.5848 8.07398C15.5848 12.533 11.9298 16.148 7.42107 16.148C4.12813 16.148 1.29068 14.2192 0 11.4419C1.04848 9.40868 1.40446 6.98869 1.428 4.28631L1.42818 4.23886L1.42318 4.19177C1.37271 3.73158 1.26303 3.32255 1.09824 2.96696C2.59526 1.1562 4.87164 0 7.42107 0" transform="translate(28.99011 15.52434)" id="Fill-5" fill="#FFFFFF" stroke="none" />
    <path d="M20.9782 2.73007C21.2175 3.07896 21.3573 3.49999 21.3573 3.95347C21.3573 5.15888 20.3693 6.13605 19.1505 6.13605C18.5013 6.13605 17.9178 5.85878 17.514 5.41764C17.4873 5.40212 17.46 5.38607 17.4318 5.36931C15.7967 3.89685 13.8694 3.30703 12.191 3.31144C7.85169 3.32255 4.4282 6.71071 4.5106 11.112C4.59531 15.6384 8.3762 18.5159 12.191 18.5103C13.7313 18.508 15.0418 18.1289 16.1224 17.3663C17.41 16.4552 18.0539 14.8907 18.0539 13.217L14.536 13.217C13.8234 13.217 13.2427 13.0103 12.7943 12.5972C12.346 12.1841 12.1218 11.6489 12.1218 10.9924C12.1218 10.3356 12.346 9.81119 12.7943 9.41926C13.2427 9.02734 13.8234 8.83138 14.536 8.83138L20.3989 8.83138C21.9195 8.83138 22.7176 9.58718 22.8732 11.0076C22.8226 16.8475 21.083 19.9565 17.2369 21.8626C15.6624 22.5749 13.9232 22.9342 12.191 22.9127C6.32507 22.84 1.64479 19.1558 0.31452 13.5354C-0.0505496 11.9927 -0.0867534 10.4728 0.148661 9.02999C0.273858 9.05856 0.402979 9.0695 0.529782 9.06138C0.950852 9.03387 1.37014 8.77017 1.5829 8.41088L1.61893 8.35126L1.63979 8.30399C3.72624 3.57848 8.4429 0.513101 13.6719 0.513101C14.3571 0.513101 15.0415 0.565664 15.7184 0.67026L15.776 0.679255L15.8342 0.679961C15.9086 0.680843 15.9827 0.681901 16.0571 0.683665C16.5106 0.693895 16.9255 0.462479 17.1511 0.073023C17.165 0.0490348 17.1782 0.0246938 17.1905 0C17.618 0.194199 18.0357 0.414503 18.443 0.661617C19.3001 1.18195 20.1813 1.83351 20.8011 2.48261C20.882 2.56745 20.9391 2.64964 20.9782 2.73007" transform="translate(6.724376 8.795941)" id="Fill-7" fill="#FFFFFF" stroke="none" />
    <path d="M137.244 1.21599C137.379 1.21599 137.495 1.26379 137.593 1.35763C137.69 1.45323 137.738 1.56788 137.738 1.7014C137.738 1.83828 137.69 1.95451 137.593 2.04853C137.495 2.14395 137.379 2.19016 137.244 2.19016C137.109 2.19016 136.993 2.14395 136.895 2.04853C136.796 1.95451 136.748 1.83828 136.748 1.7014C136.748 1.56788 136.796 1.45323 136.895 1.35763C136.993 1.26379 137.109 1.21599 137.244 1.21599L137.244 1.21599ZM136.941 7.12927L137.54 7.12927L137.54 2.71385L136.941 2.71385L136.941 7.12927ZM135.761 3.77709C135.903 4.08753 135.974 4.42654 135.974 4.79253C135.974 5.47073 135.731 6.04998 135.246 6.52921C134.764 7.00986 134.176 7.25009 133.489 7.25009C132.803 7.25009 132.217 7.00986 131.731 6.52921C131.247 6.04998 131.004 5.47073 131.004 4.79253C131.004 4.11134 131.247 3.53192 131.731 3.05127C132.217 2.57062 132.803 2.33021 133.489 2.33021C134.176 2.33021 134.764 2.57062 135.246 3.04809C135.417 3.21989 135.557 3.40139 135.666 3.594L135.945 2.57856L136.568 2.57856L135.982 3.77709L135.761 3.77709ZM134.748 0.935894L133.413 1.94358L132.786 1.94358L133.673 0.935894L134.748 0.935894ZM133.489 2.94632C132.972 2.94632 132.533 3.12606 132.168 3.48729C131.804 3.84711 131.621 4.28331 131.621 4.79253C131.621 5.30352 131.804 5.73636 132.168 6.0946C132.533 6.45107 132.972 6.6294 133.489 6.6294C134.004 6.6294 134.443 6.45107 134.809 6.0946C135.172 5.73636 135.356 5.30352 135.356 4.79253C135.356 4.28331 135.172 3.84711 134.809 3.48729C134.443 3.12606 134.004 2.94632 133.489 2.94632L133.489 2.94632ZM129.732 1.21599C129.868 1.21599 129.983 1.26379 130.082 1.35763C130.178 1.45323 130.226 1.56788 130.226 1.7014C130.226 1.83828 130.178 1.95451 130.082 2.04853C129.983 2.14395 129.868 2.19016 129.732 2.19016C129.597 2.19016 129.481 2.14395 129.383 2.04853C129.285 1.95451 129.237 1.83828 129.237 1.7014C129.237 1.56788 129.285 1.45323 129.383 1.35763C129.481 1.26379 129.597 1.21599 129.732 1.21599L129.732 1.21599ZM129.43 7.12927L130.029 7.12927L130.029 2.71385L129.43 2.71385L129.43 7.12927ZM127.528 6.5181L127.495 6.52745C127.008 7.00986 126.42 7.25009 125.731 7.25009C125.046 7.25009 124.461 7.00986 123.976 6.52921C123.489 6.04998 123.247 5.47073 123.247 4.79253C123.247 4.11134 123.489 3.53192 123.976 3.05286C124.461 2.57538 125.046 2.33497 125.731 2.33497C126.42 2.33497 127.03 2.58967 127.561 3.10066L127.561 2.71385L128.16 2.71385L128.16 6.08984C128.16 6.74881 127.923 7.31236 127.449 7.78189C126.964 8.26095 126.38 8.4996 125.694 8.4996C125.006 8.4996 124.418 8.26095 123.93 7.78189C123.834 7.68312 123.718 7.54307 123.586 7.36157L124.194 7.14832C124.267 7.23104 124.326 7.29631 124.373 7.34411C124.738 7.70375 125.178 7.88525 125.694 7.88525C126.206 7.88525 126.645 7.70375 127.009 7.34411C127.339 7.0178 127.513 6.74246 127.528 6.5181L127.528 6.5181ZM127.556 4.3962C127.487 4.05401 127.318 3.75151 127.051 3.48729C126.687 3.12606 126.246 2.94632 125.731 2.94632C125.216 2.94632 124.775 3.12606 124.412 3.48729C124.046 3.84711 123.864 4.28331 123.864 4.79253C123.864 5.30352 124.046 5.73636 124.412 6.09619C124.775 6.45601 125.216 6.63416 125.731 6.63416C126.246 6.63416 126.687 6.45425 127.051 6.0946C127.317 5.83196 127.484 5.53264 127.556 5.19363L127.556 4.3962ZM116.836 0.778383L116.298 0.778383L115.101 1.98644L115.841 1.98644L116.567 1.40225L117.337 1.98644L118.077 1.98644L116.836 0.778383ZM119.255 0L117.921 1.00592L117.293 1.00592L118.18 0L119.255 0ZM117.628 3.24071C117.37 3.04492 117.029 2.94632 116.606 2.94632C116.092 2.94632 115.655 3.12606 115.289 3.48412C114.926 3.84394 114.742 4.27855 114.742 4.78777C114.742 5.20792 114.842 5.54552 115.04 5.80022L117.628 3.24071ZM115.445 6.23306C115.742 6.49729 116.128 6.6294 116.606 6.6294C117.121 6.6294 117.56 6.45107 117.926 6.0946C117.972 6.0468 118.032 5.97995 118.104 5.89405L118.713 6.1073C118.581 6.29197 118.466 6.43202 118.368 6.52745C117.882 7.00986 117.293 7.25009 116.606 7.25009C115.92 7.25009 115.334 7.00986 114.849 6.52921C114.364 6.04998 114.121 5.46914 114.121 4.78777C114.121 4.10975 114.364 3.53192 114.849 3.05127C115.334 2.57062 115.92 2.33021 116.606 2.33021C117.193 2.33021 117.708 2.50536 118.153 2.85231C118.223 2.91281 118.296 2.97807 118.368 3.04809C118.394 3.07667 118.441 3.12764 118.51 3.20243L118.148 3.56225L115.445 6.23306ZM109.729 0.0604998L110.327 0.0604998L110.327 2.79181C110.559 2.56903 110.921 2.45597 111.411 2.45597C111.942 2.45597 112.375 2.62318 112.709 2.95585C113.044 3.28851 113.216 3.70548 113.226 4.20517L113.226 7.12927L112.627 7.12927L112.627 4.24186C112.627 3.91238 112.507 3.63228 112.267 3.39822C112.027 3.16592 111.741 3.04809 111.411 3.04809C111.081 3.04809 110.796 3.16433 110.553 3.39345C110.45 3.50017 110.374 3.60053 110.327 3.69754L110.327 7.12927L109.729 7.12927L109.729 0.0604998ZM107.368 2.71385L107.368 0.918432L107.966 0.918432L107.966 2.71385L108.834 2.71385L108.834 3.30121L107.966 3.30121L107.966 7.12927L107.368 7.12927L107.368 3.30121L106.5 3.30121L106.5 2.71385L107.368 2.71385ZM101.617 6.5181L101.585 6.52745C101.097 7.00986 100.51 7.25009 99.8209 7.25009C99.1353 7.25009 98.5511 7.00986 98.0651 6.52921C97.5791 6.04998 97.336 5.47073 97.336 4.79253C97.336 4.11134 97.5791 3.53192 98.0651 3.05286C98.5511 2.57538 99.1353 2.33497 99.8209 2.33497C100.51 2.33497 101.12 2.58967 101.651 3.10066L101.651 2.71385L102.25 2.71385L102.25 6.08984C102.25 6.74881 102.013 7.31236 101.538 7.78189C101.054 8.26095 100.47 8.4996 99.784 8.4996C99.0952 8.4996 98.5078 8.26095 98.02 7.78189C97.9235 7.68312 97.8076 7.54307 97.6758 7.36157L98.2839 7.14832C98.3563 7.23104 98.4159 7.29631 98.4626 7.34411C98.8281 7.70375 99.2675 7.88525 99.784 7.88525C100.296 7.88525 100.735 7.70375 101.099 7.34411C101.429 7.0178 101.603 6.74246 101.617 6.5181L101.617 6.5181ZM101.646 4.3962C101.577 4.05401 101.408 3.75151 101.141 3.48729C100.777 3.12606 100.336 2.94632 99.8209 2.94632C99.3058 2.94632 98.8651 3.12606 98.5013 3.48729C98.1359 3.84711 97.954 4.28331 97.954 4.79253C97.954 5.30352 98.1359 5.73636 98.5013 6.09619C98.8651 6.45601 99.3058 6.63416 99.8209 6.63416C100.336 6.63416 100.777 6.45425 101.141 6.0946C101.406 5.83196 101.573 5.53264 101.646 5.19363L101.646 4.3962ZM93.3269 3.77709L93.3269 7.12927L92.7283 7.12927L92.7283 2.71385L93.3269 2.71385L93.3269 2.83961C93.5844 2.58332 93.9625 2.45597 94.4631 2.45597C94.9944 2.45597 95.427 2.62318 95.7618 2.95585C96.0965 3.28851 96.2688 3.70548 96.2786 4.20517L96.2786 7.12927L95.683 7.12927L95.683 4.24186C95.683 3.91238 95.5624 3.63228 95.3211 3.39822C95.0778 3.16592 94.7932 3.04809 94.4631 3.04809C94.1331 3.04809 93.8467 3.16433 93.6038 3.39345C93.4717 3.52398 93.38 3.65133 93.3269 3.77709L93.3269 3.77709ZM89.6041 0.778383L90.8482 1.98644L90.1079 1.98644L89.3401 1.40225L88.6097 1.98644L87.8692 1.98644L89.0666 0.778383L89.6041 0.778383ZM89.3498 7.56212C89.4851 7.56212 89.6009 7.60992 89.6974 7.70552C89.7956 7.79935 89.844 7.914 89.844 8.04753C89.844 8.18458 89.7956 8.30081 89.6974 8.39465C89.6009 8.49007 89.4851 8.53787 89.3498 8.53787C89.2146 8.53787 89.0972 8.49007 89.0006 8.39465C88.9025 8.30081 88.8542 8.18458 88.8542 8.04753C88.8542 7.914 88.9025 7.79935 89.0006 7.70552C89.0972 7.60992 89.2146 7.56212 89.3498 7.56212L89.3498 7.56212ZM89.3498 2.94632C88.8333 2.94632 88.3939 3.12606 88.0286 3.48729C87.6648 3.84711 87.4815 4.28331 87.4815 4.79253C87.4815 5.30352 87.6648 5.73636 88.0286 6.0946C88.3939 6.45107 88.8333 6.6294 89.3498 6.6294C89.8648 6.6294 90.3043 6.45107 90.6697 6.0946C91.0334 5.73636 91.2167 5.30352 91.2167 4.79253C91.2167 4.28331 91.0334 3.84711 90.6697 3.48729C90.3043 3.12606 89.8648 2.94632 89.3498 2.94632L89.3498 2.94632ZM89.3498 2.33021C90.0371 2.33021 90.6246 2.57062 91.1074 3.05127C91.5918 3.53192 91.8348 4.11134 91.8348 4.79253C91.8348 5.47073 91.5918 6.04998 91.1074 6.52921C90.6246 7.00986 90.0371 7.25009 89.3498 7.25009C88.6642 7.25009 88.0784 7.00986 87.5926 6.52921C87.108 6.04998 86.8651 5.47073 86.8651 4.79253C86.8651 4.11134 87.108 3.53192 87.5926 3.05127C88.0784 2.57062 88.6642 2.33021 89.3498 2.33021L89.3498 2.33021ZM84.5054 2.71385L85.1041 2.71385L85.1041 3.25341C85.537 2.84437 85.9828 2.62795 86.4431 2.60555L86.4431 3.23594C86.1567 3.24706 85.8926 3.37599 85.6497 3.61799C85.2987 3.96018 85.1154 4.37239 85.1041 4.85303L85.1041 7.12927L84.5054 7.12927L84.5054 2.71385ZM80.0616 3.77709C80.2032 4.08753 80.274 4.42654 80.274 4.79253C80.274 5.47073 80.0311 6.04998 79.5466 6.52921C79.0638 7.00986 78.4763 7.25009 77.7892 7.25009C77.1036 7.25009 76.5178 7.00986 76.0316 6.52921C75.5474 6.04998 75.3043 5.47073 75.3043 4.79253C75.3043 4.11134 75.5474 3.53192 76.0316 3.05127C76.5178 2.57062 77.1036 2.33021 77.7892 2.33021C78.4763 2.33021 79.0638 2.57062 79.5466 3.04809C79.7172 3.21989 79.8574 3.40139 79.9668 3.594L80.2451 2.57856L80.8681 2.57856L80.2821 3.77709L80.0616 3.77709ZM77.1905 2.0517C77.2049 1.95786 77.2372 1.86385 77.2837 1.77143C77.3916 1.55024 77.5493 1.36257 77.7603 1.20647C77.8586 1.11104 77.9292 1.01703 77.9727 0.926369C77.9952 0.880157 78.005 0.832533 78.005 0.783146C78.005 0.748045 78 0.712945 77.9871 0.674846C77.9581 0.592122 77.9067 0.531622 77.8309 0.498109C77.791 0.479059 77.7506 0.469535 77.7136 0.469535C77.6845 0.469535 77.6556 0.474297 77.6235 0.483822C77.5447 0.512572 77.4881 0.563371 77.4544 0.638334C77.432 0.68437 77.4205 0.779794 77.4205 0.923195L76.9345 0.899383L76.9345 0.754395C76.9345 0.658971 76.9588 0.563371 77.0053 0.469535C77.1004 0.280098 77.2484 0.151161 77.4496 0.0827242C77.5397 0.0525625 77.6297 0.0365115 77.7184 0.0365115C77.8375 0.0365115 77.9516 0.0636747 78.0628 0.116237C78.2543 0.208486 78.3847 0.35171 78.4539 0.544321C78.4813 0.625458 78.4958 0.706771 78.4958 0.787908C78.4958 0.892856 78.4699 0.996394 78.4202 1.09976C78.3347 1.27014 78.1997 1.42924 78.0146 1.57582C77.8889 1.68394 77.794 1.80653 77.728 1.94358C77.7055 1.98644 77.6893 2.0293 77.6798 2.06916L77.1905 2.0517ZM77.7892 2.94632C77.2725 2.94632 76.8332 3.12606 76.468 3.48729C76.1042 3.84711 75.9207 4.28331 75.9207 4.79253C75.9207 5.30352 76.1042 5.73636 76.468 6.0946C76.8332 6.45107 77.2725 6.6294 77.7892 6.6294C78.3042 6.6294 78.7435 6.45107 79.1089 6.0946C79.4726 5.73636 79.6561 5.30352 79.6561 4.79253C79.6561 4.28331 79.4726 3.84711 79.1089 3.48729C78.7435 3.12606 78.3042 2.94632 77.7892 2.94632L77.7892 2.94632ZM69.5409 2.71385L70.1395 2.71385L70.1395 2.67081C70.2827 2.53076 70.5402 2.46073 70.9072 2.46073C71.2837 2.46073 71.6074 2.59285 71.8746 2.85707L71.9727 2.95585L72.0773 2.85707C72.3445 2.59285 72.6662 2.46073 73.0429 2.46073C73.4242 2.46073 73.7461 2.59285 74.0101 2.85707C74.2644 3.11018 74.398 3.41409 74.4108 3.77233L74.4108 7.12927L73.8121 7.12927L73.8121 3.67373C73.8057 3.5462 73.7317 3.41409 73.5901 3.27722C73.4388 3.12764 73.2569 3.05286 73.0429 3.05286C72.8321 3.05286 72.6518 3.12764 72.4989 3.27722C72.3459 3.42697 72.2705 3.61305 72.2705 3.83759L72.2705 7.12927L71.6764 7.12927L71.6764 3.67373L71.6716 3.67373C71.6652 3.5462 71.5928 3.41409 71.4544 3.27722C71.2999 3.12764 71.1182 3.05286 70.9072 3.05286C70.6932 3.05286 70.5129 3.12764 70.3649 3.27722C70.2297 3.40457 70.1539 3.56049 70.1395 3.74375L70.1395 7.12927L69.5409 7.12927L69.5409 2.71385ZM65.2612 6.21084L64.3005 6.21084L63.7951 8.06675L64.3617 8.06675L65.2612 6.21084ZM61.5531 8.73842L60.9448 8.73842L62.1422 6.24735L60.4313 2.71385L61.1056 2.71385L62.4543 5.58997L63.8031 2.71385L64.4678 2.71385L61.5531 8.73842ZM57.7982 7.18977C57.2349 7.18977 56.7858 7.02415 56.451 6.69307C56.1163 6.362 55.9442 5.94503 55.9362 5.44039L55.9362 2.70432L56.5349 2.70432L56.5349 5.40388C56.5349 5.73337 56.6556 6.01346 56.8969 6.24259C57.1368 6.47982 57.4344 6.59765 57.7934 6.59765C58.1232 6.59765 58.4082 6.48141 58.6497 6.24735C58.8894 6.01505 59.0101 5.73337 59.0101 5.40388L59.0101 2.70432L59.6088 2.70432L59.6088 5.44039C59.5992 5.94503 59.4269 6.362 59.0937 6.69148C58.7574 7.02415 58.3261 7.18977 57.7982 7.18977L57.7982 7.18977ZM54.1607 5.16188L54.1607 4.42019C54.0947 4.0683 53.9243 3.75804 53.6507 3.48729C53.2868 3.12606 52.846 2.94632 52.3309 2.94632C51.8159 2.94632 51.3748 3.12606 51.0112 3.48729C50.6459 3.84711 50.464 4.28331 50.464 4.79253C50.464 5.30352 50.6459 5.73636 51.0112 6.0946C51.3748 6.45107 51.8159 6.6294 52.3309 6.6294C52.846 6.6294 53.2868 6.45107 53.6507 6.0946C53.9243 5.82085 54.0947 5.50883 54.1607 5.16188L54.1607 5.16188ZM54.7596 7.12927L54.1607 7.12927L54.1607 6.48141C53.6298 6.99398 53.0197 7.25009 52.3309 7.25009C51.6454 7.25009 51.0611 7.00986 50.5751 6.52921C50.0891 6.04998 49.8461 5.47073 49.8461 4.79253C49.8461 4.11134 50.0891 3.53192 50.5751 3.05127C51.0611 2.57062 51.6454 2.33021 52.3309 2.33021C53.0197 2.33021 53.6298 2.5865 54.1607 3.10066L54.1607 0.0604998L54.7596 0.0604998L54.7596 7.12927ZM45.4506 3.90285L45.4506 5.44039C45.441 5.94503 45.2687 6.362 44.9357 6.69148C44.5992 7.02415 44.1679 7.18977 43.64 7.18977C43.0767 7.18977 42.6278 7.02415 42.293 6.69307C41.9583 6.362 41.786 5.94503 41.778 5.44039L41.778 2.70432L42.3767 2.70432L42.3767 5.40388C42.3767 5.73337 42.4974 6.01346 42.7387 6.24259C42.9786 6.47982 43.2762 6.59765 43.6352 6.59765C43.9652 6.59765 44.25 6.48141 44.4915 6.24735C44.7313 6.01505 44.8519 5.73337 44.8519 5.40388L44.8519 2.70432L45.4506 2.70432L45.4506 3.36647L45.6293 2.70432L46.2521 2.70432L45.6662 3.90285L45.4506 3.90285ZM39.4169 2.71385L39.4169 0.918432L40.0156 0.918432L40.0156 2.71385L40.8829 2.71385L40.8829 3.30121L40.0156 3.30121L40.0156 7.12927L39.4169 7.12927L39.4169 3.30121L38.5492 3.30121L38.5492 2.71385L39.4169 2.71385ZM33.6663 6.5181L33.6341 6.52745C33.1465 7.00986 32.559 7.25009 31.8702 7.25009C31.1847 7.25009 30.6004 7.00986 30.1144 6.52921C29.6283 6.04998 29.3854 5.47073 29.3854 4.79253C29.3854 4.11134 29.6283 3.53192 30.1144 3.05286C30.6004 2.57538 31.1847 2.33497 31.8702 2.33497C32.559 2.33497 33.1689 2.58967 33.7001 3.10066L33.7001 2.71385L34.2988 2.71385L34.2988 6.08984C34.2988 6.74881 34.0621 7.31236 33.5873 7.78189C33.103 8.26095 32.5187 8.4996 31.8331 8.4996C31.1442 8.4996 30.5569 8.26095 30.0693 7.78189C29.9727 7.68312 29.8567 7.54307 29.7248 7.36157L30.3333 7.14832C30.4057 7.23104 30.4652 7.29631 30.5118 7.34411C30.8772 7.70375 31.3165 7.88525 31.8331 7.88525C32.345 7.88525 32.7843 7.70375 33.1481 7.34411C33.478 7.0178 33.6517 6.74246 33.6663 6.5181L33.6663 6.5181ZM33.6952 4.3962C33.626 4.05401 33.457 3.75151 33.19 3.48729C32.8262 3.12606 32.3851 2.94632 31.8702 2.94632C31.3552 2.94632 30.9141 3.12606 30.5505 3.48729C30.1852 3.84711 30.0033 4.28331 30.0033 4.79253C30.0033 5.30352 30.1852 5.73636 30.5505 6.09619C30.9141 6.45601 31.3552 6.63416 31.8702 6.63416C32.3851 6.63416 32.8262 6.45425 33.19 6.0946C33.4554 5.83196 33.6228 5.53264 33.6952 5.19363L33.6952 4.3962ZM25.376 3.77709L25.376 7.12927L24.7773 7.12927L24.7773 2.71385L25.376 2.71385L25.376 2.83961C25.6337 2.58332 26.0118 2.45597 26.5123 2.45597C27.0434 2.45597 27.4764 2.62318 27.8111 2.95585C28.1459 3.28851 28.318 3.70548 28.3278 4.20517L28.3278 7.12927L27.7323 7.12927L27.7323 4.24186C27.7323 3.91238 27.6116 3.63228 27.3701 3.39822C27.1272 3.16592 26.8422 3.04809 26.5123 3.04809C26.1823 3.04809 25.8959 3.16433 25.6528 3.39345C25.521 3.52398 25.4293 3.65133 25.376 3.77709L25.376 3.77709ZM21.6535 0.778383L22.8974 1.98644L22.1571 1.98644L21.3895 1.40225L20.6588 1.98644L19.9185 1.98644L21.1159 0.778383L21.6535 0.778383ZM21.3991 7.56212C21.5343 7.56212 21.6502 7.60992 21.7467 7.70552C21.8448 7.79935 21.8931 7.914 21.8931 8.04753C21.8931 8.18458 21.8448 8.30081 21.7467 8.39465C21.6502 8.49007 21.5343 8.53787 21.3991 8.53787C21.2639 8.53787 21.1464 8.49007 21.0498 8.39465C20.9517 8.30081 20.9033 8.18458 20.9033 8.04753C20.9033 7.914 20.9517 7.79935 21.0498 7.70552C21.1464 7.60992 21.2639 7.56212 21.3991 7.56212L21.3991 7.56212ZM21.3991 2.94632C20.8825 2.94632 20.4432 3.12606 20.0778 3.48729C19.714 3.84711 19.5306 4.28331 19.5306 4.79253C19.5306 5.30352 19.714 5.73636 20.0778 6.0946C20.4432 6.45107 20.8825 6.6294 21.3991 6.6294C21.9142 6.6294 22.3535 6.45107 22.7187 6.0946C23.0825 5.73636 23.266 5.30352 23.266 4.79253C23.266 4.28331 23.0825 3.84711 22.7187 3.48729C22.3535 3.12606 21.9142 2.94632 21.3991 2.94632L21.3991 2.94632ZM21.3991 2.33021C22.0863 2.33021 22.6738 2.57062 23.1565 3.05127C23.6409 3.53192 23.884 4.11134 23.884 4.79253C23.884 5.47073 23.6409 6.04998 23.1565 6.52921C22.6738 7.00986 22.0863 7.25009 21.3991 7.25009C20.7136 7.25009 20.1277 7.00986 19.6416 6.52921C19.1572 6.04998 18.9141 5.47073 18.9141 4.79253C18.9141 4.11134 19.1572 3.53192 19.6416 3.05127C20.1277 2.57062 20.7136 2.33021 21.3991 2.33021L21.3991 2.33021ZM16.5546 2.71385L17.1533 2.71385L17.1533 3.25341C17.5863 2.84437 18.032 2.62795 18.4923 2.60555L18.4923 3.23594C18.2059 3.24706 17.9419 3.37599 17.6989 3.61799C17.3481 3.96018 17.1645 4.37239 17.1533 4.85303L17.1533 7.12927L16.5546 7.12927L16.5546 2.71385ZM12.1108 3.77709C12.2524 4.08753 12.3234 4.42654 12.3234 4.79253C12.3234 5.47073 12.0803 6.04998 11.5959 6.52921C11.1131 7.00986 10.5257 7.25009 9.83852 7.25009C9.15279 7.25009 8.56693 7.00986 8.08094 6.52921C7.59656 6.04998 7.35348 5.47073 7.35348 4.79253C7.35348 4.11134 7.59656 3.53192 8.08094 3.05127C8.56693 2.57062 9.15279 2.33021 9.83852 2.33021C10.5257 2.33021 11.1131 2.57062 11.5959 3.04809C11.7664 3.21989 11.9064 3.40139 12.0159 3.594L12.2943 2.57856L12.9171 2.57856L12.3314 3.77709L12.1108 3.77709ZM9.23964 2.0517C9.25427 1.95786 9.28637 1.86385 9.3331 1.77143C9.44081 1.55024 9.59847 1.36257 9.80945 1.20647C9.90754 1.11104 9.97834 1.01703 10.0219 0.926369C10.0443 0.880157 10.0541 0.832533 10.0541 0.783146C10.0541 0.748045 10.0491 0.712945 10.0363 0.674846C10.0074 0.592122 9.95587 0.531622 9.88025 0.498109C9.83995 0.479059 9.79982 0.469535 9.76273 0.469535C9.73383 0.469535 9.70476 0.474297 9.67266 0.483822C9.59383 0.512572 9.53748 0.563371 9.50359 0.638334C9.48112 0.68437 9.46989 0.779794 9.46989 0.923195L8.9839 0.899383L8.9839 0.754395C8.9839 0.658971 9.00797 0.563371 9.0547 0.469535C9.14958 0.280098 9.29761 0.151161 9.49878 0.0827242C9.58902 0.0525625 9.67908 0.0365115 9.76754 0.0365115C9.88667 0.0365115 10.001 0.0636747 10.1119 0.116237C10.3036 0.208486 10.4338 0.35171 10.503 0.544321C10.5305 0.625458 10.5449 0.706771 10.5449 0.787908C10.5449 0.892856 10.5193 0.996394 10.4693 1.09976C10.3841 1.27014 10.2487 1.42924 10.0638 1.57582C9.93822 1.68394 9.84316 1.80653 9.77717 1.94358C9.7547 1.98644 9.73865 2.0293 9.72902 2.06916L9.23964 2.0517ZM9.83852 2.94632C9.32186 2.94632 8.88242 3.12606 8.51699 3.48729C8.15335 3.84711 7.96983 4.28331 7.96983 4.79253C7.96983 5.30352 8.15335 5.73636 8.51699 6.0946C8.88242 6.45107 9.32186 6.6294 9.83852 6.6294C10.3534 6.6294 10.7928 6.45107 11.1581 6.0946C11.5219 5.73636 11.7052 5.30352 11.7052 4.79253C11.7052 4.28331 11.5219 3.84711 11.1581 3.48729C10.7928 3.12606 10.3534 2.94632 9.83852 2.94632L9.83852 2.94632ZM0.682344 0.0604998L3.2332 4.42019L5.77442 0.0604998L6.45837 0.0604998L6.36831 0.218011L6.36831 7.12927L5.76961 7.12927L5.76961 1.24474L3.2332 5.58997L0.687159 1.24474L0.687159 7.12927L0.0934522 7.12927L0.0934522 0.218011L0 0.0604998L0.682344 0.0604998Z" transform="translate(1.903447 35.8312)" id="Fill-9" fill="#FFFFFF" stroke="none" />
    <g id="Group-13" transform="translate(0 0.1208231)">
      <path d="M0 0L24.2788 0L24.2788 16.8722L0 16.8722L0 0Z" transform="translate(3.285117E-05 0.055561)" id="Clip-12" fill="none" stroke="none" />
      <g clip-path="url(#mask_1)">
        <path d="M12.9663 7.7472C15.7232 6.28462 17.6853 6.06785 19.5904 6.07772C20.2306 6.08637 21.4526 6.25252 22.0779 6.39698C22.2773 6.41991 22.4696 6.53897 22.5289 6.63404L23.184 7.87649C23.2646 8.00578 23.24 8.15747 23.1637 8.28905C23.0873 8.42099 22.9538 8.49542 22.8002 8.49189C22.7232 8.49013 22.6463 8.48925 22.5696 8.48819C21.8612 8.37866 21.1357 8.32115 20.3963 8.32115C14.6775 8.32115 9.76344 11.7268 7.61226 16.5989L7.59906 16.6206C7.52469 16.7463 7.35009 16.8615 7.2001 16.8714C7.05279 16.8809 6.86303 16.8118 6.78581 16.6878L5.95509 15.0885L0.420181 15.0885C0.272512 15.0885 0.143926 15.0283 0.0647417 14.905C-0.0142647 14.7814 -0.0212201 14.6373 0.0453022 14.5069L7.4373 0.218244C7.50739 0.0811933 7.63812 0.00287875 7.79363 0.000409375L23.8622 5.66066e-05C24.0117 -0.00241277 24.1412 0.0760782 24.2184 0.202546C24.2958 0.328837 24.2988 0.475235 24.2273 0.605054L21.9242 5.03829C21.8436 5.18399 21.7485 5.21221 21.5814 5.19527C19.3309 4.90989 15.5833 5.59531 12.9663 7.7472" transform="translate(3.285117E-05 0.05555731)" id="Fill-11" fill="#FFFFFF" stroke="none" />
      </g>
    </g>
    <path d="M1.2509 0.0338658L0 9.63534C0.475822 9.99269 1.01299 10.0987 1.50932 10.0594C1.18064 8.9365 1.10217 7.63038 1.21506 6.47365C1.21648 6.45372 1.22558 6.41774 1.22148 6.47489C1.13944 7.76937 1.52324 9.12806 1.90757 9.98299C2.14387 9.91984 2.36413 9.81137 2.57083 9.66126L1.39715 0L1.2509 0.0338658Z" transform="translate(1.685083 18.52917)" id="Fill-14" fill="#FFFFFF" stroke="none" />
    <path d="M0.701783 1.38814C1.08825 1.38814 1.40357 1.0763 1.40357 0.694072C1.40357 0.311847 1.08825 0 0.701783 0C0.315312 0 0 0.311847 0 0.694072C0 1.0763 0.315312 1.38814 0.701783 1.38814" transform="translate(2.268767 17.25672)" id="Fill-16" fill="#FFFFFF" stroke="none" />
    <path d="M0.0144459 0.329309L0 8.62501L0.409299 8.62501L0.184764 0L0.0144459 0.329309Z" transform="translate(2.765829 9.065633)" id="Fill-18" fill="#FFFFFF" stroke="none" />
    <path d="M67.8688 23.0598L60.8139 23.0598L60.8139 22.5479C61.7181 22.4634 62.2948 22.2722 62.5556 21.9909C62.8994 21.6252 63.0769 20.832 63.0769 19.6167L63.0769 12.9392C63.0769 10.5538 62.2172 9.36106 60.5089 9.36106C59.9655 9.36106 59.4164 9.51293 58.8506 9.81119C58.1795 10.1712 57.525 10.7339 56.8817 11.4877L56.8817 19.6167C56.8817 20.832 57.0592 21.6252 57.403 21.9909C57.6638 22.2722 58.2461 22.4634 59.1446 22.5479L59.1446 23.0598L51.9623 23.0598L51.9623 22.5479C52.894 22.4297 53.4709 22.2216 53.6981 21.9233C53.9589 21.5802 54.0919 20.8151 54.0919 19.6167L54.0919 3.70724C54.0919 3.09413 54.0309 2.68351 53.9089 2.4752C53.7149 2.15453 53.2877 1.99702 52.6279 1.99702L52.2673 1.99702C52.1285 2.00831 52.0343 2.0196 51.9955 2.03071L51.9955 1.48515L54.3193 0.793199C55.2178 0.517511 56.0166 0.253111 56.7209 0L56.8817 0.101068L56.8817 10.3007L56.9484 10.3007C58.2295 8.45533 59.8267 7.53284 61.7404 7.53284C62.6941 7.53284 63.4874 7.74661 64.1139 8.17399C64.6465 8.53981 65.0568 9.05168 65.3509 9.70995C65.5671 10.2163 65.7169 10.8069 65.8057 11.4877L65.8556 12.2809L65.8722 19.6167C65.8722 20.8038 65.9942 21.5577 66.2439 21.8896C66.449 22.1766 66.9926 22.3958 67.8688 22.5479L67.8688 23.0598ZM51.4132 8.95044L51.4132 7.86462L48.0523 7.86462L48.0523 3.95489C48.0523 3.66226 47.9692 3.5104 47.8083 3.5104L46.3273 5.61995C45.9059 6.18244 45.4012 6.76204 44.8187 7.3695C44.6691 7.52155 44.4861 7.67906 44.2808 7.83093L43.8095 8.16288C43.5099 8.3823 43.3545 8.56786 43.3545 8.71973C43.3545 8.83226 43.3989 8.90546 43.4877 8.95044L45.2569 8.95044L45.2569 19.1049C45.2569 20.6858 45.5565 21.8221 46.1499 22.514C46.6491 23.0991 47.3701 23.3917 48.313 23.3917C49.9713 23.3917 51.2691 22.5366 52.212 20.832L51.7738 20.4549L51.4465 20.832C51.3079 20.9895 51.1637 21.1132 51.0251 21.2146C50.6368 21.5014 50.2097 21.642 49.7439 21.642C49.0062 21.642 48.5126 21.2707 48.2629 20.5226C48.1632 20.247 48.1022 19.9094 48.0689 19.5155C48.0578 19.3749 48.0523 19.2118 48.0523 19.0373L48.0523 8.95044L51.4132 8.95044ZM43.3602 21.7095C42.7558 22.4354 42.1568 22.9246 41.5579 23.1779C41.3416 23.2735 41.1197 23.3411 40.8921 23.3748C40.809 23.3861 40.7202 23.3917 40.6316 23.3917L40.1434 23.3917C40.038 23.3917 39.9326 23.3804 39.8385 23.3578C39.589 23.3018 39.3671 23.206 39.1729 23.0767C38.6295 22.6941 38.3188 21.9796 38.2466 20.9333C37.4647 21.6476 36.7326 22.199 36.0504 22.5816C35.1186 23.1217 34.2422 23.3917 33.4158 23.3917C32.4675 23.3917 31.6523 23.088 30.981 22.4803C30.2546 21.8334 29.894 20.967 29.894 19.8811C29.894 18.3397 30.604 17.0796 32.0238 16.0894C32.6505 15.6507 33.5156 15.1837 34.6194 14.6887L38.2134 13.2034L38.2134 11.1445C38.2134 10.0643 37.9084 9.29915 37.3038 8.8379C37.0652 8.6467 36.7881 8.51724 36.4719 8.43839C36.2224 8.37666 35.9504 8.34279 35.6454 8.34279C35.0465 8.34279 34.5195 8.48355 34.0537 8.77035C33.5435 9.1023 33.2884 9.50746 33.2884 9.99128C33.2884 10.1093 33.294 10.2387 33.3048 10.368L33.4493 11.3076C33.4493 12.2753 32.9555 12.7591 31.9573 12.7591C31.4913 12.7591 31.1198 12.5847 30.8535 12.2303C30.6372 11.932 30.5262 11.617 30.5262 11.2739C30.5262 10.4299 30.9478 9.63675 31.7964 8.89981C32.8224 7.98844 34.209 7.53284 35.9561 7.53284C37.1153 7.53284 38.0636 7.71839 38.8123 8.09533C39.4502 8.41035 39.9439 8.87177 40.2933 9.47924C40.5649 9.96306 40.7425 10.5481 40.8256 11.2401L40.8921 12.1176L40.9255 20.2413C40.9365 20.4944 40.9699 20.7026 41.0252 20.8657C41.1641 21.2763 41.447 21.479 41.8684 21.479C42.1844 21.479 42.473 21.4058 42.7448 21.2652L43.3602 20.832L43.3602 21.7095ZM38.2134 14.0135C37.0321 14.4074 36.0449 14.835 35.2574 15.2962C34.5639 15.7014 34.0205 16.1344 33.6321 16.5845C33.3048 16.956 33.083 17.344 32.9612 17.7547C32.8668 18.0473 32.8169 18.379 32.8169 18.7392L32.8169 18.8068C32.8169 20.5676 33.5488 21.4451 35.0132 21.4451C35.3349 21.4451 35.7342 21.3608 36.2111 21.1977L37.0765 20.832C37.8307 20.4607 38.2134 19.8192 38.2134 18.9078L38.2134 14.0135ZM28.3248 1.35569C27.1655 1.45129 26.4167 1.64267 26.0785 1.92947C25.6459 2.32333 25.4295 3.14475 25.4295 4.38791L25.4295 19.3862C25.4295 20.6126 25.6459 21.4282 26.0785 21.8221C26.4279 22.1427 27.1766 22.3396 28.3248 22.4184L28.3248 23.0598L18.9959 23.0598L18.9959 22.4184C20.2936 22.3509 21.1256 22.1147 21.4806 21.7095C21.8523 21.2933 22.0351 20.3875 22.0351 19.0036L22.0351 3.85928L21.9686 3.85928L13.5051 23.0598L13.0503 23.0598L4.7641 4.63537L4.69758 4.63537L4.69758 18.0979C4.69758 19.8025 4.91391 20.9444 5.34657 21.5296C5.75694 22.0639 6.58339 22.3622 7.81468 22.4184L7.81468 23.0598L0 23.0598L0 22.4184C1.31439 22.3285 2.16848 22.0415 2.56797 21.5577C3.01152 21.0119 3.23338 19.8587 3.23338 18.0979L3.23338 4.38791C3.23338 3.13346 3.01152 2.31204 2.56797 1.92947C2.20183 1.62009 1.36451 1.42889 0.0665223 1.35569L0.0665223 0.708711L6.6665 0.708711L14.3479 17.7547L21.6913 0.708711L28.3248 0.708711L28.3248 1.35569Z" transform="translate(72.08281 8.364347)" id="Fill-20" fill="#FFFFFF" stroke="none" />
  </g>
</svg>