<?xml version="1.0" encoding="utf-8"?>
<svg width="120px" height="39px" viewBox="0 0 120 39" version="1.1" xmlns:xlink="http://www.w3.org/1999/xlink" xmlns="http://www.w3.org/2000/svg">
  <desc>Created with Lunacy</desc>
  <defs>
    <path d="M0 0L20.8104 0L20.8104 14.6226L0 14.6226L0 0Z" transform="translate(2.815814E-05 0.04815287)" id="path_1" />
    <clipPath id="mask_1">
      <use xlink:href="#path_1" />
    </clipPath>
  </defs>
  <g id="Group-22">
    <path d="M5.83246 8.97019C3.80667 8.97019 2.16443 10.6124 2.16443 12.6382C2.16443 14.664 3.80667 16.3062 5.83246 16.3062C7.85824 16.3062 9.50048 14.664 9.50048 12.6382C9.50048 10.6124 7.85824 8.97019 5.83246 8.97019M5.46359 5.64076C6.99241 5.64076 8.40657 6.13147 9.55781 6.96352L9.55781 1.99934C9.55781 1.40117 9.71924 0.915975 10.0422 0.552153C10.3652 0.184051 10.785 0 11.3019 0C11.8187 0 12.2385 0.184051 12.5615 0.552153C12.8845 0.920102 13.0459 1.40545 13.0459 2.00346L13.0459 17.446C13.0459 18.0442 12.8845 18.5294 12.5615 18.8975C12.2385 19.2656 11.8187 19.4496 11.3019 19.4496C10.4527 19.4496 9.89855 19.0508 9.63929 18.2533C8.47383 19.1216 7.02879 19.6357 5.46359 19.6357C3.25299 19.6357 1.28224 18.6102 0 17.0096C0.857885 15.7677 1.36097 14.2617 1.36097 12.6382C1.36097 11.0146 0.857885 9.50859 0 8.2667C1.28224 6.66619 3.25299 5.64076 5.46359 5.64076" transform="translate(47.58251 7.813666)" id="Fill-1" fill="#2E3092" stroke="none" />
    <path d="M4.50176 0C8.36637 0 11.4992 3.13284 11.4992 6.9973C11.4992 10.8619 8.36637 13.9948 4.50176 13.9948C2.78706 13.9948 1.21682 13.3776 0 12.3539C0.790318 11.5379 1.40194 10.5476 1.77126 9.44622C2.4428 10.1945 3.41717 10.6655 4.50176 10.6655C6.52754 10.6655 8.16978 9.02324 8.16978 6.9973C8.16978 4.97167 6.52754 3.32943 4.50176 3.32943C3.41717 3.32943 2.4428 3.80025 1.77126 4.54838C1.40194 3.44713 0.790318 2.45687 0 1.64071C1.21666 0.617121 2.78706 0 4.50176 0" transform="translate(36.7411 13.45446)" id="Fill-3" fill="#2E3092" stroke="none" />
    <path d="M6.36092 3.32943C4.33529 3.32943 2.69289 4.97167 2.69289 6.99745C2.69289 9.02324 4.33529 10.6655 6.36092 10.6655C8.3867 10.6655 10.0289 9.02324 10.0289 6.99745C10.0289 4.97167 8.3867 3.32943 6.36092 3.32943M6.36092 0C10.2255 0 13.3584 3.13284 13.3584 6.99745C13.3584 10.8619 10.2255 13.9949 6.36092 13.9949C3.53839 13.9949 1.10629 12.3233 0 9.91628C0.898701 8.15419 1.20382 6.05687 1.224 3.7148L1.22415 3.67368L1.21987 3.63287C1.17661 3.23404 1.0826 2.87954 0.94135 2.57136C2.22451 1.00204 4.17569 0 6.36092 0" transform="translate(24.84867 13.45443)" id="Fill-5" fill="#2E3092" stroke="none" />
    <path d="M17.9813 2.36606C18.1864 2.66843 18.3063 3.03332 18.3063 3.42634C18.3063 4.47103 17.4594 5.31791 16.4147 5.31791C15.8583 5.31791 15.3581 5.07761 15.012 4.69529C14.9891 4.68183 14.9657 4.66792 14.9415 4.6534C13.5401 3.37727 11.888 2.86609 10.4494 2.86991C6.73002 2.87954 3.7956 5.81595 3.86623 9.63042C3.93884 13.5533 7.1796 16.0471 10.4494 16.0422C11.7697 16.0403 12.893 15.7117 13.8192 15.0508C14.9229 14.2612 15.4747 12.9053 15.4747 11.4547L12.4594 11.4547C11.8486 11.4547 11.3509 11.2756 10.9666 10.9176C10.5823 10.5595 10.3901 10.0957 10.3901 9.52678C10.3901 8.9575 10.5823 8.50303 10.9666 8.16336C11.3509 7.82369 11.8486 7.65386 12.4594 7.65386L17.4848 7.65386C18.7881 7.65386 19.4722 8.30889 19.6056 9.53992C19.5622 14.6012 18.0712 17.2956 14.7745 18.9476C13.425 19.5649 11.9342 19.8763 10.4494 19.8576C5.42149 19.7946 1.40982 16.6017 0.269589 11.7306C-0.0433282 10.3937 -0.0743601 9.07643 0.127423 7.82599C0.234735 7.85075 0.345411 7.86023 0.454099 7.8532C0.815016 7.82935 1.1744 7.60081 1.35677 7.28943L1.38765 7.23776L1.40554 7.19679C3.19392 3.10135 7.23677 0.444688 11.7188 0.444688C12.3061 0.444688 12.8927 0.490242 13.473 0.580892L13.5223 0.588688L13.5722 0.589299C13.6359 0.590064 13.6995 0.590981 13.7632 0.59251C14.152 0.601376 14.5076 0.400815 14.7009 0.0632866C14.7129 0.0424968 14.7242 0.0214013 14.7347 0C15.1011 0.168306 15.4591 0.359236 15.8083 0.573401C16.543 1.02436 17.2983 1.58904 17.8295 2.15159C17.8989 2.22512 17.9478 2.29636 17.9813 2.36606" transform="translate(5.763751 7.623149)" id="Fill-7" fill="#2E3092" stroke="none" />
    <path d="M117.638 1.05386C117.753 1.05386 117.853 1.09529 117.937 1.17661C118.02 1.25946 118.061 1.35883 118.061 1.47455C118.061 1.59317 118.02 1.69391 117.937 1.77539C117.853 1.85809 117.753 1.89814 117.638 1.89814C117.522 1.89814 117.423 1.85809 117.338 1.77539C117.254 1.69391 117.213 1.59317 117.213 1.47455C117.213 1.35883 117.254 1.25946 117.338 1.17661C117.423 1.09529 117.522 1.05386 117.638 1.05386L117.638 1.05386ZM117.378 6.1787L117.891 6.1787L117.891 2.352L117.378 2.352L117.378 6.1787ZM116.367 3.27348C116.488 3.54252 116.549 3.83633 116.549 4.15353C116.549 4.7413 116.341 5.24331 115.926 5.65865C115.512 6.07521 115.008 6.28341 114.419 6.28341C113.832 6.28341 113.329 6.07521 112.913 5.65865C112.497 5.24331 112.289 4.7413 112.289 4.15353C112.289 3.56316 112.497 3.06099 112.913 2.64443C113.329 2.22787 113.832 2.01952 114.419 2.01952C115.008 2.01952 115.512 2.22787 115.926 2.64168C116.072 2.79057 116.192 2.94787 116.286 3.1148L116.524 2.23475L117.058 2.23475L116.556 3.27348L116.367 3.27348ZM115.498 0.811108L114.354 1.68443L113.816 1.68443L114.576 0.811108L115.498 0.811108ZM114.419 2.55348C113.976 2.55348 113.6 2.70925 113.287 3.02232C112.975 3.33417 112.818 3.7122 112.818 4.15353C112.818 4.59638 112.975 4.97152 113.287 5.28199C113.6 5.59093 113.976 5.74548 114.419 5.74548C114.86 5.74548 115.237 5.59093 115.55 5.28199C115.862 4.97152 116.019 4.59638 116.019 4.15353C116.019 3.7122 115.862 3.33417 115.55 3.02232C115.237 2.70925 114.86 2.55348 114.419 2.55348L114.419 2.55348ZM111.199 1.05386C111.315 1.05386 111.414 1.09529 111.499 1.17661C111.581 1.25946 111.623 1.35883 111.623 1.47455C111.623 1.59317 111.581 1.69391 111.499 1.77539C111.414 1.85809 111.315 1.89814 111.199 1.89814C111.083 1.89814 110.984 1.85809 110.9 1.77539C110.816 1.69391 110.774 1.59317 110.774 1.47455C110.774 1.35883 110.816 1.25946 110.9 1.17661C110.984 1.09529 111.083 1.05386 111.199 1.05386L111.199 1.05386ZM110.94 6.1787L111.453 6.1787L111.453 2.352L110.94 2.352L110.94 6.1787ZM109.309 5.64902L109.282 5.65712C108.864 6.07521 108.36 6.28341 107.77 6.28341C107.182 6.28341 106.681 6.07521 106.265 5.65865C105.848 5.24331 105.64 4.7413 105.64 4.15353C105.64 3.56316 105.848 3.06099 106.265 2.64581C106.681 2.232 107.182 2.02364 107.77 2.02364C108.36 2.02364 108.883 2.24438 109.338 2.68724L109.338 2.352L109.851 2.352L109.851 5.27786C109.851 5.84897 109.649 6.33738 109.242 6.74431C108.826 7.15949 108.326 7.36632 107.738 7.36632C107.148 7.36632 106.644 7.15949 106.226 6.74431C106.143 6.6587 106.044 6.53732 105.931 6.38003L106.452 6.19521C106.514 6.2669 106.565 6.32347 106.605 6.36489C106.919 6.67659 107.295 6.83389 107.738 6.83389C108.177 6.83389 108.553 6.67659 108.865 6.36489C109.148 6.08209 109.297 5.84346 109.309 5.64902L109.309 5.64902ZM109.334 3.81004C109.275 3.51348 109.13 3.25131 108.901 3.02232C108.589 2.70925 108.211 2.55348 107.77 2.55348C107.328 2.55348 106.95 2.70925 106.639 3.02232C106.325 3.33417 106.169 3.7122 106.169 4.15353C106.169 4.59638 106.325 4.97152 106.639 5.28336C106.95 5.59521 107.328 5.74961 107.77 5.74961C108.211 5.74961 108.589 5.59368 108.901 5.28199C109.128 5.05437 109.272 4.79496 109.334 4.50115L109.334 3.81004ZM100.145 0.674599L99.6844 0.674599L98.658 1.72158L99.2926 1.72158L99.9147 1.21529L100.574 1.72158L101.209 1.72158L100.145 0.674599ZM102.219 0L101.075 0.871796L100.537 0.871796L101.297 0L102.219 0ZM100.824 2.80861C100.603 2.63893 100.311 2.55348 99.9479 2.55348C99.5078 2.55348 99.1325 2.70925 98.8195 3.01957C98.5076 3.33141 98.3505 3.70808 98.3505 4.1494C98.3505 4.51353 98.4361 4.80611 98.6056 5.02685L100.824 2.80861ZM98.9532 5.40199C99.2071 5.63098 99.5382 5.74548 99.9479 5.74548C100.389 5.74548 100.766 5.59093 101.079 5.28199C101.119 5.24056 101.17 5.18262 101.232 5.10818L101.754 5.29299C101.641 5.45304 101.543 5.57442 101.458 5.65712C101.042 6.07521 100.537 6.28341 99.9479 6.28341C99.3603 6.28341 98.858 6.07521 98.4416 5.65865C98.0262 5.24331 97.818 4.73992 97.818 4.1494C97.818 3.56178 98.0262 3.06099 98.4416 2.64443C98.858 2.22787 99.3603 2.01952 99.9479 2.01952C100.451 2.01952 100.893 2.17131 101.274 2.472C101.334 2.52443 101.396 2.58099 101.458 2.64168C101.481 2.66645 101.52 2.71062 101.58 2.77544L101.269 3.08729L98.9532 5.40199ZM94.0532 0.0524331L94.5664 0.0524331L94.5664 2.41957C94.765 2.2265 95.0753 2.12851 95.4948 2.12851C95.95 2.12851 96.3212 2.27343 96.6081 2.56173C96.895 2.85004 97.0425 3.21141 97.0508 3.64448L97.0508 6.1787L96.5378 6.1787L96.5378 3.67628C96.5378 3.39073 96.4343 3.14797 96.2287 2.94512C96.0231 2.7438 95.7776 2.64168 95.4948 2.64168C95.212 2.64168 94.9678 2.74242 94.7595 2.94099C94.6713 3.03348 94.6065 3.12046 94.5664 3.20454L94.5664 6.1787L94.0532 6.1787L94.0532 0.0524331ZM92.0293 2.352L92.0293 0.795974L92.5425 0.795974L92.5425 2.352L93.286 2.352L93.286 2.86104L92.5425 2.86104L92.5425 6.1787L92.0293 6.1787L92.0293 2.86104L91.2858 2.86104L91.2858 2.352L92.0293 2.352ZM87.1003 5.64902L87.0728 5.65712C86.6547 6.07521 86.1511 6.28341 85.5608 6.28341C84.9731 6.28341 84.4724 6.07521 84.0558 5.65865C83.6392 5.24331 83.4309 4.7413 83.4309 4.15353C83.4309 3.56316 83.6392 3.06099 84.0558 2.64581C84.4724 2.232 84.9731 2.02364 85.5608 2.02364C86.1511 2.02364 86.6741 2.24438 87.1293 2.68724L87.1293 2.352L87.6425 2.352L87.6425 5.27786C87.6425 5.84897 87.4396 6.33738 87.0327 6.74431C86.6175 7.15949 86.1167 7.36632 85.5291 7.36632C84.9388 7.36632 84.4352 7.15949 84.0171 6.74431C83.9344 6.6587 83.8351 6.53732 83.7221 6.38003L84.2434 6.19521C84.3054 6.2669 84.3565 6.32347 84.3965 6.36489C84.7098 6.67659 85.0864 6.83389 85.5291 6.83389C85.9677 6.83389 86.3444 6.67659 86.6562 6.36489C86.939 6.08209 87.0879 5.84346 87.1003 5.64902L87.1003 5.64902ZM87.125 3.81004C87.0659 3.51348 86.9211 3.25131 86.692 3.02232C86.3801 2.70925 86.0022 2.55348 85.5608 2.55348C85.1193 2.55348 84.7416 2.70925 84.4297 3.02232C84.1165 3.33417 83.9606 3.7122 83.9606 4.15353C83.9606 4.59638 84.1165 4.97152 84.4297 5.28336C84.7416 5.59521 85.1193 5.74961 85.5608 5.74961C86.0022 5.74961 86.3801 5.59368 86.692 5.28199C86.9196 5.05437 87.063 4.79496 87.125 4.50115L87.125 3.81004ZM79.9944 3.27348L79.9944 6.1787L79.4814 6.1787L79.4814 2.352L79.9944 2.352L79.9944 2.46099C80.2152 2.23888 80.5393 2.12851 80.9684 2.12851C81.4237 2.12851 81.7946 2.27343 82.0815 2.56173C82.3685 2.85004 82.5161 3.21141 82.5245 3.64448L82.5245 6.1787L82.014 6.1787L82.014 3.67628C82.014 3.39073 81.9106 3.14797 81.7038 2.94512C81.4953 2.7438 81.2513 2.64168 80.9684 2.64168C80.6856 2.64168 80.4401 2.74242 80.2318 2.94099C80.1186 3.05411 80.04 3.16448 79.9944 3.27348L79.9944 3.27348ZM76.8035 0.674599L77.8699 1.72158L77.2354 1.72158L76.5773 1.21529L75.9511 1.72158L75.3164 1.72158L76.3428 0.674599L76.8035 0.674599ZM76.5855 6.55383C76.7016 6.55383 76.8008 6.59526 76.8835 6.67811C76.9677 6.75944 77.0091 6.8588 77.0091 6.97452C77.0091 7.0933 76.9677 7.19404 76.8835 7.27536C76.8008 7.35806 76.7016 7.39949 76.5855 7.39949C76.4697 7.39949 76.3691 7.35806 76.2862 7.27536C76.2021 7.19404 76.1607 7.0933 76.1607 6.97452C76.1607 6.8588 76.2021 6.75944 76.2862 6.67811C76.3691 6.59526 76.4697 6.55383 76.5855 6.55383L76.5855 6.55383ZM76.5855 2.55348C76.1428 2.55348 75.7662 2.70925 75.4531 3.02232C75.1413 3.33417 74.9841 3.7122 74.9841 4.15353C74.9841 4.59638 75.1413 4.97152 75.4531 5.28199C75.7662 5.59093 76.1428 5.74548 76.5855 5.74548C77.027 5.74548 77.4037 5.59093 77.7169 5.28199C78.0286 4.97152 78.1857 4.59638 78.1857 4.15353C78.1857 3.7122 78.0286 3.33417 77.7169 3.02232C77.4037 2.70925 77.027 2.55348 76.5855 2.55348L76.5855 2.55348ZM76.5855 2.01952C77.1747 2.01952 77.6782 2.22787 78.092 2.64443C78.5072 3.06099 78.7156 3.56316 78.7156 4.15353C78.7156 4.7413 78.5072 5.24331 78.092 5.65865C77.6782 6.07521 77.1747 6.28341 76.5855 6.28341C75.9979 6.28341 75.4957 6.07521 75.0793 5.65865C74.664 5.24331 74.4558 4.7413 74.4558 4.15353C74.4558 3.56316 74.664 3.06099 75.0793 2.64443C75.4957 2.22787 75.9979 2.01952 76.5855 2.01952L76.5855 2.01952ZM72.4332 2.352L72.9464 2.352L72.9464 2.81962C73.3174 2.46512 73.6996 2.27755 74.0941 2.25814L74.0941 2.80448C73.8486 2.81411 73.6222 2.92586 73.414 3.13559C73.1132 3.43215 72.956 3.7894 72.9464 4.20596L72.9464 6.1787L72.4332 6.1787L72.4332 2.352ZM68.6243 3.27348C68.7456 3.54252 68.8063 3.83633 68.8063 4.15353C68.8063 4.7413 68.5981 5.24331 68.1828 5.65865C67.769 6.07521 67.2654 6.28341 66.6764 6.28341C66.0888 6.28341 65.5866 6.07521 65.1699 5.65865C64.7549 5.24331 64.5465 4.7413 64.5465 4.15353C64.5465 3.56316 64.7549 3.06099 65.1699 2.64443C65.5866 2.22787 66.0888 2.01952 66.6764 2.01952C67.2654 2.01952 67.769 2.22787 68.1828 2.64168C68.3291 2.79057 68.4492 2.94787 68.5429 3.1148L68.7816 2.23475L69.3155 2.23475L68.8132 3.27348L68.6243 3.27348ZM66.1633 1.77814C66.1756 1.69682 66.2033 1.61534 66.2432 1.53524C66.3357 1.34354 66.4708 1.18089 66.6517 1.0456C66.7359 0.962905 66.7964 0.881427 66.8337 0.802854C66.853 0.762803 66.8614 0.721529 66.8614 0.678726C66.8614 0.648306 66.8571 0.617885 66.8461 0.584866C66.8212 0.513172 66.7772 0.460739 66.7122 0.431694C66.678 0.415185 66.6434 0.40693 66.6116 0.40693C66.5867 0.40693 66.5619 0.411057 66.5344 0.419312C66.4669 0.444229 66.4184 0.488255 66.3895 0.553223C66.3702 0.593121 66.3605 0.675822 66.3605 0.800102L65.9439 0.779465L65.9439 0.653809C65.9439 0.571108 65.9647 0.488255 66.0046 0.40693C66.0861 0.242752 66.2129 0.131006 66.3854 0.0716943C66.4626 0.0455541 66.5398 0.0316433 66.6157 0.0316433C66.7179 0.0316433 66.8157 0.0551847 66.9109 0.100739C67.0751 0.180688 67.1869 0.304815 67.2462 0.471745C67.2697 0.542064 67.2821 0.612535 67.2821 0.682853C67.2821 0.773809 67.2599 0.863541 67.2173 0.953121C67.1441 1.10079 67.0283 1.23868 66.8697 1.36571C66.7619 1.45941 66.6806 1.56566 66.624 1.68443C66.6047 1.72158 66.5908 1.75873 66.5827 1.79327L66.1633 1.77814ZM66.6764 2.55348C66.2336 2.55348 65.8571 2.70925 65.544 3.02232C65.2322 3.33417 65.0749 3.7122 65.0749 4.15353C65.0749 4.59638 65.2322 4.97152 65.544 5.28199C65.8571 5.59093 66.2336 5.74548 66.6764 5.74548C67.1179 5.74548 67.4944 5.59093 67.8076 5.28199C68.1193 4.97152 68.2766 4.59638 68.2766 4.15353C68.2766 3.7122 68.1193 3.33417 67.8076 3.02232C67.4944 2.70925 67.1179 2.55348 66.6764 2.55348L66.6764 2.55348ZM59.6065 2.352L60.1195 2.352L60.1195 2.3147C60.2423 2.19333 60.463 2.13264 60.7776 2.13264C61.1003 2.13264 61.3778 2.24713 61.6068 2.47613L61.6909 2.56173L61.7806 2.47613C62.0096 2.24713 62.2853 2.13264 62.6082 2.13264C62.935 2.13264 63.211 2.24713 63.4372 2.47613C63.6552 2.69549 63.7697 2.95888 63.7807 3.26935L63.7807 6.1787L63.2675 6.1787L63.2675 3.1839C63.262 3.07338 63.1986 2.95888 63.0772 2.84025C62.9476 2.71062 62.7916 2.64581 62.6082 2.64581C62.4275 2.64581 62.273 2.71062 62.142 2.84025C62.0108 2.97004 61.9461 3.13131 61.9461 3.32591L61.9461 6.1787L61.4369 6.1787L61.4369 3.1839L61.4328 3.1839C61.4273 3.07338 61.3652 2.95888 61.2466 2.84025C61.1142 2.71062 60.9585 2.64581 60.7776 2.64581C60.5942 2.64581 60.4396 2.71062 60.3128 2.84025C60.1969 2.95062 60.1319 3.08576 60.1195 3.24459L60.1195 6.1787L59.6065 6.1787L59.6065 2.352ZM55.9382 5.38273L55.1147 5.38273L54.6815 6.99118L55.1671 6.99118L55.9382 5.38273ZM52.7598 7.5733L52.2384 7.5733L53.2647 5.41437L51.7983 2.352L52.3763 2.352L53.5322 4.84464L54.6884 2.352L55.2581 2.352L52.7598 7.5733ZM49.5414 6.23113C49.0584 6.23113 48.6735 6.08759 48.3866 5.80066C48.0997 5.51373 47.9522 5.15236 47.9453 4.71501L47.9453 2.34375L48.4584 2.34375L48.4584 4.68336C48.4584 4.96892 48.5619 5.21167 48.7688 5.41024C48.9744 5.61585 49.2295 5.71796 49.5372 5.71796C49.8199 5.71796 50.0642 5.61722 50.2711 5.41437C50.4766 5.21304 50.5801 4.96892 50.5801 4.68336L50.5801 2.34375L51.0933 2.34375L51.0933 4.71501C51.085 5.15236 50.9373 5.51373 50.6518 5.79929C50.3635 6.08759 49.9938 6.23113 49.5414 6.23113L49.5414 6.23113ZM46.4235 4.47363L46.4235 3.83083C46.3669 3.52586 46.2208 3.25697 45.9863 3.02232C45.6744 2.70925 45.2966 2.55348 44.8551 2.55348C44.4136 2.55348 44.0356 2.70925 43.7239 3.02232C43.4108 3.33417 43.2549 3.7122 43.2549 4.15353C43.2549 4.59638 43.4108 4.97152 43.7239 5.28199C44.0356 5.59093 44.4136 5.74548 44.8551 5.74548C45.2966 5.74548 45.6744 5.59093 45.9863 5.28199C46.2208 5.04474 46.3669 4.77432 46.4235 4.47363L46.4235 4.47363ZM46.9368 6.1787L46.4235 6.1787L46.4235 5.61722C45.9684 6.06145 45.4454 6.28341 44.8551 6.28341C44.2675 6.28341 43.7667 6.07521 43.3501 5.65865C42.9336 5.24331 42.7252 4.7413 42.7252 4.15353C42.7252 3.56316 42.9336 3.06099 43.3501 2.64443C43.7667 2.22787 44.2675 2.01952 44.8551 2.01952C45.4454 2.01952 45.9684 2.24163 46.4235 2.68724L46.4235 0.0524331L46.9368 0.0524331L46.9368 6.1787ZM38.9577 3.38247L38.9577 4.71501C38.9494 5.15236 38.8017 5.51373 38.5163 5.79929C38.2279 6.08759 37.8582 6.23113 37.4058 6.23113C36.9229 6.23113 36.5381 6.08759 36.2512 5.80066C35.9642 5.51373 35.8166 5.15236 35.8097 4.71501L35.8097 2.34375L36.3229 2.34375L36.3229 4.68336C36.3229 4.96892 36.4263 5.21167 36.6332 5.41024C36.8388 5.61585 37.0939 5.71796 37.4016 5.71796C37.6844 5.71796 37.9286 5.61722 38.1355 5.41437C38.3411 5.21304 38.4445 4.96892 38.4445 4.68336L38.4445 2.34375L38.9577 2.34375L38.9577 2.9176L39.1108 2.34375L39.6446 2.34375L39.1425 3.38247L38.9577 3.38247ZM33.7859 2.352L33.7859 0.795974L34.2991 0.795974L34.2991 2.352L35.0424 2.352L35.0424 2.86104L34.2991 2.86104L34.2991 6.1787L33.7859 6.1787L33.7859 2.86104L33.0422 2.86104L33.0422 2.352L33.7859 2.352ZM28.8569 5.64902L28.8292 5.65712C28.4113 6.07521 27.9077 6.28341 27.3174 6.28341C26.7297 6.28341 26.2289 6.07521 25.8124 5.65865C25.3957 5.24331 25.1875 4.7413 25.1875 4.15353C25.1875 3.56316 25.3957 3.06099 25.8124 2.64581C26.2289 2.232 26.7297 2.02364 27.3174 2.02364C27.9077 2.02364 28.4305 2.24438 28.8858 2.68724L28.8858 2.352L29.3989 2.352L29.3989 5.27786C29.3989 5.84897 29.1961 6.33738 28.7891 6.74431C28.374 7.15949 27.8732 7.36632 27.2856 7.36632C26.695 7.36632 26.1916 7.15949 25.7737 6.74431C25.6909 6.6587 25.5915 6.53732 25.4784 6.38003L26 6.19521C26.062 6.2669 26.1131 6.32347 26.153 6.36489C26.4662 6.67659 26.8427 6.83389 27.2856 6.83389C27.7243 6.83389 28.1008 6.67659 28.4126 6.36489C28.6954 6.08209 28.8443 5.84346 28.8569 5.64902L28.8569 5.64902ZM28.8816 3.81004C28.8223 3.51348 28.6774 3.25131 28.4486 3.02232C28.1367 2.70925 27.7587 2.55348 27.3174 2.55348C26.8759 2.55348 26.4978 2.70925 26.1861 3.02232C25.8731 3.33417 25.7171 3.7122 25.7171 4.15353C25.7171 4.59638 25.8731 4.97152 26.1861 5.28336C26.4978 5.59521 26.8759 5.74961 27.3174 5.74961C27.7587 5.74961 28.1367 5.59368 28.4486 5.28199C28.676 5.05437 28.8196 4.79496 28.8816 4.50115L28.8816 3.81004ZM21.7509 3.27348L21.7509 6.1787L21.2377 6.1787L21.2377 2.352L21.7509 2.352L21.7509 2.46099C21.9718 2.23888 22.2958 2.12851 22.7248 2.12851C23.18 2.12851 23.5512 2.27343 23.8381 2.56173C24.125 2.85004 24.2726 3.21141 24.281 3.64448L24.281 6.1787L23.7705 6.1787L23.7705 3.67628C23.7705 3.39073 23.6671 3.14797 23.4601 2.94512C23.2519 2.7438 23.0076 2.64168 22.7248 2.64168C22.442 2.64168 22.1965 2.74242 21.9881 2.94099C21.8752 3.05411 21.7966 3.16448 21.7509 3.27348L21.7509 3.27348ZM18.5601 0.674599L19.6263 1.72158L18.9918 1.72158L18.3339 1.21529L17.7076 1.72158L17.073 1.72158L18.0994 0.674599L18.5601 0.674599ZM18.3421 6.55383C18.458 6.55383 18.5574 6.59526 18.6401 6.67811C18.7241 6.75944 18.7656 6.8588 18.7656 6.97452C18.7656 7.0933 18.7241 7.19404 18.6401 7.27536C18.5574 7.35806 18.458 7.39949 18.3421 7.39949C18.2262 7.39949 18.1255 7.35806 18.0427 7.27536C17.9586 7.19404 17.9171 7.0933 17.9171 6.97452C17.9171 6.8588 17.9586 6.75944 18.0427 6.67811C18.1255 6.59526 18.2262 6.55383 18.3421 6.55383L18.3421 6.55383ZM18.3421 2.55348C17.8993 2.55348 17.5228 2.70925 17.2095 3.02232C16.8977 3.33417 16.7405 3.7122 16.7405 4.15353C16.7405 4.59638 16.8977 4.97152 17.2095 5.28199C17.5228 5.59093 17.8993 5.74548 18.3421 5.74548C18.7836 5.74548 19.1601 5.59093 19.4732 5.28199C19.785 4.97152 19.9423 4.59638 19.9423 4.15353C19.9423 3.7122 19.785 3.33417 19.4732 3.02232C19.1601 2.70925 18.7836 2.55348 18.3421 2.55348L18.3421 2.55348ZM18.3421 2.01952C18.9311 2.01952 19.4347 2.22787 19.8485 2.64443C20.2636 3.06099 20.472 3.56316 20.472 4.15353C20.472 4.7413 20.2636 5.24331 19.8485 5.65865C19.4347 6.07521 18.9311 6.28341 18.3421 6.28341C17.7545 6.28341 17.2523 6.07521 16.8356 5.65865C16.4204 5.24331 16.2121 4.7413 16.2121 4.15353C16.2121 3.56316 16.4204 3.06099 16.8356 2.64443C17.2523 2.22787 17.7545 2.01952 18.3421 2.01952L18.3421 2.01952ZM14.1897 2.352L14.7028 2.352L14.7028 2.81962C15.074 2.46512 15.456 2.27755 15.8505 2.25814L15.8505 2.80448C15.605 2.81411 15.3788 2.92586 15.1704 3.13559C14.8698 3.43215 14.7125 3.7894 14.7028 4.20596L14.7028 6.1787L14.1897 6.1787L14.1897 2.352ZM10.3807 3.27348C10.5021 3.54252 10.5629 3.83633 10.5629 4.15353C10.5629 4.7413 10.3545 5.24331 9.93936 5.65865C9.52555 6.07521 9.02201 6.28341 8.43302 6.28341C7.84525 6.28341 7.34308 6.07521 6.92652 5.65865C6.51134 5.24331 6.30298 4.7413 6.30298 4.15353C6.30298 3.56316 6.51134 3.06099 6.92652 2.64443C7.34308 2.22787 7.84525 2.01952 8.43302 2.01952C9.02201 2.01952 9.52555 2.22787 9.93936 2.64168C10.0855 2.79057 10.2055 2.94787 10.2994 3.1148L10.538 2.23475L11.0718 2.23475L10.5698 3.27348L10.3807 3.27348ZM7.91969 1.77814C7.93223 1.69682 7.95975 1.61534 7.9998 1.53524C8.09213 1.34354 8.22726 1.18089 8.4081 1.0456C8.49218 0.962905 8.55287 0.881427 8.59017 0.802854C8.60943 0.762803 8.61784 0.721529 8.61784 0.678726C8.61784 0.648306 8.61355 0.617885 8.60255 0.584866C8.57778 0.513172 8.53361 0.460739 8.46879 0.431694C8.43424 0.415185 8.39985 0.40693 8.36805 0.40693C8.34329 0.40693 8.31837 0.411057 8.29085 0.419312C8.22329 0.444229 8.17498 0.488255 8.14594 0.553223C8.12668 0.593121 8.11704 0.675822 8.11704 0.800102L7.70048 0.779465L7.70048 0.653809C7.70048 0.571108 7.72112 0.488255 7.76117 0.40693C7.8425 0.242752 7.96938 0.131006 8.14181 0.0716943C8.21916 0.0455541 8.29636 0.0316433 8.37218 0.0316433C8.47429 0.0316433 8.57228 0.0551847 8.66736 0.100739C8.83169 0.180688 8.94329 0.304815 9.0026 0.471745C9.02614 0.542064 9.03852 0.612535 9.03852 0.682853C9.03852 0.773809 9.01651 0.863541 8.97371 0.953121C8.90064 1.10079 8.78461 1.23868 8.62609 1.36571C8.51847 1.45941 8.43699 1.56566 8.38043 1.68443C8.36117 1.72158 8.34741 1.75873 8.33916 1.79327L7.91969 1.77814ZM8.43302 2.55348C7.99017 2.55348 7.6135 2.70925 7.30028 3.02232C6.98859 3.33417 6.83129 3.7122 6.83129 4.15353C6.83129 4.59638 6.98859 4.97152 7.30028 5.28199C7.6135 5.59093 7.99017 5.74548 8.43302 5.74548C8.87434 5.74548 9.25101 5.59093 9.56408 5.28199C9.87592 4.97152 10.0331 4.59638 10.0331 4.15353C10.0331 3.7122 9.87592 3.33417 9.56408 3.02232C9.25101 2.70925 8.87434 2.55348 8.43302 2.55348L8.43302 2.55348ZM0.584866 0.0524331L2.77131 3.83083L4.9495 0.0524331L5.53575 0.0524331L5.45855 0.188943L5.45855 6.1787L4.94538 6.1787L4.94538 1.07878L2.77131 4.84464L0.588994 1.07878L0.588994 6.1787L0.0801019 6.1787L0.0801019 0.188943L0 0.0524331L0.584866 0.0524331Z" transform="translate(1.631526 31.05371)" id="Fill-9" fill="#2E3092" stroke="none" />
    <g id="Group-13" transform="translate(0 0.1047134)">
      <path d="M0 0L20.8104 0L20.8104 14.6226L0 14.6226L0 0Z" transform="translate(2.815814E-05 0.04815287)" id="Clip-12" fill="none" stroke="none" />
      <g clip-path="url(#mask_1)">
        <path d="M11.114 6.71424C13.477 5.44667 15.1588 5.2588 16.7917 5.26736C17.3405 5.27485 18.388 5.41885 18.9239 5.54405C19.0948 5.56392 19.2596 5.66711 19.3105 5.7495L19.872 6.82629C19.9411 6.93834 19.92 7.06981 19.8546 7.18385C19.7892 7.29819 19.6747 7.3627 19.543 7.35964C19.477 7.35811 19.4111 7.35735 19.3454 7.35643C18.7382 7.2615 18.1163 7.21167 17.4826 7.21167C12.5807 7.21167 8.36866 10.1632 6.52479 14.3857L6.51348 14.4045C6.44974 14.5135 6.30008 14.6133 6.17152 14.6219C6.04525 14.6301 5.8826 14.5702 5.81641 14.4627L5.10436 13.0767L0.360155 13.0767C0.233582 13.0767 0.123365 13.0246 0.0554929 12.9177C-0.0122269 12.8105 -0.0181887 12.6857 0.0388304 12.5727L6.37483 0.189145C6.43491 0.0703675 6.54696 0.00249492 6.68026 0.000354792L20.4534 4.9059e-05C20.5815 -0.00209107 20.6924 0.0659344 20.7586 0.17554C20.825 0.284992 20.8276 0.411871 20.7663 0.52438L18.7922 4.36652C18.7231 4.49279 18.6416 4.51725 18.4983 4.50257C16.5693 4.25523 13.3571 4.84927 11.114 6.71424" transform="translate(2.815814E-05 0.04814967)" id="Fill-11" fill="#2E3092" stroke="none" />
      </g>
    </g>
    <path d="M1.0722 0.0293503L0 8.35062C0.407847 8.66033 0.86828 8.7522 1.29371 8.71811C1.01197 7.74497 0.944713 6.61299 1.04148 5.6105C1.0427 5.59322 1.0505 5.56204 1.04698 5.61157C0.976662 6.73345 1.30563 7.91098 1.63506 8.65192C1.8376 8.5972 2.02639 8.50318 2.20357 8.3731L1.19755 0L1.0722 0.0293503Z" transform="translate(1.444357 16.05861)" id="Fill-14" fill="#FAAE17" stroke="none" />
    <path d="M0.601529 1.20306C0.93279 1.20306 1.20306 0.932789 1.20306 0.601528C1.20306 0.270267 0.93279 0 0.601529 0C0.270268 0 0 0.270267 0 0.601528C0 0.932789 0.270268 1.20306 0.601529 1.20306" transform="translate(1.944657 14.95582)" id="Fill-16" fill="#FAAE17" stroke="none" />
    <path d="M0.0123822 0.285401L0 7.47501L0.350828 7.47501L0.158369 0L0.0123822 0.285401Z" transform="translate(2.370711 7.856882)" id="Fill-18" fill="#FAAE17" stroke="none" />
    <path d="M58.1732 19.9851L52.1262 19.9851L52.1262 19.5415C52.9012 19.4683 53.3956 19.3026 53.6191 19.0588C53.9138 18.7419 54.0659 18.0544 54.0659 17.0012L54.0659 11.214C54.0659 9.1466 53.3291 8.11292 51.8648 8.11292C51.399 8.11292 50.9283 8.24453 50.4434 8.50303C49.8682 8.81503 49.3072 9.30268 48.7558 9.95603L48.7558 17.0012C48.7558 18.0544 48.9079 18.7419 49.2026 19.0588C49.4261 19.3026 49.9252 19.4683 50.6953 19.5415L50.6953 19.9851L44.5391 19.9851L44.5391 19.5415C45.3377 19.4391 45.8322 19.2587 46.027 19.0002C46.2504 18.7029 46.3645 18.0397 46.3645 17.0012L46.3645 3.21294C46.3645 2.68158 46.3122 2.32571 46.2076 2.14517C46.0413 1.86726 45.6752 1.73075 45.1096 1.73075L44.8005 1.73075C44.6816 1.74054 44.6009 1.75032 44.5675 1.75995L44.5675 1.28713L46.5594 0.68744C47.3295 0.44851 48.0142 0.219363 48.6179 0L48.7558 0.0875924L48.7558 8.92724L48.8129 8.92724C49.911 7.32795 51.2801 6.52846 52.9203 6.52846C53.7378 6.52846 54.4178 6.71373 54.9548 7.08413C55.4113 7.40117 55.763 7.84479 56.0151 8.41529C56.2004 8.85417 56.3288 9.36596 56.4049 9.95603L56.4477 10.6435L56.4619 17.0012C56.4619 18.03 56.5665 18.6833 56.7805 18.971C56.9563 19.2197 57.4222 19.4097 58.1732 19.5415L58.1732 19.9851ZM44.0684 7.75704L44.0684 6.816L41.1877 6.816L41.1877 3.42757C41.1877 3.17396 41.1164 3.04234 40.9785 3.04234L39.7091 4.87062C39.3479 5.35811 38.9153 5.86043 38.416 6.3869C38.2878 6.51867 38.131 6.65518 37.955 6.7868L37.551 7.0745C37.2942 7.26466 37.161 7.42548 37.161 7.5571C37.161 7.65462 37.1991 7.71806 37.2752 7.75704L38.7916 7.75704L38.7916 16.5576C38.7916 17.9277 39.0485 18.9125 39.557 19.5122C39.9849 20.0192 40.603 20.2728 41.4112 20.2728C42.8325 20.2728 43.9449 19.5317 44.7531 18.0544L44.3775 17.7276L44.097 18.0544C43.9782 18.1909 43.8546 18.2981 43.7358 18.386C43.403 18.6345 43.0369 18.7564 42.6376 18.7564C42.0053 18.7564 41.5822 18.4346 41.3682 17.7863C41.2828 17.5474 41.2305 17.2548 41.2019 16.9134C41.1924 16.7916 41.1877 16.6502 41.1877 16.499L41.1877 7.75704L44.0684 7.75704ZM37.1659 18.8149C36.6478 19.444 36.1344 19.868 35.621 20.0875C35.4356 20.1704 35.2455 20.2289 35.0504 20.2581C34.9792 20.2679 34.903 20.2728 34.8271 20.2728L34.4087 20.2728C34.3183 20.2728 34.228 20.263 34.1473 20.2435C33.9334 20.1949 33.7432 20.1118 33.5768 19.9998C33.111 19.6682 32.8447 19.049 32.7828 18.1422C32.1126 18.7613 31.4851 19.2391 30.9004 19.5707C30.1017 20.0388 29.3505 20.2728 28.6421 20.2728C27.8293 20.2728 27.1305 20.0096 26.5552 19.483C25.9325 18.9222 25.6234 18.1714 25.6234 17.2303C25.6234 15.8944 26.232 14.8023 27.449 13.9442C27.9861 13.564 28.7277 13.1592 29.6738 12.7302L32.7543 11.443L32.7543 9.65855C32.7543 8.72239 32.4929 8.05926 31.9747 7.65952C31.7702 7.49381 31.5326 7.38161 31.2616 7.31327C31.0477 7.25977 30.8146 7.23042 30.5532 7.23042C30.0399 7.23042 29.5882 7.35241 29.1889 7.60097C28.7515 7.88866 28.5329 8.2398 28.5329 8.65911C28.5329 8.76138 28.5377 8.87358 28.547 8.98563L28.6708 9.79995C28.6708 10.6386 28.2475 11.0579 27.3919 11.0579C26.9925 11.0579 26.6741 10.9067 26.4459 10.5996C26.2604 10.3411 26.1653 10.0681 26.1653 9.77075C26.1653 9.03929 26.5267 8.35185 27.2541 7.71317C28.1335 6.92331 29.322 6.52846 30.8195 6.52846C31.8131 6.52846 32.6259 6.68927 33.2677 7.01595C33.8145 7.28897 34.2376 7.68887 34.5371 8.21534C34.7699 8.63465 34.9221 9.14171 34.9934 9.7414L35.0504 10.5019L35.079 17.5425C35.0885 17.7618 35.117 17.9422 35.1644 18.0836C35.2835 18.4395 35.526 18.6151 35.8872 18.6151C36.1581 18.6151 36.4054 18.5517 36.6384 18.4299L37.1659 18.0544L37.1659 18.8149ZM32.7543 12.1451C31.7418 12.4864 30.8956 12.857 30.2206 13.2567C29.6262 13.6078 29.1605 13.9831 28.8275 14.3732C28.547 14.6952 28.3568 15.0315 28.2524 15.3874C28.1716 15.641 28.1288 15.9285 28.1288 16.2407L28.1288 16.2992C28.1288 17.8253 28.7561 18.5858 30.0113 18.5858C30.2871 18.5858 30.6294 18.5127 31.0381 18.3713L31.7798 18.0544C32.4263 17.7326 32.7543 17.1767 32.7543 16.3868L32.7543 12.1451ZM24.2784 1.17493C23.2847 1.25778 22.6429 1.42364 22.353 1.6722C21.9822 2.01355 21.7967 2.72545 21.7967 3.80285L21.7967 16.8014C21.7967 17.8643 21.9822 18.5711 22.353 18.9125C22.6525 19.1904 23.2942 19.361 24.2784 19.4293L24.2784 19.9851L16.2822 19.9851L16.2822 19.4293C17.3945 19.3708 18.1076 19.1661 18.412 18.8149C18.7305 18.4542 18.8872 17.6692 18.8872 16.4698L18.8872 3.34471L18.8302 3.34471L11.5758 19.9851L11.186 19.9851L4.08352 4.01732L4.0265 4.01732L4.0265 15.6848C4.0265 17.1621 4.21192 18.1518 4.58278 18.659C4.93452 19.122 5.6429 19.3805 6.69829 19.4293L6.69829 19.9851L0 19.9851L0 19.4293C1.12662 19.3513 1.8587 19.1026 2.20112 18.6833C2.5813 18.2103 2.77147 17.2109 2.77147 15.6848L2.77147 3.80285C2.77147 2.71567 2.5813 2.00377 2.20112 1.6722C1.88729 1.40408 1.16958 1.23837 0.0570191 1.17493L0.0570191 0.614217L5.71414 0.614217L12.2982 15.3874L18.5925 0.614217L24.2784 0.614217L24.2784 1.17493Z" transform="translate(61.78526 7.249101)" id="Fill-20" fill="#FAAE17" stroke="none" />
  </g>
</svg>