<?xml version="1.0" encoding="utf-8"?>
<svg width="15px" height="12px" viewBox="0 0 15 12" version="1.1" xmlns:xlink="http://www.w3.org/1999/xlink" xmlns="http://www.w3.org/2000/svg">
  <desc>Created with Lunacy</desc>
  <g id="Group">
    <path d="M1.4397 3.87517C1.62945 4.018 2.20142 4.4422 3.15564 5.14756C4.1099 5.85292 4.84092 6.39603 5.34874 6.77692C5.40453 6.81868 5.52307 6.90943 5.7044 7.04932C5.88576 7.18931 6.03646 7.30243 6.15637 7.38871C6.27637 7.47497 6.42144 7.57173 6.59172 7.67884C6.76194 7.78586 6.9224 7.86636 7.07307 7.91966C7.22376 7.97339 7.36326 8 7.49159 8L7.5 8L7.50844 8C7.63677 8 7.77632 7.97335 7.92702 7.91966C8.07763 7.86636 8.23823 7.78577 8.40831 7.67884C8.57847 7.5716 8.72354 7.47494 8.84354 7.38871C8.96354 7.30243 9.11412 7.18931 9.29554 7.04932C9.47684 6.90931 9.59552 6.81868 9.65132 6.77692C10.1646 6.39603 11.4705 5.42869 13.5687 3.87498C13.976 3.57153 14.3164 3.20537 14.5897 2.77675C14.8633 2.34833 15 1.89888 15 1.42867C15 1.03574 14.8674 0.699387 14.6023 0.419639C14.3372 0.139827 14.0233 0 13.6607 0L1.33923 0C0.909571 0 0.578919 0.154745 0.347334 0.464236C0.115778 0.773789 0 1.16071 0 1.62498C0 1.99999 0.153511 2.40637 0.460385 2.84387C0.76723 3.28139 1.09378 3.62519 1.4397 3.87517Z" id="Path" fill="#FAAE17" stroke="none" />
    <path d="M14.1628 0.729532C12.3327 1.97051 10.943 2.93496 9.99444 3.62266C9.67637 3.85737 9.41834 4.04059 9.22017 4.17188C9.02201 4.30326 8.75847 4.43743 8.42917 4.57433C8.09998 4.71144 7.7932 4.77979 7.50855 4.77979L7.50001 4.77979L7.4916 4.77979C7.20701 4.77979 6.90005 4.71144 6.57086 4.57433C6.24168 4.43743 5.97796 4.30326 5.77986 4.17188C5.58181 4.04059 5.32369 3.85737 5.00565 3.62266C4.25226 3.06924 2.86556 2.10474 0.845509 0.729532C0.527347 0.517234 0.24554 0.27389 0 0L0 6.6581C0 7.0273 0.131082 7.34302 0.393392 7.60577C0.655644 7.86862 0.970991 8 1.33932 8L13.6608 8C14.029 8 14.3443 7.86862 14.6066 7.60577C14.869 7.34293 15 7.02733 15 6.6581L15 0C14.76 0.268221 14.4811 0.511565 14.1628 0.729532Z" transform="translate(0 4)" id="Path" fill="#FAAE17" stroke="none" />
  </g>
</svg>