<?xml version="1.0" encoding="utf-8"?>
<svg width="16px" height="12px" viewBox="0 0 16 12" version="1.1" xmlns:xlink="http://www.w3.org/1999/xlink" xmlns="http://www.w3.org/2000/svg">
  <desc>Created with Lunacy</desc>
  <g id="Group">
    <path d="M1.53568 3.87517C1.73808 4.018 2.34818 4.4422 3.36602 5.14756C4.38389 5.85292 5.16365 6.39603 5.70532 6.77692C5.76484 6.81868 5.89127 6.90943 6.08469 7.04932C6.27815 7.18931 6.43889 7.30243 6.5668 7.38871C6.6948 7.47497 6.84953 7.57173 7.03117 7.67884C7.21274 7.78586 7.38389 7.86636 7.5446 7.91966C7.70535 7.97339 7.85414 8 7.99102 8L8 8L8.00901 8C8.14589 8 8.29475 7.97335 8.45549 7.91966C8.61614 7.86636 8.78745 7.78577 8.96886 7.67884C9.15037 7.5716 9.30511 7.47494 9.43311 7.38871C9.56111 7.30243 9.72173 7.18931 9.91524 7.04932C10.1086 6.90931 10.2352 6.81868 10.2947 6.77692C10.8423 6.39603 12.2352 5.42869 14.4733 3.87498C14.9078 3.57153 15.2708 3.20537 15.5624 2.77675C15.8542 2.34833 16 1.89888 16 1.42867C16 1.03574 15.8586 0.699387 15.5758 0.419639C15.293 0.139827 14.9582 0 14.5714 0L1.42851 0C0.970209 0 0.617514 0.154745 0.370489 0.464236C0.123496 0.773789 0 1.16071 0 1.62498C0 1.99999 0.163745 2.40637 0.491077 2.84387C0.818379 3.28139 1.1667 3.62519 1.53568 3.87517Z" id="Path" fill="#FAAE17" stroke="none" />
    <path d="M15.107 0.729532C13.1548 1.97051 11.6725 2.93496 10.6607 3.62266C10.3215 3.85737 10.0462 4.04059 9.83485 4.17188C9.62348 4.30326 9.34237 4.43743 8.99111 4.57433C8.63998 4.71144 8.31274 4.77979 8.00912 4.77979L8.00002 4.77979L7.99104 4.77979C7.68748 4.77979 7.36005 4.71144 7.00892 4.57433C6.65779 4.43743 6.37649 4.30326 6.16518 4.17188C5.95393 4.04059 5.67861 3.85737 5.33936 3.62266C4.53574 3.06924 3.0566 2.10474 0.901876 0.729532C0.562504 0.517234 0.26191 0.27389 0 0L0 6.6581C0 7.0273 0.139821 7.34302 0.419618 7.60577C0.699353 7.86862 1.03572 8 1.4286 8L14.5715 8C14.9643 8 15.3006 7.86862 15.5804 7.60577C15.8602 7.34293 16 7.02733 16 6.6581L16 0C15.744 0.268221 15.4465 0.511565 15.107 0.729532Z" transform="translate(0 4)" id="Path" fill="#FAAE17" stroke="none" />
  </g>
</svg>