<?xml version="1.0" encoding="utf-8"?>
<svg width="20px" height="18px" viewBox="0 0 20 18" version="1.1" xmlns:xlink="http://www.w3.org/1999/xlink" xmlns="http://www.w3.org/2000/svg">
  <desc>Created with Lunacy</desc>
  <defs>
    <path d="M0 0L8.67369 0L8.67369 17.6632L0 17.6632L0 0Z" id="path_1" />
    <clipPath id="mask_1">
      <use xlink:href="#path_1" />
    </clipPath>
  </defs>
  <g id="Group">
    <path d="M8.71029 6.2238C8.62579 10.465 6.69212 13.6911 3.39162 16.1918C2.84045 16.6093 2.28162 17.0238 1.68962 17.3786C1.14729 17.7036 0.602788 17.7765 0.185122 17.1145C-0.226878 16.4613 0.104622 16.1455 0.632622 15.7873C2.82829 14.2968 4.54779 12.4415 5.04745 9.7123C5.10195 9.4143 5.14112 9.10964 5.14696 8.8073C5.17762 7.19647 5.17312 7.1963 3.65895 7.2458C2.02595 7.29914 0.497288 5.9408 0.313788 4.27297C0.0811215 2.1603 1.23462 0.402637 3.06962 0.0736366C5.62879 -0.385197 7.91912 1.3388 8.46846 4.16897C8.59945 4.84414 8.63229 5.5383 8.71029 6.2238" transform="translate(11.1713 0.03125)" id="Fill-1" fill="#1A1C85" stroke="none" />
    <path d="M0 0L8.67369 0L8.67369 17.6632L0 17.6632L0 0Z" id="Clip-5" fill="none" stroke="none" />
    <g clip-path="url(#mask_1)">
      <path d="M8.66771 5.78258C8.63988 9.94174 7.17004 12.9912 4.37404 15.3951C3.49638 16.1499 2.52221 16.7984 1.55754 17.4437C1.03104 17.7961 0.506543 17.7499 0.156877 17.1172C-0.0966233 16.6582 -0.06679 16.3207 0.423377 16.0046C1.80988 15.1102 3.02154 14.0237 3.92588 12.6219C4.82488 11.2279 5.24288 9.70924 5.15538 8.05158C5.10788 7.15158 4.97871 7.04791 4.11821 7.23391C2.38488 7.60874 0.49721 6.13358 0.31521 4.26241C0.12671 2.32308 1.00121 0.800577 2.63738 0.220077C4.37788 -0.397589 6.37254 0.315577 7.51288 1.97441C8.39321 3.25491 8.72354 4.68708 8.66771 5.78258" id="Fill-4" fill="#1A1C85" stroke="none" />
    </g>
  </g>
</svg>