<?xml version="1.0" encoding="utf-8"?>
<svg width="16px" height="16px" viewBox="0 0 16 16" version="1.1" xmlns:xlink="http://www.w3.org/1999/xlink" xmlns="http://www.w3.org/2000/svg">
  <desc>Created with Lunacy</desc>
  <g id="rss-symbol">
    <path d="M3.61923 12.3424C4.00601 12.7288 4.24123 13.2528 4.24267 13.8364C4.24119 14.4187 4.00601 14.943 3.62068 15.3276L3.61919 15.3283C3.23319 15.7126 2.70586 15.9475 2.1195 15.9475C1.53388 15.9475 1.00789 15.7119 0.621958 15.3276C0.236993 14.943 0 14.4194 0 13.8364C0 13.2528 0.236993 12.7275 0.621958 12.3421L0.621958 12.3424C1.00807 11.9578 1.53407 11.7211 2.1195 11.7211C2.70589 11.7211 3.23271 11.9585 3.61923 12.3424ZM0.00170766 5.42957L0.00170766 8.47844C1.99217 8.47967 3.87467 9.26159 5.28349 10.6726C6.69205 12.0791 7.47066 13.9644 7.47386 15.9617L7.4749 15.9617L7.4749 15.9673L10.5363 15.9673C10.5339 13.063 9.35336 10.4323 7.44475 8.52228C5.53585 6.61257 2.90617 5.43139 0.00170766 5.42957ZM0.0072761 0L0.0072761 3.04739C7.1223 3.05258 12.9062 8.8454 12.911 15.9672L15.9672 15.9672C15.9651 11.5655 14.1761 7.57765 11.2848 4.68436C8.3925 1.79207 4.40728 0.00189327 0.0072761 0Z" id="RSS" fill="#FAAE17" stroke="none" />
  </g>
</svg>