<svg width="20" height="20" viewBox="0 0 20 20" fill="none" xmlns="http://www.w3.org/2000/svg">
<path d="M19.419 16.7723L14.8382 12.191C14.1556 13.2526 13.2523 14.1554 12.1908 14.838L16.772 19.4192C17.5034 20.1504 18.6892 20.1504 19.419 19.4192C20.1504 18.6892 20.1504 17.5034 19.419 16.7723Z" fill="white"/>
<path fill-rule="evenodd" clip-rule="evenodd" d="M7.48792 0C11.6231 0 14.9757 3.3528 14.9757 7.48786C14.9757 11.6229 11.6231 14.9756 7.48792 14.9756C3.35286 14.9756 6.10352e-05 11.6229 6.10352e-05 7.48786C6.10352e-05 3.3528 3.35286 0 7.48792 0ZM1.87208 7.4879C1.87208 10.5847 4.39113 13.1035 7.48792 13.1035C10.5846 13.1035 13.1039 10.5847 13.1039 7.4879C13.1039 4.39111 10.5846 1.87206 7.48792 1.87206C4.39113 1.87206 1.87208 4.39111 1.87208 7.4879Z" fill="white"/>
<path d="M3.12006 7.48786H4.36788C4.36788 5.76757 5.76763 4.36794 7.48787 4.36794V3.12C5.07977 3.12 3.12006 5.07971 3.12006 7.48786Z" fill="white"/>
</svg>
