<?xml version="1.0" encoding="utf-8"?>
<svg width="15px" height="15px" viewBox="0 0 15 15" version="1.1" xmlns:xlink="http://www.w3.org/1999/xlink" xmlns="http://www.w3.org/2000/svg">
  <desc>Created with Lunacy</desc>
  <g id="search">
    <path d="M14.5077 13.6545L10.8761 9.94368C11.8098 8.85316 12.3214 7.48105 12.3214 6.05263C12.3214 2.71526 9.55768 0 6.16071 0C2.76375 0 0 2.71526 0 6.05263C0 9.39 2.76375 12.1053 6.16071 12.1053C7.43598 12.1053 8.65125 11.7274 9.69027 11.01L13.3495 14.7489C13.5024 14.905 13.7081 14.9911 13.9286 14.9911C14.1372 14.9911 14.3352 14.9129 14.4854 14.7708C14.8047 14.4689 14.8149 13.9684 14.5077 13.6545ZM6.16071 1.57895C8.67161 1.57895 10.7143 3.58579 10.7143 6.05263C10.7143 8.51947 8.67161 10.5263 6.16071 10.5263C3.64982 10.5263 1.60714 8.51947 1.60714 6.05263C1.60714 3.58579 3.64982 1.57895 6.16071 1.57895Z" transform="translate(0.2635714 0)" id="Shape" fill="#2E3092" stroke="none" />
  </g>
</svg>