<?xml version="1.0" encoding="utf-8"?>
<svg width="14px" height="18px" viewBox="0 0 14 18" version="1.1" xmlns:xlink="http://www.w3.org/1999/xlink" xmlns="http://www.w3.org/2000/svg">
  <desc>Created with Lunacy</desc>
  <g id="Group-3">
    <path d="M6.99971 0C3.14026 0 0 2.97286 0 6.62694C0 7.58007 0.206068 8.49009 0.612173 9.33196C2.36229 12.9575 5.71776 16.7853 6.70471 17.872C6.77866 17.9532 6.88646 18 6.9999 18C7.11335 18 7.22115 17.9532 7.29509 17.872C8.28165 16.7855 11.6371 12.9579 13.3878 9.33196C13.7941 8.49009 14 7.58007 14 6.62694C13.9996 2.97286 10.8594 0 6.99971 0Z" id="Path" fill="#FAAE17" stroke="none" />
    <path d="M3.76923 7.41176C1.69097 7.41176 0 5.74926 0 3.70598C0 1.66251 1.69097 0 3.76923 0C5.84749 0 7.53846 1.66251 7.53846 3.70598C7.53866 5.74926 5.84769 7.41176 3.76923 7.41176Z" transform="translate(3.230769 3.176471)" id="Path" fill="#053484" stroke="none" />
  </g>
</svg>